<svg width="1440" height="780" viewBox="0 0 1440 780" fill="none" xmlns="http://www.w3.org/2000/svg">
<g clip-path="url(#clip0_43_27938)">
<rect width="1440" height="780" fill="white"/>
<rect y="-74" width="1440" height="225" fill="black"/>
<rect x="10" y="151" width="1419" height="638" fill="#31B72E"/>
<rect x="9.5" y="50.5" width="1421" height="739" stroke="black" stroke-width="19"/>
<line x1="116" y1="61" x2="116" y2="819" stroke="black" stroke-width="6"/>
<line x1="214" y1="61" x2="214" y2="819" stroke="black" stroke-width="6"/>
<line x1="322" y1="61" x2="322" y2="819" stroke="black" stroke-width="6"/>
<line x1="422" y1="69" x2="422" y2="827" stroke="black" stroke-width="6"/>
<line x1="522" y1="69" x2="522" y2="827" stroke="black" stroke-width="6"/>
<line x1="620" y1="61" x2="620" y2="819" stroke="black" stroke-width="6"/>
<line x1="722" y1="61" x2="722" y2="819" stroke="black" stroke-width="6"/>
<line x1="822" y1="61" x2="822" y2="819" stroke="black" stroke-width="6"/>
<line x1="922" y1="61" x2="922" y2="819" stroke="black" stroke-width="6"/>
<line x1="1022" y1="61" x2="1022" y2="819" stroke="black" stroke-width="6"/>
<line x1="1122" y1="61" x2="1122" y2="819" stroke="black" stroke-width="6"/>
<line x1="1222" y1="61" x2="1222" y2="819" stroke="black" stroke-width="6"/>
<line x1="1322" y1="61" x2="1322" y2="819" stroke="black" stroke-width="6"/>
<line x1="1422" y1="66" x2="1422" y2="824" stroke="black" stroke-width="6"/>
<line x1="19" y1="153" x2="1459" y2="153" stroke="black" stroke-width="26"/>
<line x1="19" y1="263" x2="1459" y2="263" stroke="black" stroke-width="6"/>
<line x1="19" y1="363" x2="1459" y2="363" stroke="black" stroke-width="6"/>
<line x1="19" y1="463" x2="1459" y2="463" stroke="black" stroke-width="6"/>
<line x1="19" y1="563" x2="1459" y2="563" stroke="black" stroke-width="6"/>
<line x1="19" y1="663" x2="1459" y2="663" stroke="black" stroke-width="6"/>
<line x1="0.0226182" y1="769" x2="1459.02" y2="772" stroke="black" stroke-width="22"/>
<rect x="320" y="263" width="806" height="403" fill="black"/>
<path d="M374.608 344.58L360.558 343.576C360.185 343.549 359.813 343.638 359.493 343.83C359.366 343.907 359.248 343.999 359.143 344.104L353.951 349.296C353.693 349.553 353.519 349.882 353.45 350.24L351.002 362.969C350.888 363.563 351.076 364.174 351.503 364.601L380.188 393.286C380.308 393.406 380.443 393.508 380.591 393.591L381.63 394.167C382.341 394.562 383.227 394.438 383.802 393.863L410.392 367.274C410.703 366.962 410.891 366.549 410.921 366.11L411.912 351.612C411.948 351.087 411.755 350.572 411.383 350.2L406.423 345.24C406.117 344.934 405.713 344.747 405.282 344.712L391.543 343.598C391.046 343.558 390.555 343.723 390.183 344.055L383.184 350.3C382.452 350.953 381.336 350.91 380.657 350.203L375.792 345.135C375.48 344.81 375.058 344.612 374.608 344.58Z" fill="#C62C2C"/>
<path fill-rule="evenodd" clip-rule="evenodd" d="M375.718 341.209H358.207V345.04H375.718V341.209ZM350 349.417L350 366.928H353.83L353.83 349.417H350ZM375.716 345.04H380.093V349.417H375.716V345.04ZM358.209 345.04H353.831V349.417H358.209V345.04ZM380.095 349.418H380.095H384.473V353.795H380.095H380.095V349.418ZM358.209 366.928H353.831V371.305H358.209V366.928ZM358.207 371.305H362.585V375.683H358.207V371.305ZM366.962 375.683H362.585V380.06H366.962V375.683ZM366.962 380.061H371.34V384.438H366.962V380.061ZM375.718 384.438H371.34V388.816H375.716V393.193H380.093V388.815H375.718V384.438ZM406.361 341.209H388.85V345.04H406.361V341.209ZM414.568 349.417V366.928H410.738V371.305H406.361V366.928H410.738L410.738 349.417H414.568ZM388.852 345.04H384.475V349.417H388.852V345.04ZM406.361 345.04H410.738V349.417H406.361V345.04ZM406.361 371.305H401.983V375.683H406.361V371.305ZM397.605 375.683H401.983V380.06H397.605V375.683ZM397.605 380.061H393.228V384.438H397.605V380.061ZM388.85 384.438H393.228V388.816H388.852V393.193H384.475V388.815H388.85V384.438ZM380.095 393.193H384.473V397.571H380.095V393.193Z" fill="black"/>
<path d="M459.15 344.58L445.1 343.576C444.728 343.549 444.356 343.638 444.036 343.83C443.908 343.907 443.791 343.999 443.686 344.104L438.493 349.296C438.236 349.553 438.062 349.882 437.993 350.24L435.545 362.969C435.431 363.563 435.618 364.174 436.045 364.601L464.731 393.286C464.85 393.406 464.986 393.509 465.134 393.591L466.172 394.168C466.883 394.563 467.77 394.438 468.345 393.863L494.934 367.274C495.246 366.962 495.434 366.549 495.464 366.11L496.455 351.612C496.491 351.087 496.298 350.572 495.926 350.2L490.966 345.24C490.66 344.934 490.256 344.747 489.825 344.712L476.085 343.598C475.589 343.558 475.097 343.723 474.725 344.055L467.726 350.3C466.995 350.953 465.878 350.91 465.199 350.203L460.335 345.135C460.022 344.81 459.6 344.612 459.15 344.58Z" fill="#C62C2C"/>
<path fill-rule="evenodd" clip-rule="evenodd" d="M460.262 341.209H442.752L442.752 345.04H438.374V349.417H442.752L442.752 345.04H460.261V349.417H464.638V345.04H460.262V341.209ZM434.543 349.418V366.928H438.373L438.373 349.418H434.543ZM464.638 349.418H464.64H469.016H469.017V353.795H469.016H464.64H464.638V349.418ZM442.752 366.928H438.374V371.306H442.752L442.752 375.683H447.13V371.305H442.752L442.752 366.928ZM451.507 375.683H447.13V380.06H451.505V384.438H455.883V380.06H451.507V375.683ZM460.262 384.438H455.885V388.816H460.261V393.193H464.638L464.638 397.571H464.64H469.016H469.017V393.193H473.393L473.393 388.816H477.771V384.438H473.393V388.816H469.016L469.016 393.193H464.64H464.638L464.638 388.816H460.262V384.438ZM490.904 341.209H473.393L473.393 345.04H469.016V349.417H473.393L473.393 345.04H490.904L490.904 349.417H495.281V345.04H490.904L490.904 341.209ZM499.113 349.418V366.928H495.282L495.282 349.418H499.113ZM490.904 366.928H495.281V371.306H490.904L490.904 375.683H486.526V371.305H490.904L490.904 366.928ZM482.148 375.683H486.526V380.06H482.148L482.148 384.438H477.771V380.06H482.148L482.148 375.683Z" fill="black"/>
<path d="M543.691 344.58L529.641 343.576C529.268 343.549 528.897 343.638 528.576 343.83C528.449 343.907 528.331 343.999 528.226 344.104L523.034 349.296C522.776 349.553 522.602 349.882 522.533 350.24L520.085 362.969C519.971 363.563 520.159 364.174 520.586 364.601L549.271 393.286C549.391 393.406 549.527 393.509 549.674 393.591L550.713 394.168C551.424 394.563 552.31 394.438 552.885 393.863L579.475 367.274C579.786 366.962 579.974 366.549 580.004 366.11L580.996 351.612C581.031 351.087 580.838 350.572 580.466 350.2L575.506 345.24C575.201 344.934 574.796 344.747 574.366 344.712L560.626 343.598C560.129 343.558 559.638 343.723 559.266 344.055L552.267 350.3C551.535 350.953 550.419 350.91 549.74 350.203L544.875 345.135C544.563 344.81 544.141 344.612 543.691 344.58Z" fill="#C62C2C"/>
<path fill-rule="evenodd" clip-rule="evenodd" d="M544.802 341.209H527.292L527.292 345.04H522.914V349.417H527.292L527.292 345.04H544.8V349.417H549.178V345.04H544.802V341.209ZM519.083 349.418V366.928H522.913L522.913 349.418H519.083ZM549.178 349.418H549.179H553.555H553.557V353.795H553.555H549.179H549.178V349.418ZM527.292 366.928H522.914V371.306H527.292L527.292 375.683H531.669V371.305H527.292L527.292 366.928ZM536.047 375.683H531.669V380.06H536.045V384.438H540.423V380.06H536.047V375.683ZM544.802 384.438H540.424V388.816H544.8V393.193H549.178L549.178 397.571H549.179H553.555H553.557V393.193H557.933V388.816H562.31V384.438H557.933V388.816H553.555L553.555 393.193H549.179H549.178L549.178 388.816H544.802V384.438ZM575.443 341.209H557.933L557.933 345.04H553.555V349.417H557.933L557.933 345.04H575.443V349.417H579.821V345.04H575.443V341.209ZM583.652 349.418V366.928H579.822L579.822 349.418H583.652ZM575.443 366.928H579.821V371.306H575.443V375.683H571.066V371.305H575.443V366.928ZM566.688 375.683H571.066V380.06H566.688V384.438H562.31V380.06H566.688V375.683Z" fill="black"/>
<path d="M628.233 344.58L614.183 343.576C613.811 343.549 613.439 343.638 613.119 343.83C612.991 343.907 612.874 343.999 612.769 344.104L607.576 349.296C607.319 349.553 607.145 349.882 607.076 350.24L604.628 362.969C604.514 363.563 604.701 364.174 605.128 364.601L633.814 393.286C633.933 393.406 634.069 393.509 634.217 393.591L635.255 394.168C635.966 394.563 636.853 394.438 637.428 393.863L664.017 367.274C664.329 366.962 664.517 366.549 664.547 366.11L665.538 351.612C665.574 351.087 665.381 350.572 665.009 350.2L660.049 345.24C659.743 344.934 659.339 344.747 658.908 344.712L645.168 343.598C644.672 343.558 644.18 343.723 643.808 344.055L636.809 350.3C636.078 350.953 634.961 350.91 634.282 350.203L629.418 345.135C629.105 344.81 628.683 344.612 628.233 344.58Z" fill="#C62C2C"/>
<path fill-rule="evenodd" clip-rule="evenodd" d="M629.344 341.209H611.834L611.834 345.04H607.456V349.417H611.834L611.834 345.04H629.343V349.417H633.72V345.04H629.344V341.209ZM603.625 349.418L603.625 366.928H607.455L607.455 349.418H603.625ZM633.72 349.418H633.722H638.098H638.1V353.795H638.098H633.722H633.72V349.418ZM611.834 366.928H607.456V371.306H611.834L611.834 375.683H616.212V371.305H611.834L611.834 366.928ZM620.589 375.683H616.212V380.06H620.587V384.438H624.965V380.06H620.589V375.683ZM629.344 384.438H624.967V388.816H629.343V393.193H633.72L633.72 397.571H633.722H638.098H638.1V393.193H642.475L642.475 388.816H646.853V384.438H642.475V388.816H638.098L638.098 393.193H633.722H633.72L633.72 388.816H629.344V384.438ZM659.986 341.209H642.475L642.475 345.04H638.098V349.417H642.475L642.475 345.04H659.986L659.986 349.417H664.363V345.04H659.986L659.986 341.209ZM668.195 349.418V366.928H664.364L664.364 349.418H668.195ZM659.986 366.928H664.363V371.306H659.986L659.986 375.683H655.608V371.305H659.986L659.986 366.928ZM651.23 375.683H655.608V380.06H651.23L651.23 384.438H646.853V380.06H651.23L651.23 375.683Z" fill="black"/>
<path d="M712.776 344.58L698.726 343.576C698.353 343.549 697.981 343.638 697.661 343.83C697.534 343.907 697.416 343.999 697.311 344.104L692.119 349.296C691.861 349.553 691.687 349.882 691.618 350.24L689.17 362.969C689.056 363.563 689.244 364.174 689.671 364.601L718.356 393.286C718.476 393.406 718.611 393.509 718.759 393.591L719.798 394.168C720.509 394.563 721.395 394.438 721.97 393.863L748.56 367.274C748.871 366.962 749.059 366.549 749.089 366.11L750.081 351.612C750.116 351.087 749.923 350.572 749.551 350.2L744.591 345.24C744.286 344.934 743.881 344.747 743.451 344.712L729.711 343.598C729.214 343.558 728.723 343.723 728.351 344.055L721.352 350.3C720.62 350.953 719.504 350.91 718.825 350.203L713.96 345.135C713.648 344.81 713.226 344.612 712.776 344.58Z" fill="#C62C2C"/>
<path fill-rule="evenodd" clip-rule="evenodd" d="M713.886 341.209H696.376L696.376 345.04H691.998V349.417H696.376L696.376 345.04H713.885V349.417H718.262V345.04H713.886V341.209ZM688.167 349.418V366.928H691.997L691.997 349.418H688.167ZM718.262 349.418H718.264H722.64H722.641V353.795H722.64H718.264H718.262V349.418ZM696.376 366.928H691.998V371.306H696.376L696.376 375.683H700.754V371.305H696.376L696.376 366.928ZM705.131 375.683H700.754V380.06H705.129V384.438H709.507V380.06H705.131V375.683ZM713.886 384.438H709.509V388.816H713.885V393.193H718.262V397.571H718.264H722.64H722.641V393.193H727.017V388.816H731.395V384.438H727.017V388.816H722.64L722.64 393.193H718.264H718.262V388.816H713.886V384.438ZM744.528 341.209H727.017L727.017 345.04H722.64V349.417H727.017L727.017 345.04H744.528V349.417H748.905V345.04H744.528V341.209ZM752.737 349.418V366.928H748.906L748.906 349.418H752.737ZM744.528 366.928H748.905V371.306H744.528V375.683H740.15V371.305H744.528V366.928ZM735.772 375.683H740.15V380.06H735.772V384.438H731.395V380.06H735.772V375.683Z" fill="black"/>
<path d="M797.317 341.958L783.267 340.954C782.894 340.927 782.523 341.016 782.202 341.208C782.075 341.285 781.957 341.377 781.852 341.482L776.66 346.674C776.402 346.931 776.228 347.26 776.159 347.618L773.711 360.347C773.597 360.941 773.785 361.552 774.212 361.979L802.897 390.664C803.017 390.784 803.152 390.887 803.3 390.969L804.339 391.546C805.05 391.941 805.936 391.816 806.511 391.241L833.101 364.652C833.412 364.34 833.6 363.927 833.63 363.488L834.622 348.99C834.657 348.465 834.464 347.95 834.092 347.578L829.132 342.618C828.827 342.312 828.422 342.125 827.992 342.09L814.252 340.976C813.755 340.936 813.264 341.101 812.892 341.433L805.893 347.678C805.161 348.331 804.045 348.288 803.366 347.58L798.501 342.513C798.189 342.188 797.767 341.99 797.317 341.958Z" fill="#C62C2C"/>
<path fill-rule="evenodd" clip-rule="evenodd" d="M798.428 338.587H780.918L780.918 342.418H776.54V346.795H780.918L780.918 342.418H798.427V346.795H802.804V342.418H798.428V338.587ZM772.709 346.796L772.709 364.306H776.539L776.539 346.796H772.709ZM802.804 346.796H802.806H807.182H807.183V351.173H807.182H802.806H802.804V346.796ZM780.918 364.306H776.54V368.683H780.918L780.918 373.061H785.296V368.683H780.918L780.918 364.306ZM789.673 373.061H785.296V377.438H789.671V381.816H794.049V377.438H789.673V373.061ZM798.428 381.816H794.051V386.194L798.427 386.194V390.571H802.804L802.804 394.949H802.806H807.182H807.183V390.571H811.559V386.194H815.937V381.816H811.559V386.194L807.182 386.194L807.182 390.571H802.806H802.804L802.804 386.194L798.428 386.194V381.816ZM829.07 338.587H811.559L811.559 342.418H807.182V346.795H811.559L811.559 342.418H829.07L829.07 346.795H833.447V342.418H829.07L829.07 338.587ZM837.279 346.796V364.306H833.448L833.448 346.796H837.279ZM829.07 364.306H833.447V368.683H829.07L829.07 373.061H824.692V368.683H829.07L829.07 364.306ZM820.314 373.061H824.692V377.438H820.314L820.314 381.816H815.937V377.438H820.314L820.314 373.061Z" fill="black"/>
<path d="M883.825 339.992L869.775 338.988C869.403 338.962 869.031 339.05 868.711 339.243C868.583 339.319 868.466 339.411 868.36 339.516L863.168 344.708C862.911 344.966 862.736 345.294 862.668 345.652L860.22 358.382C860.105 358.975 860.293 359.586 860.72 360.014L889.405 388.699C889.525 388.818 889.661 388.921 889.809 389.003L890.847 389.58C891.558 389.975 892.445 389.851 893.02 389.275L919.609 362.686C919.92 362.375 920.109 361.961 920.139 361.522L921.13 347.024C921.166 346.499 920.973 345.984 920.601 345.612L915.641 340.652C915.335 340.346 914.931 340.159 914.5 340.124L900.76 339.01C900.264 338.97 899.772 339.135 899.4 339.467L892.401 345.712C891.67 346.365 890.553 346.322 889.874 345.615L885.009 340.547C884.697 340.222 884.275 340.024 883.825 339.992Z" fill="#C62C2C"/>
<path fill-rule="evenodd" clip-rule="evenodd" d="M884.936 336.622H867.425L867.425 340.452H863.048V344.829H867.425L867.425 340.452H884.934V344.829H889.311V340.452H884.936V336.622ZM859.216 344.83V362.34H863.047L863.047 344.83H859.216ZM889.311 344.83H889.313H893.689H893.691V349.207H893.689H889.313H889.311V344.83ZM867.425 362.34H863.048V366.718H867.425L867.425 371.095H871.803V366.717H867.425L867.425 362.34ZM876.181 371.095H871.803V375.473H876.179V379.85H880.556V375.472H876.181V371.095ZM884.936 379.85H880.558V384.228L884.934 384.228V388.605H889.311L889.311 392.983H889.313H893.689H893.691V388.605H898.067V384.228H902.444V379.85H898.067V384.228L893.689 384.228L893.689 388.605H889.313H889.311L889.311 384.228L884.936 384.228V379.85ZM915.577 336.622H898.067L898.067 340.452H893.689V344.829H898.067L898.067 340.452H915.577L915.577 344.829H919.954V340.452H915.577L915.577 336.622ZM923.786 344.83V362.34H919.956L919.956 344.83H923.786ZM915.577 362.34H919.954V366.718H915.577L915.577 371.095H911.199V366.717H915.577L915.577 362.34ZM906.822 371.095H911.199V375.473H906.822V379.85H902.444V375.472H906.822V371.095Z" fill="black"/>
<path d="M970.334 339.992L956.284 338.988C955.911 338.962 955.54 339.05 955.219 339.243C955.092 339.319 954.974 339.411 954.869 339.516L949.677 344.708C949.42 344.966 949.245 345.294 949.176 345.652L946.728 358.382C946.614 358.975 946.802 359.586 947.229 360.014L975.914 388.699C976.034 388.818 976.17 388.921 976.318 389.003L977.356 389.58C978.067 389.975 978.953 389.851 979.528 389.275L1006.12 362.686C1006.43 362.375 1006.62 361.961 1006.65 361.522L1007.64 347.024C1007.67 346.499 1007.48 345.984 1007.11 345.612L1002.15 340.652C1001.84 340.346 1001.44 340.159 1001.01 340.124L987.269 339.01C986.772 338.97 986.281 339.135 985.909 339.467L978.91 345.712C978.178 346.365 977.062 346.322 976.383 345.615L971.518 340.547C971.206 340.222 970.784 340.024 970.334 339.992Z" fill="white"/>
<path fill-rule="evenodd" clip-rule="evenodd" d="M971.444 336.622H953.934L953.934 340.452H949.557V344.829H953.934L953.934 340.452H971.443V344.829H975.82V340.452H971.444V336.622ZM945.725 344.83V362.34H949.555L949.555 344.83H945.725ZM975.82 344.83H975.822H980.198H980.2V349.207H980.198H975.822H975.82V344.83ZM953.934 362.34H949.557V366.718H953.934L953.934 371.095H958.312V366.717H953.934L953.934 362.34ZM962.689 371.095H958.312V375.473H962.688V379.85H967.065V375.472H962.689V371.095ZM971.444 379.85H967.067V384.228L971.443 384.228V388.605H975.82L975.82 392.983H975.822H980.198H980.2V388.605H984.575L984.575 384.228H988.953V379.85H984.575V384.228L980.198 384.228V388.605H975.822H975.82L975.82 384.228L971.444 384.228V379.85ZM1002.09 336.622H984.575L984.575 340.452H980.198V344.829H984.575L984.575 340.452H1002.09L1002.09 344.829H1006.46V340.452H1002.09L1002.09 336.622ZM1010.29 344.83V362.34H1006.46L1006.46 344.83H1010.29ZM1002.09 362.34H1006.46V366.718H1002.09L1002.09 371.095H997.708V366.717H1002.09L1002.09 362.34ZM993.331 371.095H997.708V375.473H993.331L993.331 379.85H988.953V375.472H993.331L993.331 371.095Z" fill="black"/>
<path d="M1056.84 337.37L1042.79 336.367C1042.42 336.34 1042.05 336.429 1041.73 336.621C1041.6 336.697 1041.48 336.789 1041.38 336.894L1036.18 342.086C1035.93 342.344 1035.75 342.673 1035.68 343.03L1033.24 355.76C1033.12 356.353 1033.31 356.965 1033.74 357.392L1062.42 386.077C1062.54 386.197 1062.68 386.299 1062.82 386.381L1063.86 386.958C1064.57 387.353 1065.46 387.229 1066.04 386.654L1092.62 360.064C1092.94 359.753 1093.12 359.34 1093.15 358.901L1094.15 344.403C1094.18 343.877 1093.99 343.362 1093.62 342.99L1088.66 338.03C1088.35 337.725 1087.95 337.538 1087.52 337.503L1073.78 336.389C1073.28 336.348 1072.79 336.513 1072.42 336.845L1065.42 343.091C1064.69 343.743 1063.57 343.7 1062.89 342.993L1058.03 337.926C1057.71 337.6 1057.29 337.402 1056.84 337.37Z" fill="white"/>
<path fill-rule="evenodd" clip-rule="evenodd" d="M1057.95 334H1040.44L1040.44 337.83H1036.06V342.208H1040.44L1040.44 337.83H1057.95V342.208H1062.33V337.83H1057.95V334ZM1032.23 342.208L1032.23 359.718H1036.06L1036.06 342.208H1032.23ZM1062.33 342.208H1062.33H1066.71H1066.71V346.586H1066.71H1062.33H1062.33V342.208ZM1040.44 359.718H1036.06V364.096H1040.44L1040.44 368.473H1044.82V364.095H1040.44L1040.44 359.718ZM1049.2 368.473H1044.82V372.851H1049.19V377.228H1053.57V372.851H1049.2V368.473ZM1057.95 377.229H1053.57V381.606H1057.95V385.984H1062.33L1062.33 390.361H1062.33H1066.71H1066.71V385.984H1071.08V381.606H1066.7V385.983H1062.33H1062.33L1062.33 381.606H1057.95V377.229ZM1088.59 334H1071.08V337.83H1088.59L1088.59 342.208H1092.97V337.83H1088.59L1088.59 334ZM1096.8 342.208V359.718H1092.97L1092.97 342.208H1096.8ZM1071.08 337.83H1066.7V342.208H1071.08V337.83ZM1088.59 359.718H1092.97V364.096H1088.59L1088.59 368.473H1084.22V364.095H1088.59L1088.59 359.718ZM1079.84 368.473H1084.22V372.851H1079.84L1079.84 377.228H1075.46V372.851H1079.84L1079.84 368.473ZM1071.08 377.229H1075.46V381.606H1071.08V377.229Z" fill="black"/>
</g>
<defs>
<clipPath id="clip0_43_27938">
<rect width="1440" height="780" fill="white"/>
</clipPath>
</defs>
</svg>
