<svg width="1440" height="995" viewBox="0 0 1440 995" fill="none" xmlns="http://www.w3.org/2000/svg">
<g clip-path="url(#clip0_31_26168)">
<rect width="1440" height="995" fill="white"/>
<rect width="1440" height="995" fill="black"/>
<path d="M84 368H323.526V499.9H84V679.492H197.968V711.536H84V905.287H662.899V994.715M1356 368H1130.96V499.9H1356V905.287H781.279V994.715" stroke="#31B72E" stroke-width="23.2117"/>
<path d="M558.447 485.33H715.357M872.268 485.33H715.357M715.357 485.33V605.522" stroke="#31B72E" stroke-width="23.2117"/>
<path d="M558.447 690.658H715.357M872.268 690.658H715.357M715.357 690.658V810.85" stroke="#31B72E" stroke-width="23.2117"/>
<path d="M449.363 690.658V805.127H201.915H602.084" stroke="#31B72E" stroke-width="23.2117"/>
<path d="M988.78 690.658V805.127H1236.23H836.058" stroke="#31B72E" stroke-width="23.2117"/>
<path d="M213.985 587.637H319.83V711.406" stroke="#31B72E" stroke-width="23.2117"/>
<path d="M1245.51 590.498H1139.67V714.267" stroke="#31B72E" stroke-width="23.2117"/>
<path d="M442.388 590.498H598.37" stroke="#31B72E" stroke-width="23.2117"/>
<path d="M836.058 590.498H991.112" stroke="#31B72E" stroke-width="23.2117"/>
<path d="M670.591 370.062H662.99V433.636H672.665V428.108H680.957V418.434H688.558V428.108H696.85V433.636H712.744V418.434H726.564V433.636H745.222V428.108H752.132V418.434H763.188V428.108H769.407V433.636H777.008V370.062H769.407V344.495H760.424V336.893H752.132V328.601H736.929V321H705.142V328.601H688.558V336.893H680.957V344.495H670.591V370.062Z" fill="#C62C2C"/>
<path d="M840.583 370.062H832.982V433.636H842.656V428.108H850.948V418.434H858.55V428.108H866.842V433.636H882.735V418.434H896.556V433.636H915.213V428.108H922.123V418.434H933.18V428.108H939.399V433.636H947V370.062H939.399V344.495H930.416V336.893H922.123V328.601H906.921V321H875.134V328.601H858.55V336.893H850.948V344.495H840.583V370.062Z" fill="#FFF500"/>
<path d="M500.601 370.062H493V433.636H502.674V428.108H510.967V418.434H518.568V428.108H526.86V433.636H542.753V418.434H556.574V433.636H575.231V428.108H582.142V418.434H593.198V428.108H599.417V433.636H607.018V370.062H599.417V344.495H590.434V336.893H582.142V328.601H566.939V321H535.152V328.601H518.568V336.893H510.967V344.495H500.601V370.062Z" fill="#31B72E"/>
<path d="M682.34 381.119H687.868V386.647H706.526V381.119H712.745V359.698H706.526V351.405H687.868V359.698H682.34V381.119Z" fill="white"/>
<path d="M852.33 381.119H857.858V386.647H876.516V381.119H882.735V359.698H876.516V351.405H857.858V359.698H852.33V381.119Z" fill="white"/>
<path d="M512.348 381.119H517.877V386.647H536.534V381.119H542.753V359.698H536.534V351.405H517.877V359.698H512.348V381.119Z" fill="white"/>
<path d="M726.564 381.119H732.092V386.647H750.75V381.119H756.969V359.698H750.75V351.405H732.092V359.698H726.564V381.119Z" fill="white"/>
<path d="M896.556 381.119H902.084V386.647H920.742V381.119H926.961V359.698H920.742V351.405H902.084V359.698H896.556V381.119Z" fill="white"/>
<path d="M556.574 381.119H562.102V386.647H580.76V381.119H586.979V359.698H580.76V351.405H562.102V359.698H556.574V381.119Z" fill="white"/>
<rect x="689.25" y="377.664" width="16.5845" height="16.5845" fill="#161CA9"/>
<rect x="859.24" y="361.079" width="16.5845" height="16.5845" fill="#161CA9"/>
<rect x="519.259" y="351.405" width="16.5845" height="16.5845" fill="#161CA9"/>
<rect x="733.475" y="377.664" width="16.5845" height="16.5845" fill="#161CA9"/>
<rect x="903.465" y="361.079" width="16.5845" height="16.5845" fill="#161CA9"/>
<rect x="563.484" y="351.405" width="16.5845" height="16.5845" fill="#161CA9"/>
</g>
<defs>
<clipPath id="clip0_31_26168">
<rect width="1440" height="995" fill="white"/>
</clipPath>
</defs>
</svg>
