<svg width="1440" height="900" viewBox="0 0 1440 900" fill="none" xmlns="http://www.w3.org/2000/svg">
<rect width="1440" height="900" fill="black"/>
<rect x="1413" y="100" width="10.6667" height="10" fill="#58CA56"/>
<rect x="1191" y="184" width="11.3333" height="10" fill="#58CA56"/>
<rect x="1270" y="402" width="11.3333" height="10" fill="#58CA56"/>
<rect x="453" y="500" width="10.6667" height="10" fill="#58CA56"/>
<rect x="1350" y="660" width="10.6667" height="10" fill="#58CA56"/>
<rect x="916" y="317" width="10.6667" height="10" fill="#58CA56"/>
<rect x="179" y="380" width="10.6667" height="10" fill="#58CA56"/>
<rect x="393" y="855" width="10.6667" height="10" fill="#58CA56"/>
<rect x="607" y="269" width="10.6667" height="10" fill="#58CA56"/>
<rect x="109" y="63" width="10.6667" height="10" fill="#58CA56"/>
<rect x="779" y="53" width="10.6667" height="10" fill="#58CA56"/>
<rect x="115" y="670" width="10.6667" height="10" fill="#58CA56"/>
<rect x="437" y="90" width="10.6667" height="10" fill="#58CA56"/>
<rect x="458.43" y="329.43" width="607.491" height="482.638" fill="white" stroke="white" stroke-width="1.86347"/>
<rect x="437.932" y="308.932" width="607.491" height="482.638" fill="black" stroke="black" stroke-width="1.86347"/>
<rect x="472.406" y="414.218" width="531.089" height="327.97" fill="white"/>
<rect x="448.181" y="326.635" width="570.221" height="80.1292" fill="black"/>
<rect x="454.703" y="407.695" width="568.358" height="354.059" stroke="black" stroke-width="1.86347"/>
<rect x="951.317" y="335.952" width="52.1771" height="52.1771" fill="white"/>
<rect x="878.642" y="335.952" width="52.1771" height="52.1771" fill="white"/>
<rect x="962.498" y="347.133" width="29.8155" height="29.8155" fill="black"/>
<rect x="889.823" y="367.631" width="29.8155" height="9.31734" fill="black"/>
<path d="M544 551.616V494.518H557.117V476H641.992V496.833H744.614V476H827.946V496.833H840.292V553.159H821.773V570.134H840.292V621.831H821.002L821.773 663.497H840.292V708.249H821.773V719.823H840.292V756.088H784.737V775.378H727.639V756.088H711.436V736.798H674.399V756.088H655.881V775.378H599.555V756.088H544V719.052H564.061V708.249H544V663.497H563.29V621.831H544V569.363H563.29V551.616H544Z" fill="#31B72E" stroke="black" stroke-width="12.3455"/>
<rect x="570.234" y="570.135" width="243.823" height="52.4683" fill="#FFF500"/>
<rect x="562.518" y="482.173" width="74.0729" height="63.2706" fill="#FFF500"/>
<rect x="749.243" y="482.173" width="72.5297" height="64.8138" fill="#FFF500"/>
<rect x="627.332" y="662.726" width="21.6046" height="92.5911" fill="#FFF500"/>
<rect x="733.812" y="662.726" width="21.6046" height="92.5911" fill="#FFF500"/>
<rect x="605.727" y="750.688" width="43.2092" height="18.5182" fill="#FFF500"/>
<rect x="733.812" y="750.688" width="44.7524" height="18.5182" fill="#FFF500"/>
<rect x="570.234" y="662.726" width="44.7524" height="44.7524" fill="#FFF500"/>
<rect x="769.305" y="662.726" width="44.7524" height="44.7524" fill="#FFF500"/>
<rect x="656.652" y="515.352" width="70.9865" height="37.0364" fill="#FFF500"/>
<rect x="584.123" y="585.566" width="217.589" height="21.6046" fill="black"/>
<rect x="584.123" y="503.006" width="27.7773" height="27.7773" fill="black"/>
<rect x="773.935" y="503.006" width="27.7773" height="27.7773" fill="black"/>
</svg>
