<svg width="1440" height="1361" viewBox="0 0 1440 1361" fill="none" xmlns="http://www.w3.org/2000/svg">
<rect width="1440" height="1361" fill="black"/>
<path d="M276.215 854.546L275.576 229.749H1196.67V854.546H276.215Z" fill="black"/>
<circle cx="1167.41" cy="946.702" r="10.9998" transform="rotate(5.4555 1167.41 946.702)" fill="#D9D9D9"/>
<circle cx="1112.14" cy="946.948" r="10.9998" transform="rotate(5.4555 1112.14 946.948)" fill="#D9D9D9"/>
<circle cx="1056.86" cy="947.193" r="10.9998" transform="rotate(5.4555 1056.86 947.193)" fill="#D9D9D9"/>
<circle cx="1001.6" cy="947.441" r="10.9998" transform="rotate(5.4555 1001.6 947.441)" fill="#D9D9D9"/>
<line x1="235.088" y1="980.149" x2="1220.59" y2="980.149" stroke="white" stroke-width="6.4412"/>
<rect x="280.177" y="77" width="891.646" height="41.4077" fill="white"/>
<rect x="281.097" y="1112.19" width="890.726" height="41.4077" fill="white"/>
<rect x="231.408" y="167.177" width="896.247" height="41.4077" transform="rotate(90 231.408 167.177)" fill="white"/>
<rect x="1262" y="167.177" width="896.247" height="41.4077" transform="rotate(90 1262 167.177)" fill="white"/>
<rect x="231.408" y="118.408" width="48.7691" height="48.7691" fill="white"/>
<rect x="1171.82" y="118.408" width="48.7691" height="48.7691" fill="white"/>
<rect x="232.328" y="1063.42" width="48.7691" height="48.7691" fill="white"/>
<rect x="1171.82" y="1063.42" width="48.7691" height="48.7691" fill="white"/>
<rect x="353.904" y="203.984" width="765.363" height="26.0126" fill="white"/>
<rect x="354.694" y="854.298" width="764.573" height="26.0126" fill="white"/>
<rect x="312.039" y="260.633" width="563.027" height="35.5432" transform="rotate(90 312.039 260.633)" fill="white"/>
<rect x="1196.67" y="260.633" width="563.027" height="35.5432" transform="rotate(90 1196.67 260.633)" fill="white"/>
<rect x="312.039" y="229.997" width="41.862" height="30.637" fill="white"/>
<rect x="1119.26" y="229.997" width="41.862" height="30.637" fill="white"/>
<rect x="312.834" y="823.662" width="41.862" height="30.637" fill="white"/>
<rect x="1119.26" y="823.662" width="41.862" height="30.637" fill="white"/>
<g filter="url(#filter0_f_31_27165)">
<path d="M427.787 451.086V495.019H406.822L406.35 490.425C402.895 492.624 399.205 494.194 395.279 495.136C391.353 496.079 386.642 496.55 381.145 496.55C371.173 496.55 362.457 494.94 354.997 491.721C347.538 488.423 341.806 483.79 337.801 477.822C333.797 471.855 331.794 464.827 331.794 456.739V456.151C331.794 448.141 333.797 441.153 337.801 435.185C341.806 429.139 347.459 424.467 354.762 421.169C362.064 417.871 370.584 416.222 380.321 416.222C390.057 416.222 398.459 417.361 405.526 419.638C412.671 421.837 418.129 425.056 421.898 429.296C425.745 433.536 427.669 438.562 427.669 444.372V444.726H403.524V444.372C403.524 443.116 402.503 441.977 400.461 440.957C398.42 439.857 395.711 438.994 392.334 438.365C388.958 437.659 385.346 437.305 381.498 437.305C364.459 437.305 355.94 443.509 355.94 455.915V457.093C355.94 463.296 358.021 467.889 362.182 470.873C366.344 473.857 372.783 475.349 381.498 475.349C392.02 475.349 399.99 473.818 405.408 470.755V468.518H368.778V451.086H427.787ZM522.001 491.485V495.019H498.916L493.851 482.298H459.93L454.866 495.019H431.78V491.485L463.817 417.754H489.965L522.001 491.485ZM485.96 462.746L476.891 440.25L467.822 462.746H485.96ZM635.841 495.019H612.52V452.028L594.382 495.019H571.179L553.158 452.264V495.019H529.72V417.754H561.403L582.839 468.518L604.04 417.754H635.841V495.019ZM722.564 417.754V438.012H674.626V446.375H720.208V466.28H674.626V474.76H722.564V495.019H650.952V417.754H722.564ZM827.277 496.55C817.776 496.55 809.414 494.94 802.19 491.721C794.966 488.423 789.352 483.751 785.347 477.705C781.421 471.658 779.458 464.67 779.458 456.739V456.151C779.458 448.22 781.421 441.231 785.347 435.185C789.352 429.139 794.966 424.467 802.19 421.169C809.414 417.871 817.776 416.222 827.277 416.222C836.936 416.222 845.377 417.871 852.601 421.169C859.825 424.467 865.4 429.139 869.326 435.185C873.252 441.153 875.215 448.141 875.215 456.151V456.739C875.215 464.749 873.252 471.776 869.326 477.822C865.4 483.79 859.825 488.423 852.601 491.721C845.377 494.94 836.936 496.55 827.277 496.55ZM827.277 474.524C835.444 474.524 841.451 473.111 845.298 470.284C849.146 467.379 851.069 462.982 851.069 457.093V455.915C851.069 444.137 843.139 438.248 827.277 438.248C819.504 438.248 813.615 439.74 809.61 442.723C805.606 445.707 803.603 450.104 803.603 455.915V457.093C803.603 462.982 805.566 467.379 809.492 470.284C813.418 473.111 819.347 474.524 827.277 474.524ZM964.834 417.754V421.287L933.386 495.019H906.061L874.613 421.287V417.754H898.876L919.606 470.52L940.335 417.754H964.834ZM1044.16 417.754V438.012H996.226V446.375H1041.81V466.28H996.226V474.76H1044.16V495.019H972.552V417.754H1044.16ZM1139.06 444.961C1139.06 451.164 1137.21 456.19 1133.52 460.037C1129.91 463.885 1124.65 466.398 1117.74 467.575L1138.58 491.485V495.019H1111.85L1089.94 468.4H1081.34V495.019H1057.67V417.754H1107.96C1117.62 417.754 1125.2 420.07 1130.69 424.703C1136.27 429.335 1139.06 435.696 1139.06 443.783V444.961ZM1081.34 450.85H1107.37C1112.4 450.85 1114.91 448.927 1114.91 445.079V443.901C1114.91 440.132 1112.4 438.248 1107.37 438.248H1081.34V450.85Z" fill="#31B72E"/>
</g>
<path d="M557.531 600.915C553.016 600.915 549.071 600.129 545.694 598.559C542.318 596.949 539.707 594.672 537.862 591.728C536.056 588.783 535.153 585.348 535.153 581.422V580.421C535.153 576.495 536.056 573.059 537.862 570.115C539.707 567.17 542.318 564.893 545.694 563.283C549.071 561.674 553.016 560.869 557.531 560.869C561.614 560.869 565.285 561.556 568.544 562.93C571.842 564.304 574.413 566.208 576.259 568.642C578.143 571.037 579.085 573.727 579.085 576.711V577.241H573.138V576.711C573.138 574.747 572.47 572.981 571.135 571.41C569.8 569.84 567.935 568.603 565.541 567.7C563.185 566.797 560.515 566.346 557.531 566.346C552.27 566.346 548.207 567.563 545.341 569.997C542.514 572.431 541.101 575.886 541.101 580.362V581.481C541.101 585.956 542.514 589.411 545.341 591.845C548.207 594.24 552.27 595.438 557.531 595.438C560.554 595.438 563.244 595.006 565.599 594.142C567.994 593.239 569.84 592.003 571.135 590.432C572.47 588.862 573.138 587.095 573.138 585.132V584.543H579.085V585.132C579.085 588.116 578.143 590.805 576.259 593.2C574.413 595.595 571.842 597.479 568.544 598.854C565.285 600.228 561.614 600.915 557.531 600.915ZM608.709 600.915C604.273 600.915 600.386 600.11 597.049 598.5C593.711 596.89 591.14 594.613 589.334 591.669C587.528 588.724 586.625 585.269 586.625 581.304V580.538C586.625 576.573 587.528 573.118 589.334 570.174C591.14 567.19 593.711 564.893 597.049 563.283C600.386 561.674 604.273 560.869 608.709 560.869C613.145 560.869 617.013 561.674 620.311 563.283C623.648 564.893 626.219 567.19 628.025 570.174C629.831 573.118 630.734 576.573 630.734 580.538V581.304C630.734 585.269 629.831 588.724 628.025 591.669C626.219 594.613 623.648 596.89 620.311 598.5C617.013 600.11 613.145 600.915 608.709 600.915ZM608.709 595.438C613.774 595.438 617.719 594.201 620.546 591.728C623.373 589.254 624.786 585.819 624.786 581.422V580.48C624.786 576.043 623.373 572.588 620.546 570.115C617.719 567.602 613.774 566.346 608.709 566.346C603.644 566.346 599.679 567.602 596.813 570.115C593.986 572.588 592.573 576.043 592.573 580.48V581.422C592.573 585.819 593.986 589.254 596.813 591.728C599.679 594.201 603.644 595.438 608.709 595.438ZM677.314 561.576V600.208H671.543L645.631 569.761V600.208H639.918V561.576H645.69L671.602 591.963V561.576H677.314ZM683.459 566.817V561.576H722.739V566.817H706.014V600.208H700.184V566.817H683.459ZM735.189 561.576V600.208H729.359V561.576H735.189ZM783.882 561.576V600.208H778.11L752.198 569.761V600.208H746.486V561.576H752.257L778.169 591.963V561.576H783.882ZM812.64 600.915C808.989 600.915 805.75 600.208 802.923 598.795C800.136 597.342 797.976 595.32 796.445 592.729C794.914 590.138 794.148 587.134 794.148 583.719V561.576H800.038V583.836C800.038 587.448 801.157 590.295 803.394 592.376C805.632 594.417 808.714 595.438 812.64 595.438C816.566 595.438 819.648 594.417 821.886 592.376C824.163 590.295 825.302 587.448 825.302 583.836V561.576H831.191V583.719C831.191 587.134 830.406 590.138 828.835 592.729C827.304 595.32 825.145 597.342 822.357 598.795C819.57 600.208 816.331 600.915 812.64 600.915ZM874.297 561.576V566.817H847.325V578.242H873.119V583.483H847.325V594.967H874.297V600.208H841.436V561.576H874.297ZM894.064 587.841C894.064 585.564 894.516 583.777 895.419 582.482C896.361 581.147 898.049 579.851 900.484 578.595C902.918 577.339 904.547 576.298 905.371 575.474C906.235 574.61 906.667 573.609 906.667 572.47V571.94C906.667 570.095 905.823 568.662 904.135 567.641C902.486 566.581 900.13 566.051 897.068 566.051C893.848 566.051 891.336 566.679 889.53 567.936C887.724 569.192 886.821 570.939 886.821 573.177V574.414H881.167V573.177C881.167 569.369 882.581 566.365 885.407 564.167C888.234 561.968 892.101 560.869 897.009 560.869C899.954 560.869 902.604 561.34 904.959 562.282C907.315 563.224 909.16 564.54 910.495 566.228C911.83 567.877 912.497 569.742 912.497 571.823V572.647C912.497 574.453 911.928 576.063 910.789 577.476C909.651 578.85 907.786 580.205 905.195 581.54C903.546 582.403 902.309 583.149 901.485 583.777C900.66 584.366 900.091 584.975 899.777 585.603C899.463 586.192 899.306 586.938 899.306 587.841V589.49H894.064V587.841ZM896.715 600.915C895.654 600.915 894.771 600.601 894.064 599.972C893.397 599.305 893.063 598.441 893.063 597.381C893.063 596.321 893.397 595.477 894.064 594.849C894.771 594.181 895.654 593.848 896.715 593.848C897.775 593.848 898.638 594.181 899.306 594.849C899.973 595.477 900.307 596.321 900.307 597.381C900.307 598.441 899.973 599.305 899.306 599.972C898.638 600.601 897.775 600.915 896.715 600.915Z" fill="white"/>
<path d="M486.309 683.002L468.289 705.086V720.751H462.459V705.086L444.379 683.002V682.118H450.916L465.344 699.609L479.773 682.118H486.309V683.002ZM524.976 682.118V687.36H498.004V698.785H523.799V704.026H498.004V715.51H524.976V720.751H492.115V682.118H524.976ZM552.223 721.458C545.98 721.458 541.249 720.378 538.03 718.219C534.85 716.02 533.26 712.82 533.26 708.619V708.031H539.149V708.619C539.149 713.645 543.605 716.157 552.517 716.157C556.482 716.157 559.506 715.667 561.586 714.685C563.667 713.704 564.708 712.251 564.708 710.327V709.856C564.708 708.207 564.04 706.97 562.705 706.146C561.41 705.322 559.093 704.693 555.756 704.262L546.981 703.084C542.702 702.534 539.483 701.435 537.323 699.786C535.203 698.098 534.143 695.84 534.143 693.013V692.424C534.143 688.969 535.674 686.28 538.737 684.356C541.799 682.393 546.118 681.412 551.693 681.412C557.621 681.412 562.116 682.472 565.179 684.592C568.28 686.712 569.831 689.794 569.831 693.838V694.427H564.001V693.838C564.001 689.087 559.898 686.712 551.693 686.712C547.924 686.712 545.038 687.203 543.036 688.184C541.073 689.127 540.091 690.501 540.091 692.307V692.778C540.091 694.23 540.719 695.349 541.976 696.135C543.232 696.92 545.332 697.509 548.277 697.901L557.111 699.02C561.783 699.609 565.198 700.748 567.358 702.436C569.556 704.124 570.656 706.519 570.656 709.621V710.209C570.656 713.782 569.066 716.55 565.885 718.513C562.705 720.476 558.151 721.458 552.223 721.458Z" fill="white"/>
<path d="M937.665 682.118V720.751H931.893L905.981 690.304V720.751H900.269V682.118H906.04L931.952 712.506V682.118H937.665ZM968.955 721.458C964.519 721.458 960.632 720.653 957.295 719.043C953.958 717.433 951.386 715.156 949.58 712.212C947.774 709.267 946.871 705.812 946.871 701.847V701.081C946.871 697.116 947.774 693.661 949.58 690.717C951.386 687.733 953.958 685.436 957.295 683.826C960.632 682.217 964.519 681.412 968.955 681.412C973.392 681.412 977.259 682.217 980.557 683.826C983.894 685.436 986.466 687.733 988.272 690.717C990.078 693.661 990.981 697.116 990.981 701.081V701.847C990.981 705.812 990.078 709.267 988.272 712.212C986.466 715.156 983.894 717.433 980.557 719.043C977.259 720.653 973.392 721.458 968.955 721.458ZM968.955 715.981C974.02 715.981 977.966 714.744 980.793 712.271C983.619 709.797 985.033 706.362 985.033 701.965V701.022C985.033 696.586 983.619 693.131 980.793 690.658C977.966 688.145 974.02 686.889 968.955 686.889C963.891 686.889 959.926 688.145 957.059 690.658C954.233 693.131 952.819 696.586 952.819 701.022V701.965C952.819 706.362 954.233 709.797 957.059 712.271C959.926 714.744 963.891 715.981 968.955 715.981Z" fill="white"/>
<path d="M877.368 702.257L824.228 724.969L824.228 679.546L877.368 702.257Z" fill="#31B72E"/>
<defs>
<filter id="filter0_f_31_27165" x="308.79" y="393.218" width="853.27" height="126.336" filterUnits="userSpaceOnUse" color-interpolation-filters="sRGB">
<feFlood flood-opacity="0" result="BackgroundImageFix"/>
<feBlend mode="normal" in="SourceGraphic" in2="BackgroundImageFix" result="shape"/>
<feGaussianBlur stdDeviation="11.5021" result="effect1_foregroundBlur_31_27165"/>
</filter>
</defs>
</svg>
