<svg width="1440" height="1862" viewBox="0 0 1440 1862" fill="none" xmlns="http://www.w3.org/2000/svg">
<rect width="1440" height="1862" fill="black"/>
<path d="M287.794 1166.85L275.054 1179.78H287.794V1182.19H271.456V1179.78L284.196 1166.85H271.456V1164.45H287.794V1166.85Z" fill="black"/>
<path d="M328.333 1164.45L328.198 1177.27H325.763L325.628 1164.45H328.333ZM326.981 1182.52C326.494 1182.52 326.097 1182.37 325.79 1182.08C325.484 1181.78 325.33 1181.38 325.33 1180.89C325.33 1180.41 325.484 1180.02 325.79 1179.73C326.097 1179.42 326.494 1179.27 326.981 1179.27C327.467 1179.27 327.864 1179.42 328.171 1179.73C328.477 1180.02 328.631 1180.41 328.631 1180.89C328.631 1181.38 328.477 1181.78 328.171 1182.08C327.864 1182.37 327.467 1182.52 326.981 1182.52Z" fill="black"/>
<path d="M373.874 1176.51C373.874 1175.46 374.082 1174.64 374.496 1174.05C374.929 1173.44 375.705 1172.84 376.823 1172.26C377.941 1171.69 378.689 1171.21 379.068 1170.83C379.465 1170.43 379.663 1169.97 379.663 1169.45V1169.21C379.663 1168.36 379.275 1167.7 378.5 1167.23C377.742 1166.75 376.66 1166.5 375.254 1166.5C373.775 1166.5 372.621 1166.79 371.791 1167.37C370.962 1167.95 370.547 1168.75 370.547 1169.78V1170.34H367.95V1169.78C367.95 1168.03 368.599 1166.65 369.898 1165.64C371.196 1164.63 372.973 1164.12 375.227 1164.12C376.579 1164.12 377.796 1164.34 378.878 1164.77C379.96 1165.2 380.808 1165.81 381.421 1166.58C382.034 1167.34 382.341 1168.2 382.341 1169.15V1169.53C382.341 1170.36 382.079 1171.1 381.556 1171.75C381.033 1172.38 380.177 1173 378.987 1173.62C378.229 1174.01 377.661 1174.36 377.283 1174.64C376.904 1174.91 376.642 1175.19 376.498 1175.48C376.354 1175.75 376.282 1176.1 376.282 1176.51V1177.27H373.874V1176.51ZM375.091 1182.52C374.605 1182.52 374.199 1182.37 373.874 1182.08C373.568 1181.78 373.414 1181.38 373.414 1180.89C373.414 1180.41 373.568 1180.02 373.874 1179.73C374.199 1179.42 374.605 1179.27 375.091 1179.27C375.578 1179.27 375.975 1179.42 376.282 1179.73C376.588 1180.02 376.742 1180.41 376.742 1180.89C376.742 1181.38 376.588 1181.78 376.282 1182.08C375.975 1182.37 375.578 1182.52 375.091 1182.52Z" fill="black"/>
<path d="M421.9 1164.12C424.334 1164.12 426.462 1164.54 428.283 1165.37C430.123 1166.2 431.538 1167.37 432.53 1168.88C433.54 1170.4 434.045 1172.16 434.045 1174.16V1176.08C434.045 1177.7 433.675 1178.96 432.936 1179.87C432.197 1180.75 431.16 1181.19 429.825 1181.19C429.032 1181.19 428.329 1181.04 427.715 1180.73C427.102 1180.42 426.624 1179.99 426.282 1179.43C425.669 1180.06 424.911 1180.55 424.01 1180.89C423.108 1181.24 422.143 1181.41 421.115 1181.41C419.871 1181.41 418.771 1181.16 417.815 1180.68C416.859 1180.19 416.111 1179.5 415.57 1178.62C415.047 1177.74 414.785 1176.72 414.785 1175.56V1174.91C414.785 1173.74 415.047 1172.71 415.57 1171.83C416.111 1170.95 416.859 1170.26 417.815 1169.78C418.789 1169.29 419.907 1169.05 421.169 1169.05C422.071 1169.05 422.919 1169.17 423.712 1169.42C424.505 1169.68 425.2 1170.05 425.795 1170.53L425.849 1169.32H428.067V1176.89C428.067 1177.54 428.211 1178.04 428.5 1178.4C428.806 1178.75 429.23 1178.92 429.771 1178.92C431.015 1178.92 431.638 1177.94 431.638 1175.97V1173.91C431.638 1172.42 431.241 1171.11 430.447 1169.99C429.654 1168.86 428.527 1167.99 427.066 1167.4C425.605 1166.78 423.892 1166.48 421.927 1166.48C419.907 1166.48 418.14 1166.81 416.625 1167.48C415.11 1168.14 413.938 1169.09 413.108 1170.32C412.279 1171.52 411.864 1172.94 411.864 1174.56V1176.02C411.864 1177.59 412.243 1178.95 413 1180.11C413.758 1181.26 414.831 1182.15 416.219 1182.76C417.626 1183.39 419.285 1183.71 421.196 1183.71H426.228V1186.01H421.196C418.888 1186.01 416.841 1185.58 415.056 1184.73C413.289 1183.9 411.909 1182.74 410.917 1181.24C409.925 1179.73 409.43 1178 409.43 1176.05V1174.48C409.43 1172.44 409.943 1170.64 410.971 1169.07C412.017 1167.5 413.478 1166.29 415.353 1165.42C417.247 1164.55 419.429 1164.12 421.9 1164.12ZM421.386 1179.13C422.323 1179.13 423.171 1178.96 423.928 1178.62C424.704 1178.28 425.299 1177.81 425.714 1177.21V1173.24C425.299 1172.64 424.704 1172.17 423.928 1171.83C423.171 1171.49 422.332 1171.32 421.413 1171.32C420.06 1171.32 419.014 1171.63 418.275 1172.26C417.554 1172.88 417.193 1173.76 417.193 1174.91V1175.56C417.193 1176.68 417.563 1177.56 418.302 1178.19C419.041 1178.82 420.069 1179.13 421.386 1179.13Z" fill="black"/>
<path d="M472.23 1172.24C476.288 1172.67 478.316 1174.04 478.316 1176.35V1176.62C478.316 1178.1 477.667 1179.26 476.369 1180.11C475.07 1180.94 473.204 1181.42 470.769 1181.57V1183.81H468.2V1181.57C465.729 1181.42 463.845 1180.93 462.546 1180.08C461.248 1179.23 460.599 1178.05 460.599 1176.54V1176.29H463.25V1176.54C463.25 1178.32 465.432 1179.22 469.796 1179.22C473.691 1179.22 475.638 1178.45 475.638 1176.92V1176.65C475.638 1176.21 475.521 1175.87 475.287 1175.62C475.052 1175.37 474.656 1175.17 474.097 1175.02C473.538 1174.86 472.735 1174.73 471.689 1174.62L467.064 1174.16C464.972 1173.96 463.439 1173.53 462.465 1172.86C461.509 1172.17 461.031 1171.22 461.031 1169.99V1169.72C461.031 1168.35 461.654 1167.27 462.898 1166.48C464.16 1165.66 465.928 1165.19 468.2 1165.07V1162.8H470.769V1165.1C473.096 1165.24 474.872 1165.73 476.098 1166.56C477.325 1167.37 477.938 1168.49 477.938 1169.91V1170.13H475.287V1169.91C475.287 1169.12 474.755 1168.5 473.691 1168.07C472.645 1167.64 471.139 1167.42 469.174 1167.42C467.406 1167.42 466.045 1167.6 465.089 1167.96C464.151 1168.31 463.682 1168.81 463.682 1169.48V1169.75C463.682 1170.15 463.8 1170.47 464.034 1170.72C464.286 1170.97 464.692 1171.18 465.251 1171.34C465.828 1171.51 466.631 1171.64 467.659 1171.75L472.23 1172.24Z" fill="black"/>
<rect x="102" y="737" width="995" height="425" fill="white"/>
<path d="M900 1186.5V1160.5L1112 1096.5V1108.5H1138.5V1173H1141.5L1142.5 1214H1027.5L1023 1186.5H900Z" fill="white"/>
<path d="M941.96 323.016V338.248H960.456V323.016H973.32V365H960.456V349.768H941.96V365H929.096V323.016H941.96ZM999.454 365.832C995.272 365.832 991.667 365.171 988.638 363.848C985.608 362.483 983.283 360.541 981.661 358.024C980.083 355.507 979.294 352.563 979.294 349.192V348.616C979.294 345.16 980.083 342.173 981.661 339.656C983.283 337.139 985.608 335.197 988.638 333.832C991.667 332.467 995.272 331.784 999.454 331.784C1005.77 331.784 1010.67 333.277 1014.17 336.264C1017.67 339.251 1019.42 343.368 1019.42 348.616V349.192C1019.42 354.355 1017.67 358.429 1014.17 361.416C1010.67 364.36 1005.77 365.832 999.454 365.832ZM999.39 354.568C1001.74 354.568 1003.53 354.12 1004.77 353.224C1006 352.285 1006.62 350.899 1006.62 349.064V348.808C1006.62 346.888 1006 345.459 1004.77 344.52C1003.53 343.539 1001.74 343.048 999.39 343.048C997 343.048 995.187 343.539 993.95 344.52C992.712 345.459 992.094 346.888 992.094 348.808V349.064C992.094 350.899 992.712 352.285 993.95 353.224C995.23 354.12 997.043 354.568 999.39 354.568ZM1036.29 365C1032.54 365 1029.57 364.083 1027.39 362.248C1025.26 360.371 1024.19 357.853 1024.19 354.696V320.456H1036.61V352.456C1036.61 353.053 1036.76 353.48 1037.06 353.736C1037.4 353.992 1037.91 354.12 1038.59 354.12H1041.35V365H1036.29ZM1086.87 354.12V365H1079.9C1076.27 365 1073.56 363.933 1071.77 361.8C1070.1 363.08 1068.1 364.083 1065.75 364.808C1063.4 365.491 1060.87 365.832 1058.14 365.832C1053.87 365.832 1050.52 364.957 1048.09 363.208C1045.66 361.459 1044.44 359.027 1044.44 355.912C1044.44 350.707 1047.98 347.677 1055.06 346.824L1069.59 345.16C1069.08 343.027 1067.05 341.96 1063.51 341.96C1059.42 341.96 1057.37 342.813 1057.37 344.52V344.712H1044.7V344.52C1044.7 341.917 1045.46 339.677 1047 337.8C1048.54 335.88 1050.73 334.408 1053.59 333.384C1056.45 332.317 1059.8 331.784 1063.64 331.784C1069.48 331.784 1074.03 333.085 1077.27 335.688C1080.56 338.291 1082.2 341.917 1082.2 346.568V352.584C1082.2 353.139 1082.33 353.544 1082.58 353.8C1082.88 354.013 1083.37 354.12 1084.06 354.12H1086.87ZM1056.79 355.144C1056.79 356.467 1057.96 357.128 1060.31 357.128C1062.06 357.128 1063.81 356.851 1065.56 356.296C1067.31 355.699 1068.7 354.973 1069.72 354.12V352.008L1058.9 353.288C1057.5 353.459 1056.79 354.077 1056.79 355.144Z" fill="white"/>
<line x1="904" y1="267.5" x2="1107.22" y2="267.5" stroke="white" stroke-width="27"/>
<line x1="904" y1="407.907" x2="1068.69" y2="407.907" stroke="white" stroke-width="27"/>
<line x1="1056.55" y1="422.159" x2="1082.94" y2="422.159" stroke="white" stroke-width="27"/>
<line x1="1082.94" y1="462.803" x2="1109.33" y2="462.803" stroke="white" stroke-width="27"/>
<line x1="1082.19" y1="435.659" x2="1082.19" y2="462.051" stroke="white" stroke-width="27"/>
<line x1="904" y1="267.5" x2="1107.22" y2="267.5" stroke="white" stroke-width="27"/>
<line x1="890.5" y1="406.627" x2="890.5" y2="281" stroke="white" stroke-width="27"/>
<line x1="1108.5" y1="462.09" x2="1107.97" y2="281.039" stroke="white" stroke-width="27"/>
<line x1="484" y1="499.5" x2="687.22" y2="499.5" stroke="#31B72E" stroke-width="27"/>
<line x1="484" y1="639.907" x2="648.688" y2="639.907" stroke="#31B72E" stroke-width="27"/>
<line x1="636.547" y1="654.159" x2="662.939" y2="654.159" stroke="#31B72E" stroke-width="27"/>
<line x1="662.939" y1="694.803" x2="689.332" y2="694.803" stroke="#31B72E" stroke-width="27"/>
<line x1="662.188" y1="667.659" x2="662.188" y2="694.051" stroke="#31B72E" stroke-width="27"/>
<line x1="484" y1="499.5" x2="687.22" y2="499.5" stroke="#31B72E" stroke-width="27"/>
<line x1="470.5" y1="638.627" x2="470.5" y2="513" stroke="#31B72E" stroke-width="27"/>
<line x1="688.5" y1="694.09" x2="687.972" y2="513.039" stroke="#31B72E" stroke-width="27"/>
<path d="M532.472 559.608C530.488 560.76 528.44 561.848 526.136 563C522.104 565.048 516.088 567.8 510.264 571.64C504.952 575.096 501.368 578.808 501.368 583.224C501.368 587.832 505.784 590.328 514.68 590.328C521.272 590.328 529.912 589.304 535.608 587.96L535.48 597.176C530.04 598.136 523.256 598.776 514.936 598.776C502.136 598.776 492.536 595.192 492.536 584.184C492.536 576.056 498.424 570.36 505.976 565.368C512.056 561.4 518.584 558.2 522.552 555.96C524.92 554.552 526.776 553.464 528.44 552.056L532.472 559.608ZM502.264 544.952C505.4 553.464 509.368 561.208 512.376 566.456L505.08 570.744C501.624 564.92 497.784 556.536 494.2 548.28L502.264 544.952ZM533.24 543.992C534.84 546.36 537.08 550.392 538.296 552.76L533.176 555C531.832 552.376 529.912 548.536 528.12 546.104L533.24 543.992ZM540.792 541.112C542.456 543.48 544.824 547.576 545.976 549.816L540.92 551.992C539.576 549.368 537.528 545.592 535.736 543.16L540.792 541.112ZM590.776 574.072C590.776 569.848 587.512 566.456 581.496 566.456C574.456 566.456 568.056 568.568 564.856 569.528C563 570.104 560.44 571.064 558.648 571.832L556.216 562.616C558.392 562.488 561.08 561.976 563.192 561.528C567.864 560.504 575.032 558.648 582.584 558.648C592.696 558.648 599.8 564.408 599.8 574.392C599.8 588.152 587.064 596.6 569.272 599.096L564.728 591.096C580.6 589.304 590.776 584.12 590.776 574.072ZM565.624 543.352C573.112 544.952 587.64 546.232 594.36 546.232L593.144 554.104C585.656 553.592 571.768 552.312 564.408 551.032L565.624 543.352ZM641.016 543.736C640.44 546.104 640.184 547.768 639.864 549.432C639.096 554.936 636.088 576.056 636.088 582.52C636.088 587.832 639.288 590.712 645.56 590.712C654.52 590.712 659.448 586.552 659.448 581.304C659.448 577.016 657.016 572.856 652.856 568.952L661.816 567.032C666.104 572.408 668.024 576.888 668.024 582.328C668.024 591.992 659.384 598.968 645.368 598.968C635.256 598.968 628.152 594.616 628.152 583.864C628.152 577.336 631.224 557.88 631.864 548.92C632.12 545.976 632.12 544.696 631.992 543.224L641.016 543.736ZM618.168 551.672C623.736 553.528 631.672 554.36 638.2 554.36C643.128 554.36 647.672 554.04 650.872 553.464L650.616 561.144C646.84 561.528 643.32 561.72 637.944 561.72C631.48 561.72 623.672 560.696 617.784 559.032L618.168 551.672ZM616.76 567.544C623.672 569.912 631.096 570.424 637.56 570.424C641.464 570.424 646.2 570.168 650.36 569.656L650.168 577.272C646.648 577.656 642.872 577.848 638.84 577.848C630.328 577.848 622.2 576.952 616.376 575.288L616.76 567.544Z" fill="white"/>
<path d="M1071 407H1270V536L1112.5 548L1071 583.5V407Z" fill="black"/>
<line y1="-13.5" x2="203.22" y2="-13.5" transform="matrix(-1 0 0 1 1071 535)" stroke="#FFF500" stroke-width="27"/>
<line y1="-13.5" x2="164.688" y2="-13.5" transform="matrix(-1 0 0 1 1071 675.407)" stroke="#FFF500" stroke-width="27"/>
<line y1="-13.5" x2="26.3923" y2="-13.5" transform="matrix(-1 8.74228e-08 8.74228e-08 1 918.453 689.659)" stroke="#FFF500" stroke-width="27"/>
<line y1="-13.5" x2="26.3923" y2="-13.5" transform="matrix(-1 8.74228e-08 8.74228e-08 1 892.061 730.303)" stroke="#FFF500" stroke-width="27"/>
<line y1="-13.5" x2="26.3923" y2="-13.5" transform="matrix(4.37114e-08 1 1 -4.37114e-08 906.312 689.659)" stroke="#FFF500" stroke-width="27"/>
<line y1="-13.5" x2="203.22" y2="-13.5" transform="matrix(-1 0 0 1 1071 535)" stroke="#FFF500" stroke-width="27"/>
<line y1="-13.5" x2="125.627" y2="-13.5" transform="matrix(-1.92902e-08 -1 -1 1.92902e-08 1071 660.627)" stroke="#FFF500" stroke-width="27"/>
<line y1="-13.5" x2="181.052" y2="-13.5" transform="matrix(0.00291543 -0.999996 -0.999996 -0.00291543 853 716.051)" stroke="#FFF500" stroke-width="27"/>
<path d="M920.352 616.832C915.104 616.832 910.496 615.957 906.528 614.208C902.56 612.416 899.488 609.899 897.312 606.656C895.136 603.371 894.048 599.552 894.048 595.2V594.88C894.048 590.528 895.136 586.731 897.312 583.488C899.488 580.203 902.56 577.664 906.528 575.872C910.496 574.08 915.104 573.184 920.352 573.184C925.301 573.184 929.717 573.973 933.6 575.552C937.525 577.131 940.576 579.349 942.752 582.208C944.971 585.024 946.08 588.224 946.08 591.808V592.256H932.96V591.808C932.96 589.76 931.808 588.139 929.504 586.944C927.243 585.749 924.171 585.152 920.288 585.152C915.851 585.152 912.544 585.941 910.368 587.52C908.235 589.099 907.168 591.509 907.168 594.752V595.392C907.168 598.635 908.235 601.024 910.368 602.56C912.501 604.096 915.829 604.864 920.352 604.864C924.363 604.864 927.456 604.309 929.632 603.2C931.851 602.048 932.96 600.427 932.96 598.336V597.888H946.08V598.336C946.08 601.877 944.971 605.056 942.752 607.872C940.576 610.688 937.525 612.885 933.6 614.464C929.717 616.043 925.301 616.832 920.352 616.832ZM963.298 583.616V616H950.882V583.616H963.298ZM957.09 581.12C954.999 581.12 953.271 580.501 951.906 579.264C950.583 577.984 949.922 576.341 949.922 574.336C949.922 572.331 950.583 570.709 951.906 569.472C953.228 568.235 954.956 567.616 957.09 567.616C959.223 567.616 960.951 568.235 962.274 569.472C963.596 570.709 964.258 572.331 964.258 574.336C964.258 576.341 963.596 577.984 962.274 579.264C960.951 580.501 959.223 581.12 957.09 581.12ZM1010.56 605.12V616H1003.58C999.956 616 997.247 614.933 995.455 612.8C993.791 614.08 991.786 615.083 989.439 615.808C987.092 616.491 984.554 616.832 981.823 616.832C977.556 616.832 974.207 615.957 971.775 614.208C969.343 612.459 968.127 610.027 968.127 606.912C968.127 601.707 971.668 598.677 978.751 597.824L993.279 596.16C992.767 594.027 990.74 592.96 987.199 592.96C983.103 592.96 981.055 593.813 981.055 595.52V595.712H968.383V595.52C968.383 592.917 969.151 590.677 970.687 588.8C972.223 586.88 974.42 585.408 977.279 584.384C980.138 583.317 983.487 582.784 987.327 582.784C993.172 582.784 997.716 584.085 1000.96 586.688C1004.24 589.291 1005.89 592.917 1005.89 597.568V603.584C1005.89 604.139 1006.02 604.544 1006.27 604.8C1006.57 605.013 1007.06 605.12 1007.74 605.12H1010.56ZM980.479 606.144C980.479 607.467 981.652 608.128 983.999 608.128C985.748 608.128 987.498 607.851 989.247 607.296C990.996 606.699 992.383 605.973 993.407 605.12V603.008L982.591 604.288C981.183 604.459 980.479 605.077 980.479 606.144ZM1033.2 616.832C1029.02 616.832 1025.42 616.171 1022.39 614.848C1019.36 613.483 1017.03 611.541 1015.41 609.024C1013.83 606.507 1013.04 603.563 1013.04 600.192V599.616C1013.04 596.16 1013.83 593.173 1015.41 590.656C1017.03 588.139 1019.36 586.197 1022.39 584.832C1025.42 583.467 1029.02 582.784 1033.2 582.784C1039.52 582.784 1044.42 584.277 1047.92 587.264C1051.42 590.251 1053.17 594.368 1053.17 599.616V600.192C1053.17 605.355 1051.42 609.429 1047.92 612.416C1044.42 615.36 1039.52 616.832 1033.2 616.832ZM1033.14 605.568C1035.49 605.568 1037.28 605.12 1038.52 604.224C1039.75 603.285 1040.37 601.899 1040.37 600.064V599.808C1040.37 597.888 1039.75 596.459 1038.52 595.52C1037.28 594.539 1035.49 594.048 1033.14 594.048C1030.75 594.048 1028.94 594.539 1027.7 595.52C1026.46 596.459 1025.84 597.888 1025.84 599.808V600.064C1025.84 601.899 1026.46 603.285 1027.7 604.224C1028.98 605.12 1030.79 605.568 1033.14 605.568Z" fill="white"/>
<line x1="109" y1="723.515" x2="1086.88" y2="723.515" stroke="#31B72E" stroke-width="27"/>
<line x1="109" y1="1173.53" x2="901.465" y2="1173.53" stroke="#31B72E" stroke-width="27"/>
<line x1="901" y1="1199.5" x2="1028" y2="1199.5" stroke="#31B72E" stroke-width="27"/>
<path d="M1028 1226H1186" stroke="#31B72E" stroke-width="27"/>
<line x1="1125.5" y1="1105" x2="1125.5" y2="1173" stroke="#31B72E" stroke-width="27"/>
<line x1="109" y1="723.515" x2="1086.88" y2="723.515" stroke="#31B72E" stroke-width="27"/>
<line x1="95.5" y1="1162.41" x2="95.5" y2="737.031" stroke="#31B72E" stroke-width="27"/>
<line x1="1098.5" y1="1105" x2="1098.5" y2="737" stroke="#31B72E" stroke-width="27"/>
<g clip-path="url(#clip0_31_27039)">
<rect x="1138" y="1282" width="259" height="206" fill="#FFF500"/>
<rect x="1202" y="1467" width="132" height="226" fill="#FFF500"/>
<rect x="1227" y="1187" width="76" height="67" fill="#FFF500"/>
<path d="M1226.65 1186.36V1254.25" stroke="#31B72E" stroke-width="15" stroke-miterlimit="10"/>
<path d="M1308.18 1186.84V1254.73" stroke="#31B72E" stroke-width="15" stroke-miterlimit="10"/>
<path d="M1300.9 1179.56H1232.96" stroke="#31B72E" stroke-width="15" stroke-miterlimit="10"/>
<path d="M1300.9 1261.04H1232.96" stroke="#31B72E" stroke-width="15" stroke-miterlimit="10"/>
<path d="M1252.37 1219.81H1244.12V1228.06H1252.37V1219.81Z" fill="#231F20" stroke="#31B72E" stroke-miterlimit="10"/>
<path d="M1288.86 1219.48H1280.61V1227.72H1288.86V1219.48Z" fill="#231F20" stroke="#31B72E" stroke-miterlimit="10"/>
<path d="M1396.51 1275.59L1136.9 1275.31" stroke="#31B72E" stroke-width="15" stroke-miterlimit="10"/>
<path d="M1130.57 1488.01L1130.65 1282.17" stroke="#31B72E" stroke-width="15" stroke-miterlimit="10"/>
<path d="M1403.34 1487.66L1403.43 1281.81" stroke="#31B72E" stroke-width="15" stroke-miterlimit="10"/>
<path d="M1177.16 1494.8H1136.87" stroke="#31B72E" stroke-width="15" stroke-miterlimit="10"/>
<path d="M1286.62 1241.88H1246.34" stroke="#31B72E" stroke-width="15" stroke-miterlimit="10"/>
<path d="M1397.32 1494.34H1357.04" stroke="#31B72E" stroke-width="15" stroke-miterlimit="10"/>
<path d="M1183.99 1488.63L1183.95 1344.46" stroke="#31B72E" stroke-width="15" stroke-miterlimit="10"/>
<path d="M1350.02 1488.83L1349.98 1344.66" stroke="#31B72E" stroke-width="15" stroke-miterlimit="10"/>
<path d="M1197.58 1693.29L1197.67 1487.45" stroke="#31B72E" stroke-width="15" stroke-miterlimit="10"/>
<path d="M1336.37 1693.29L1336.46 1487.45" stroke="#31B72E" stroke-width="15" stroke-miterlimit="10"/>
<path d="M1266.49 1693.29L1266.58 1487.45" stroke="#31B72E" stroke-width="15" stroke-miterlimit="10"/>
<path d="M1263.54 1700.44H1203.36" stroke="#31B72E" stroke-width="15" stroke-miterlimit="10"/>
<path d="M1333.9 1700.44H1273.72" stroke="#31B72E" stroke-width="15" stroke-miterlimit="10"/>
</g>
<path d="M1161.15 501.08V503H1148.61L1145.86 496.088H1127.42L1124.67 503H1112.13V501.08L1129.54 461.016H1143.74L1161.15 501.08ZM1141.57 485.464L1136.64 473.24L1131.71 485.464H1141.57ZM1186.66 469.784C1192.12 469.784 1196.26 471.299 1199.07 474.328C1201.89 477.315 1203.3 481.731 1203.3 487.576V503H1190.88V487.576C1190.88 485.485 1190.33 483.885 1189.22 482.776C1188.11 481.667 1186.49 481.112 1184.35 481.112C1182.86 481.112 1181.52 481.432 1180.32 482.072C1179.17 482.669 1178.25 483.544 1177.57 484.696V503H1165.15V458.456H1177.57V472.472C1180.09 470.68 1183.12 469.784 1186.66 469.784ZM1228.77 503.832C1224.58 503.832 1220.98 503.171 1217.95 501.848C1214.92 500.483 1212.6 498.541 1210.97 496.024C1209.4 493.507 1208.61 490.563 1208.61 487.192V486.616C1208.61 483.16 1209.4 480.173 1210.97 477.656C1212.6 475.139 1214.92 473.197 1217.95 471.832C1220.98 470.467 1224.58 469.784 1228.77 469.784C1235.08 469.784 1239.99 471.277 1243.49 474.264C1246.98 477.251 1248.73 481.368 1248.73 486.616V487.192C1248.73 492.355 1246.98 496.429 1243.49 499.416C1239.99 502.36 1235.08 503.832 1228.77 503.832ZM1228.7 492.568C1231.05 492.568 1232.84 492.12 1234.08 491.224C1235.32 490.285 1235.93 488.899 1235.93 487.064V486.808C1235.93 484.888 1235.32 483.459 1234.08 482.52C1232.84 481.539 1231.05 481.048 1228.7 481.048C1226.31 481.048 1224.5 481.539 1223.26 482.52C1222.02 483.459 1221.41 484.888 1221.41 486.808V487.064C1221.41 488.899 1222.02 490.285 1223.26 491.224C1224.54 492.12 1226.36 492.568 1228.7 492.568ZM1250.88 503C1252.63 503 1253.51 502.296 1253.51 500.888V470.616H1265.92V502.232C1265.92 504.451 1265.37 506.435 1264.26 508.184C1263.19 509.976 1261.68 511.363 1259.71 512.344C1257.79 513.368 1255.62 513.88 1253.19 513.88H1247.11V503H1250.88ZM1259.71 468.12C1257.62 468.12 1255.9 467.501 1254.53 466.264C1253.21 464.984 1252.55 463.341 1252.55 461.336C1252.55 459.331 1253.21 457.709 1254.53 456.472C1255.85 455.235 1257.58 454.616 1259.71 454.616C1261.85 454.616 1263.58 455.235 1264.9 456.472C1266.22 457.709 1266.88 459.331 1266.88 461.336C1266.88 463.341 1266.22 464.984 1264.9 466.264C1263.58 467.501 1261.85 468.12 1259.71 468.12Z" fill="white"/>
<line y1="-13.5" x2="203.22" y2="-13.5" transform="matrix(-1 0 0 1 1289 421)" stroke="#31B72E" stroke-width="27"/>
<line y1="-13.5" x2="164.688" y2="-13.5" transform="matrix(-1 0 0 1 1289 561.407)" stroke="#31B72E" stroke-width="27"/>
<line y1="-13.5" x2="26.3923" y2="-13.5" transform="matrix(-1 8.74228e-08 8.74228e-08 1 1136.45 575.659)" stroke="#31B72E" stroke-width="27"/>
<line y1="-13.5" x2="26.3923" y2="-13.5" transform="matrix(-1 8.74228e-08 8.74228e-08 1 1110.06 616.303)" stroke="#31B72E" stroke-width="27"/>
<line y1="-13.5" x2="26.3923" y2="-13.5" transform="matrix(4.37114e-08 1 1 -4.37114e-08 1124.31 575.659)" stroke="#31B72E" stroke-width="27"/>
<line y1="-13.5" x2="203.22" y2="-13.5" transform="matrix(-1 0 0 1 1289 421)" stroke="#31B72E" stroke-width="27"/>
<line y1="-13.5" x2="125.627" y2="-13.5" transform="matrix(-1.92902e-08 -1 -1 1.92902e-08 1289 546.627)" stroke="#31B72E" stroke-width="27"/>
<line y1="-13.5" x2="181.052" y2="-13.5" transform="matrix(0.00291543 -0.999996 -0.999996 -0.00291543 1071 602.051)" stroke="#31B72E" stroke-width="27"/>
<rect x="258.43" y="1341.43" width="607.491" height="482.638" fill="white" stroke="white" stroke-width="1.86347"/>
<rect x="237.932" y="1320.93" width="607.491" height="482.638" fill="#31B72E" stroke="#31B72E" stroke-width="1.86347"/>
<rect x="272.406" y="1426.22" width="531.089" height="327.97" fill="white"/>
<rect x="248.181" y="1338.63" width="570.221" height="80.1292" fill="#31B72E"/>
<rect x="254.703" y="1419.7" width="568.358" height="354.059" stroke="#31B72E" stroke-width="1.86347"/>
<rect x="751.317" y="1347.95" width="52.1771" height="52.1771" fill="white"/>
<rect x="678.642" y="1347.95" width="52.1771" height="52.1771" fill="white"/>
<rect x="762.498" y="1359.13" width="29.8155" height="29.8155" fill="#31B72E"/>
<rect x="689.823" y="1379.63" width="29.8155" height="9.31734" fill="#31B72E"/>
<path d="M298 1563.62V1506.52H311.117V1488H395.992V1508.83H498.614V1488H581.946V1508.83H594.292V1565.16H575.773V1582.13H594.292V1633.83H575.002L575.773 1675.5H594.292V1720.25H575.773V1731.82H594.292V1768.09H538.737V1787.38H481.639V1768.09H465.436V1748.8H428.399V1768.09H409.881V1787.38H353.555V1768.09H298V1731.05H318.061V1720.25H298V1675.5H317.29V1633.83H298V1581.36H317.29V1563.62H298Z" fill="#31B72E" stroke="#31B72E" stroke-width="12.3455"/>
<rect x="324.234" y="1582.13" width="243.823" height="52.4683" fill="#FFF500"/>
<rect x="316.518" y="1494.17" width="74.0729" height="63.2706" fill="#FFF500"/>
<rect x="503.243" y="1494.17" width="72.5297" height="64.8138" fill="#FFF500"/>
<rect x="381.332" y="1674.73" width="21.6046" height="92.5911" fill="#FFF500"/>
<rect x="487.812" y="1674.73" width="21.6046" height="92.5911" fill="#FFF500"/>
<rect x="359.727" y="1762.69" width="43.2092" height="18.5182" fill="#FFF500"/>
<rect x="487.812" y="1762.69" width="44.7524" height="18.5182" fill="#FFF500"/>
<rect x="324.234" y="1674.73" width="44.7524" height="44.7524" fill="#FFF500"/>
<rect x="523.305" y="1674.73" width="44.7524" height="44.7524" fill="#FFF500"/>
<rect x="410.652" y="1527.35" width="70.9865" height="37.0364" fill="#FFF500"/>
<rect x="338.123" y="1597.57" width="217.589" height="21.6046" fill="#31B72E"/>
<rect x="338.123" y="1515.01" width="27.7773" height="27.7773" fill="#31B72E"/>
<rect x="527.935" y="1515.01" width="27.7773" height="27.7773" fill="#31B72E"/>
<rect x="726" y="1439" width="192" height="120" fill="black"/>
<path d="M721 1603.5V1547.5L769.5 1544L742.5 1603.5H721Z" fill="black"/>
<line y1="-13.5" x2="203.22" y2="-13.5" transform="matrix(-1 0 0 1 918 1439)" stroke="#31B72E" stroke-width="27"/>
<line y1="-13.5" x2="164.688" y2="-13.5" transform="matrix(-1 0 0 1 918 1579.41)" stroke="#31B72E" stroke-width="27"/>
<line y1="-13.5" x2="26.3923" y2="-13.5" transform="matrix(-1 8.74228e-08 8.74228e-08 1 765.453 1593.66)" stroke="#31B72E" stroke-width="27"/>
<line y1="-13.5" x2="26.3923" y2="-13.5" transform="matrix(-1 8.74228e-08 8.74228e-08 1 739.061 1634.3)" stroke="#31B72E" stroke-width="27"/>
<line y1="-13.5" x2="26.3923" y2="-13.5" transform="matrix(4.37114e-08 1 1 -4.37114e-08 753.312 1593.66)" stroke="#31B72E" stroke-width="27"/>
<line y1="-13.5" x2="203.22" y2="-13.5" transform="matrix(-1 0 0 1 918 1439)" stroke="#31B72E" stroke-width="27"/>
<line y1="-13.5" x2="125.627" y2="-13.5" transform="matrix(-1.92902e-08 -1 -1 1.92902e-08 918 1564.63)" stroke="#31B72E" stroke-width="27"/>
<line y1="-13.5" x2="181.052" y2="-13.5" transform="matrix(0.00291543 -0.999996 -0.999996 -0.00291543 700 1620.05)" stroke="#31B72E" stroke-width="27"/>
<defs>
<clipPath id="clip0_31_27039">
<rect width="286" height="534" fill="white" transform="translate(1124 1173)"/>
</clipPath>
</defs>
</svg>
