<svg width="1440" height="1606" viewBox="0 0 1440 1606" fill="none" xmlns="http://www.w3.org/2000/svg">
<rect width="1440" height="1606" fill="black"/>
<rect x="253" y="190" width="901" height="585.901" fill="#D9D9D9"/>
<rect x="201" y="859" width="810" height="391.964" fill="#D9D9D9"/>
<rect x="482.971" y="775.672" width="441.31" height="46.3286" fill="#D9D9D9"/>
<rect x="308.999" y="253.521" width="789.002" height="462.201" fill="#31B72E"/>
<path d="M982.538 734.685C984.745 734.685 986.49 735.217 987.774 736.28C989.058 737.323 989.7 738.737 989.7 740.523V740.884C989.7 742.669 989.058 744.093 987.774 745.156C986.49 746.199 984.745 746.721 982.538 746.721H973.391V754.424H970.382V734.685H982.538ZM982.478 744.043C983.802 744.043 984.825 743.772 985.547 743.231C986.29 742.669 986.661 741.887 986.661 740.884V740.523C986.661 739.52 986.29 738.747 985.547 738.206C984.825 737.644 983.802 737.363 982.478 737.363H973.391V744.043H982.478ZM1004.51 754.785C1002.24 754.785 1000.25 754.374 998.549 753.551C996.844 752.729 995.53 751.565 994.607 750.061C993.685 748.556 993.223 746.791 993.223 744.765V744.374C993.223 742.348 993.685 740.583 994.607 739.078C995.53 737.554 996.844 736.38 998.549 735.558C1000.25 734.736 1002.24 734.324 1004.51 734.324C1006.77 734.324 1008.75 734.736 1010.43 735.558C1012.14 736.38 1013.45 737.554 1014.38 739.078C1015.3 740.583 1015.76 742.348 1015.76 744.374V744.765C1015.76 746.791 1015.3 748.556 1014.38 750.061C1013.45 751.565 1012.14 752.729 1010.43 753.551C1008.75 754.374 1006.77 754.785 1004.51 754.785ZM1004.51 751.987C1007.09 751.987 1009.11 751.355 1010.55 750.091C1012 748.827 1012.72 747.072 1012.72 744.825V744.344C1012.72 742.077 1012 740.312 1010.55 739.048C1009.11 737.765 1007.09 737.123 1004.51 737.123C1001.92 737.123 999.893 737.765 998.429 739.048C996.984 740.312 996.262 742.077 996.262 744.344V744.825C996.262 747.072 996.984 748.827 998.429 750.091C999.893 751.355 1001.92 751.987 1004.51 751.987ZM1051.26 734.685V735.137L1043.95 754.424H1040.31L1034.2 738.326L1028.09 754.424H1024.45L1017.11 735.137V734.685H1020.18L1026.29 751.174L1032.58 734.685H1035.83L1042.11 751.144L1048.19 734.685H1051.26ZM1071.42 734.685V737.363H1057.63V743.201H1070.81V745.879H1057.63V751.746H1071.42V754.424H1054.63V734.685H1071.42ZM1095.69 741.004C1095.69 742.649 1095.1 743.983 1093.91 745.006C1092.75 746.029 1091.14 746.591 1089.1 746.691L1095.6 753.972V754.424H1092.17L1085.22 746.691H1079.38V754.424H1076.37V734.685H1088.53C1090.75 734.685 1092.5 735.217 1093.76 736.28C1095.05 737.323 1095.69 738.767 1095.69 740.613V741.004ZM1092.65 740.523C1092.65 739.52 1092.28 738.747 1091.53 738.206C1090.81 737.644 1089.79 737.363 1088.47 737.363H1079.38V744.043H1088.47C1089.79 744.043 1090.81 743.772 1091.53 743.231C1092.28 742.669 1092.65 741.887 1092.65 740.884V740.523Z" fill="black"/>
<rect x="939.198" y="731.603" width="23.4026" height="23.4026" fill="#31B72E"/>
<rect x="245.332" y="906.476" width="257.727" height="303.562" fill="#413F3F"/>
<rect x="529.358" y="906.476" width="257.727" height="303.562" fill="#413F3F"/>
<rect x="813.384" y="906.476" width="152.532" height="303.562" fill="#413F3F"/>
<rect x="261.863" y="923.006" width="36.6063" height="36.6063" fill="#D9D9D9"/>
<rect x="261.863" y="969.592" width="36.6063" height="36.6063" fill="#D9D9D9"/>
<rect x="261.863" y="1016.18" width="36.6063" height="36.6063" fill="#D9D9D9"/>
<rect x="261.863" y="1062.76" width="36.6063" height="36.6063" fill="#D9D9D9"/>
<rect x="261.863" y="1109.35" width="36.6063" height="36.6063" fill="#D9D9D9"/>
<rect x="261.863" y="1155.94" width="36.6063" height="36.6063" fill="#D9D9D9"/>
<rect x="309.066" y="923.006" width="36.6063" height="36.6063" fill="#D9D9D9"/>
<rect x="309.066" y="969.592" width="36.6063" height="36.6063" fill="#D9D9D9"/>
<rect x="309.066" y="1016.18" width="36.6063" height="36.6063" fill="#D9D9D9"/>
<rect x="309.066" y="1062.76" width="36.6063" height="36.6063" fill="#D9D9D9"/>
<rect x="309.066" y="1109.35" width="36.6063" height="36.6063" fill="#D9D9D9"/>
<rect x="309.066" y="1155.94" width="36.6063" height="36.6063" fill="#D9D9D9"/>
<rect x="356.269" y="923.006" width="36.6063" height="36.6063" fill="#D9D9D9"/>
<rect x="356.269" y="969.592" width="36.6063" height="36.6063" fill="#D9D9D9"/>
<rect x="356.269" y="1016.18" width="36.6063" height="36.6063" fill="#D9D9D9"/>
<rect x="356.269" y="1062.76" width="36.6063" height="36.6063" fill="#D9D9D9"/>
<rect x="356.269" y="1109.35" width="36.6063" height="36.6063" fill="#D9D9D9"/>
<rect x="356.269" y="1155.94" width="36.6063" height="36.6063" fill="#D9D9D9"/>
<rect x="403.472" y="923.006" width="36.6063" height="36.6063" fill="#D9D9D9"/>
<rect x="403.472" y="969.592" width="36.6063" height="36.6063" fill="#D9D9D9"/>
<rect x="403.472" y="1016.18" width="36.6063" height="36.6063" fill="#D9D9D9"/>
<rect x="403.472" y="1062.76" width="36.6063" height="36.6063" fill="#D9D9D9"/>
<rect x="403.472" y="1109.35" width="36.6063" height="36.6063" fill="#D9D9D9"/>
<rect x="403.472" y="1155.94" width="36.6063" height="36.6063" fill="#D9D9D9"/>
<rect x="450.675" y="923.006" width="36.6063" height="36.6063" fill="#D9D9D9"/>
<rect x="450.675" y="969.592" width="36.6063" height="36.6063" fill="#D9D9D9"/>
<rect x="450.675" y="1016.18" width="36.6063" height="36.6063" fill="#D9D9D9"/>
<rect x="450.675" y="1062.76" width="36.6063" height="36.6063" fill="#D9D9D9"/>
<rect x="450.675" y="1109.35" width="36.6063" height="36.6063" fill="#D9D9D9"/>
<rect x="450.675" y="1155.94" width="36.6063" height="36.6063" fill="#D9D9D9"/>
<rect x="545.889" y="923.006" width="36.6063" height="36.6063" fill="#D9D9D9"/>
<rect x="545.889" y="969.592" width="36.6063" height="36.6063" fill="#D9D9D9"/>
<rect x="545.889" y="1016.18" width="36.6063" height="36.6063" fill="#D9D9D9"/>
<rect x="545.889" y="1062.76" width="36.6063" height="36.6063" fill="#D9D9D9"/>
<rect x="545.889" y="1109.35" width="36.6063" height="36.6063" fill="#D9D9D9"/>
<rect x="545.889" y="1155.94" width="36.6063" height="36.6063" fill="#D9D9D9"/>
<rect x="593.092" y="923.006" width="36.6063" height="36.6063" fill="#D9D9D9"/>
<rect x="593.092" y="969.592" width="36.6063" height="36.6063" fill="#D9D9D9"/>
<rect x="593.092" y="1016.18" width="36.6063" height="36.6063" fill="#D9D9D9"/>
<rect x="593.092" y="1062.76" width="36.6063" height="36.6063" fill="#D9D9D9"/>
<rect x="593.092" y="1109.35" width="36.6063" height="36.6063" fill="#D9D9D9"/>
<rect x="593.092" y="1155.94" width="36.6063" height="36.6063" fill="#D9D9D9"/>
<rect x="640.294" y="923.006" width="36.6063" height="36.6063" fill="#D9D9D9"/>
<rect x="640.294" y="969.592" width="36.6063" height="36.6063" fill="#D9D9D9"/>
<rect x="640.294" y="1016.18" width="36.6063" height="36.6063" fill="#D9D9D9"/>
<rect x="640.294" y="1062.76" width="36.6063" height="36.6063" fill="#D9D9D9"/>
<rect x="640.294" y="1109.35" width="36.6063" height="36.6063" fill="#D9D9D9"/>
<rect x="640.294" y="1155.94" width="36.6063" height="36.6063" fill="#D9D9D9"/>
<rect x="687.497" y="923.006" width="36.6063" height="36.6063" fill="#D9D9D9"/>
<rect x="687.497" y="969.592" width="36.6063" height="36.6063" fill="#D9D9D9"/>
<rect x="687.15" y="1016.18" width="84.1559" height="129.991" fill="#D9D9D9"/>
<rect x="687.497" y="1062.76" width="36.6063" height="36.6063" fill="#D9D9D9"/>
<rect x="687.497" y="1109.35" width="36.6063" height="36.6063" fill="#D9D9D9"/>
<rect x="687.497" y="1155.94" width="36.6063" height="36.6063" fill="#D9D9D9"/>
<rect x="734.7" y="923.006" width="36.6063" height="36.6063" fill="#D9D9D9"/>
<rect x="734.7" y="969.592" width="36.6063" height="36.6063" fill="#D9D9D9"/>
<rect x="734.7" y="1016.18" width="36.6063" height="36.6063" fill="#D9D9D9"/>
<rect x="734.7" y="1062.76" width="36.6063" height="36.6063" fill="#D9D9D9"/>
<rect x="734.7" y="1109.35" width="36.6063" height="36.6063" fill="#D9D9D9"/>
<rect x="734.7" y="1155.94" width="36.6063" height="36.6063" fill="#D9D9D9"/>
<rect x="824.655" y="923.006" width="36.6063" height="36.6063" fill="#D9D9D9"/>
<rect x="824.655" y="969.592" width="36.6063" height="36.6063" fill="#D9D9D9"/>
<rect x="824.655" y="1016.18" width="36.6063" height="36.6063" fill="#D9D9D9"/>
<rect x="824.655" y="1062.76" width="36.6063" height="36.6063" fill="#D9D9D9"/>
<rect x="824.655" y="1109.35" width="36.6063" height="36.6063" fill="#D9D9D9"/>
<rect x="824.655" y="1155.94" width="36.6063" height="36.6063" fill="#D9D9D9"/>
<rect x="871.858" y="923.006" width="36.6063" height="36.6063" fill="#D9D9D9"/>
<rect x="871.858" y="969.592" width="36.6063" height="36.6063" fill="#D9D9D9"/>
<rect x="871.858" y="1016.18" width="36.6063" height="36.6063" fill="#D9D9D9"/>
<rect x="871.858" y="1062.76" width="36.6063" height="36.6063" fill="#D9D9D9"/>
<rect x="871.858" y="1109.35" width="36.6063" height="36.6063" fill="#D9D9D9"/>
<rect x="871.858" y="1155.94" width="36.6063" height="36.6063" fill="#D9D9D9"/>
<rect x="919.061" y="923.006" width="36.6063" height="36.6063" fill="#D9D9D9"/>
<rect x="919.061" y="969.592" width="36.6063" height="36.6063" fill="#D9D9D9"/>
<rect x="919.061" y="1016.18" width="36.6063" height="36.6063" fill="#D9D9D9"/>
<rect x="919.061" y="1062.76" width="36.6063" height="36.6063" fill="#D9D9D9"/>
<rect x="919.061" y="1109.35" width="36.6063" height="36.6063" fill="#D9D9D9"/>
<rect x="919.061" y="1155.94" width="36.6063" height="36.6063" fill="#D9D9D9"/>
<path d="M289.665 948.854V949.26H286.905L284.796 944.769H274.787L272.677 949.26H269.918V948.854L278.303 931.515H281.279L289.665 948.854ZM283.632 942.335L279.791 934.193L275.95 942.335H283.632Z" fill="black"/>
<path d="M572.473 937.682V940.117H565.656V944.553H563.222V940.117H556.405V937.682H563.222V933.084H565.656V937.682H572.473ZM556.405 946.447H572.473V948.854H556.405V946.447Z" fill="black"/>
<path d="M843.015 929.757V932.083H836.956V948.692H843.015V951.018H834.657V929.757H843.015Z" fill="black"/>
<path d="M881.022 948.692H887.081V932.083H881.022V929.757H889.38V951.018H881.022V948.692Z" fill="black"/>
<path d="M928.845 929.757H931.523L943.858 950.585V951.018H941.18L928.845 930.189V929.757Z" fill="black"/>
<path d="M613.589 937.087C616.474 937.52 617.917 938.638 617.917 940.441V940.793C617.917 941.388 617.746 941.929 617.403 942.416C617.078 942.885 616.61 943.273 615.996 943.579C616.592 944.12 616.889 944.742 616.889 945.446V945.797C616.889 946.988 616.276 947.916 615.05 948.584C613.823 949.251 612.119 949.584 609.937 949.584C607.737 949.584 605.997 949.242 604.717 948.556C603.454 947.871 602.823 946.924 602.823 945.716V945.446H605.393V945.716C605.393 946.311 605.79 946.762 606.583 947.069C607.377 947.357 608.531 947.502 610.045 947.502C612.877 947.502 614.292 946.997 614.292 945.987V945.743C614.292 945.419 614.157 945.175 613.887 945.013C613.616 944.833 613.111 944.688 612.372 944.58L606.556 943.687C603.671 943.255 602.228 942.128 602.228 940.306V939.955C602.228 939.359 602.39 938.827 602.715 938.359C603.039 937.89 603.508 937.502 604.121 937.195C603.544 936.672 603.256 936.05 603.256 935.329V934.977C603.256 933.787 603.869 932.858 605.095 932.191C606.322 931.524 608.026 931.19 610.208 931.19C612.408 931.19 614.139 931.533 615.401 932.218C616.682 932.903 617.322 933.85 617.322 935.058V935.329H614.752V935.058C614.752 934.463 614.355 934.022 613.562 933.733C612.769 933.426 611.614 933.273 610.1 933.273C607.268 933.273 605.853 933.769 605.853 934.761V935.004C605.853 935.347 605.988 935.608 606.258 935.789C606.547 935.951 607.052 936.086 607.773 936.195L613.589 937.087ZM613.102 942.362C613.337 942.398 613.67 942.47 614.103 942.578C614.536 942.398 614.842 942.191 615.023 941.956C615.221 941.722 615.32 941.433 615.32 941.091V940.847C615.32 940.396 615.131 940.054 614.752 939.819C614.373 939.585 613.715 939.395 612.778 939.251L607.043 938.413C606.772 938.377 606.448 938.304 606.069 938.196C605.618 938.377 605.294 938.584 605.095 938.818C604.915 939.053 604.825 939.341 604.825 939.684V939.927C604.825 940.378 605.014 940.721 605.393 940.955C605.79 941.19 606.448 941.379 607.368 941.523L613.102 942.362Z" fill="black"/>
<path d="M666.855 936.222V938.629H650.787V936.222H666.855ZM666.855 942.146V944.553H650.787V942.146H666.855Z" fill="black"/>
<path d="M714.192 935.87L700.911 940.387L714.192 944.932V947.312H713.814L697.989 941.929V938.845L713.814 933.49H714.192V935.87Z" fill="black"/>
<path d="M761.666 938.845V941.929L745.841 947.312H745.463V944.932L758.744 940.387L745.463 935.87V933.49H745.841L761.666 938.845Z" fill="black"/>
<path d="M283.148 1071.27C285.132 1071.27 286.701 1071.75 287.855 1072.71C289.009 1073.65 289.586 1074.92 289.586 1076.52V1076.85C289.586 1078.45 289.009 1079.73 287.855 1080.69C286.701 1081.63 285.132 1082.09 283.148 1082.09H274.925V1089.02H272.22V1071.27H283.148ZM283.094 1079.69C284.284 1079.69 285.204 1079.44 285.853 1078.96C286.52 1078.45 286.854 1077.75 286.854 1076.85V1076.52C286.854 1075.62 286.52 1074.93 285.853 1074.44C285.204 1073.93 284.284 1073.68 283.094 1073.68H274.925V1079.69H283.094Z" fill="black"/>
<path d="M569.807 1077.31L569.456 1082.99H573.621V1085.42H569.293L569.05 1089.02H566.48L566.751 1085.42H560.881L560.664 1089.02H558.095L558.338 1085.42H554.091V1082.99H558.5L558.852 1077.31H554.686V1074.87H559.014L559.258 1071.27H561.827L561.584 1074.87H567.427L567.643 1071.27H570.213L569.97 1074.87H574.216V1077.31H569.807ZM566.886 1082.99L567.265 1077.31H561.422L561.043 1082.99H566.886Z" fill="black"/>
<path d="M853.493 1084.99H848.732V1089.02H846.054V1084.99H833.125V1082.55C834.495 1080.43 835.613 1078.48 836.479 1076.71C837.344 1074.93 838.066 1073.11 838.643 1071.27H841.483V1071.68C840.329 1075.18 838.58 1078.8 836.235 1082.55H846.054V1074.41H848.732V1082.55H853.493V1084.99Z" fill="black"/>
<path d="M890.496 1077.52C893.165 1077.52 895.257 1078.02 896.772 1079.01C898.305 1080 899.071 1081.37 899.071 1083.12V1083.56C899.071 1085.39 898.323 1086.82 896.826 1087.83C895.329 1088.84 893.219 1089.34 890.496 1089.34C887.755 1089.34 885.636 1088.92 884.139 1088.07C882.661 1087.23 881.921 1086.02 881.921 1084.45V1084.23H884.626V1084.45C884.626 1085.19 885.14 1085.77 886.168 1086.21C887.196 1086.62 888.612 1086.83 890.415 1086.83C892.273 1086.83 893.733 1086.54 894.797 1085.96C895.861 1085.39 896.393 1084.59 896.393 1083.58V1083.15C896.393 1082.18 895.852 1081.41 894.77 1080.85C893.706 1080.29 892.227 1080.01 890.334 1080.01C888.675 1080.01 887.313 1080.23 886.249 1080.66C885.185 1081.08 884.626 1081.63 884.572 1082.31H881.921L882.516 1071.27H897.935V1073.68H884.897L884.626 1078.9C886.015 1077.98 887.972 1077.52 890.496 1077.52Z" fill="black"/>
<path d="M938.491 1077.87C941.178 1077.87 943.243 1078.33 944.686 1079.25C946.128 1080.16 946.85 1081.47 946.85 1083.2V1083.58C946.85 1085.39 946.083 1086.8 944.55 1087.83C943.036 1088.84 940.953 1089.34 938.302 1089.34C936.426 1089.34 934.794 1089.07 933.406 1088.53C932.035 1087.99 930.98 1087.22 930.241 1086.21C929.52 1085.2 929.159 1084.01 929.159 1082.64V1078.15C929.159 1075.89 929.952 1074.13 931.539 1072.87C933.144 1071.59 935.362 1070.95 938.194 1070.95C939.889 1070.95 941.367 1071.18 942.63 1071.63C943.892 1072.08 944.857 1072.73 945.524 1073.57C946.209 1074.4 946.552 1075.39 946.552 1076.52V1076.74H943.874V1076.52C943.874 1075.57 943.369 1074.82 942.359 1074.28C941.349 1073.74 939.961 1073.47 938.194 1073.47C936.138 1073.47 934.56 1073.86 933.46 1074.66C932.378 1075.45 931.837 1076.59 931.837 1078.09V1079.77C933.406 1078.51 935.624 1077.87 938.491 1077.87ZM944.172 1083.31C944.172 1081.35 942.269 1080.36 938.464 1080.36C936.895 1080.36 935.534 1080.55 934.38 1080.93C933.225 1081.29 932.378 1081.82 931.837 1082.5V1082.66C931.837 1083.96 932.405 1084.98 933.541 1085.72C934.677 1086.46 936.273 1086.83 938.329 1086.83C940.168 1086.83 941.602 1086.56 942.63 1086.02C943.658 1085.48 944.172 1084.7 944.172 1083.69V1083.31Z" fill="black"/>
<path d="M611.25 1070.95C613.685 1070.95 615.813 1071.36 617.634 1072.19C619.473 1073.02 620.889 1074.2 621.881 1075.71C622.891 1077.23 623.396 1078.98 623.396 1080.99V1082.91C623.396 1084.53 623.026 1085.79 622.287 1086.69C621.547 1087.58 620.51 1088.02 619.176 1088.02C618.382 1088.02 617.679 1087.87 617.066 1087.56C616.453 1087.25 615.975 1086.82 615.632 1086.26C615.019 1086.89 614.262 1087.38 613.36 1087.72C612.458 1088.06 611.494 1088.24 610.466 1088.24C609.221 1088.24 608.121 1087.99 607.166 1087.5C606.21 1087.02 605.461 1086.33 604.92 1085.45C604.398 1084.57 604.136 1083.55 604.136 1082.39V1081.74C604.136 1080.57 604.398 1079.54 604.92 1078.66C605.461 1077.78 606.21 1077.09 607.166 1076.6C608.139 1076.12 609.258 1075.87 610.52 1075.87C611.422 1075.87 612.269 1076 613.063 1076.25C613.856 1076.5 614.55 1076.87 615.145 1077.36L615.2 1076.14H617.418V1083.72C617.418 1084.37 617.562 1084.87 617.85 1085.23C618.157 1085.58 618.581 1085.75 619.122 1085.75C620.366 1085.75 620.988 1084.76 620.988 1082.8V1080.74C620.988 1079.25 620.592 1077.94 619.798 1076.82C619.005 1075.68 617.877 1074.82 616.417 1074.22C614.956 1073.61 613.243 1073.3 611.277 1073.3C609.258 1073.3 607.49 1073.64 605.975 1074.3C604.461 1074.97 603.288 1075.92 602.459 1077.14C601.629 1078.35 601.215 1079.77 601.215 1081.39V1082.85C601.215 1084.42 601.593 1085.78 602.351 1086.94C603.108 1088.09 604.181 1088.97 605.57 1089.59C606.976 1090.22 608.635 1090.53 610.547 1090.53H615.578V1092.83H610.547C608.239 1092.83 606.192 1092.41 604.407 1091.56C602.639 1090.73 601.26 1089.57 600.268 1088.07C599.276 1086.56 598.78 1084.83 598.78 1082.88V1081.31C598.78 1079.27 599.294 1077.47 600.322 1075.9C601.368 1074.33 602.829 1073.11 604.704 1072.25C606.598 1071.38 608.78 1070.95 611.25 1070.95ZM610.736 1085.96C611.674 1085.96 612.522 1085.79 613.279 1085.45C614.054 1085.11 614.649 1084.64 615.064 1084.04V1080.07C614.649 1079.47 614.054 1079 613.279 1078.66C612.522 1078.32 611.683 1078.15 610.763 1078.15C609.411 1078.15 608.365 1078.46 607.625 1079.09C606.904 1079.71 606.543 1080.59 606.543 1081.74V1082.39C606.543 1083.51 606.913 1084.38 607.653 1085.02C608.392 1085.65 609.42 1085.96 610.736 1085.96Z" fill="black"/>
<path d="M652.241 1079.85C650.636 1079.85 649.346 1079.46 648.373 1078.69C647.417 1077.91 646.939 1076.88 646.939 1075.6V1075.33C646.939 1074.03 647.417 1073.01 648.373 1072.25C649.346 1071.47 650.636 1071.09 652.241 1071.09C653.846 1071.09 655.117 1071.47 656.055 1072.25C657.011 1073.01 657.489 1074.03 657.489 1075.33V1075.6C657.489 1076.88 657.011 1077.91 656.055 1078.69C655.099 1079.46 653.828 1079.85 652.241 1079.85ZM652.214 1077.93C653.115 1077.93 653.828 1077.72 654.351 1077.31C654.874 1076.89 655.135 1076.33 655.135 1075.63V1075.31C655.135 1074.6 654.874 1074.04 654.351 1073.63C653.828 1073.21 653.115 1073.01 652.214 1073.01C651.312 1073.01 650.6 1073.21 650.077 1073.63C649.572 1074.02 649.319 1074.58 649.319 1075.31V1075.63C649.319 1076.33 649.581 1076.89 650.104 1077.31C650.627 1077.72 651.33 1077.93 652.214 1077.93ZM666.469 1089.18C664.864 1089.18 663.575 1088.79 662.601 1088.02C661.645 1087.24 661.167 1086.22 661.167 1084.93V1084.66C661.167 1083.37 661.645 1082.34 662.601 1081.58C663.575 1080.81 664.864 1080.42 666.469 1080.42C668.074 1080.42 669.345 1080.81 670.283 1081.58C671.239 1082.34 671.717 1083.37 671.717 1084.66V1084.93C671.717 1086.22 671.239 1087.24 670.283 1088.02C669.327 1088.79 668.056 1089.18 666.469 1089.18ZM666.442 1087.26C667.344 1087.26 668.056 1087.05 668.579 1086.64C669.102 1086.22 669.364 1085.67 669.364 1084.96V1084.64C669.364 1083.93 669.102 1083.38 668.579 1082.96C668.056 1082.55 667.344 1082.34 666.442 1082.34C665.54 1082.34 664.828 1082.55 664.305 1082.96C663.8 1083.36 663.548 1083.92 663.548 1084.64V1084.96C663.548 1085.67 663.809 1086.22 664.332 1086.64C664.855 1087.05 665.558 1087.26 666.442 1087.26ZM666.226 1071.27H668.823V1071.68L652.403 1089.02H649.806V1088.64L666.226 1071.27Z" fill="black"/>
<path d="M280.364 1135.93C278.687 1135.93 277.199 1135.61 275.901 1134.96C274.62 1134.29 273.628 1133.36 272.925 1132.17C272.222 1130.98 271.87 1129.6 271.87 1128.03V1117.86H274.575V1128.09C274.575 1129.74 275.089 1131.05 276.117 1132.01C277.145 1132.95 278.561 1133.41 280.364 1133.41C282.167 1133.41 283.583 1132.95 284.611 1132.01C285.657 1131.05 286.18 1129.74 286.18 1128.09V1117.86H288.885V1128.03C288.885 1129.6 288.524 1130.98 287.803 1132.17C287.099 1133.36 286.107 1134.29 284.827 1134.96C283.547 1135.61 282.059 1135.93 280.364 1135.93Z" fill="black"/>
<path d="M570.919 1125.16V1125.54H568.241L564.4 1120.19L560.585 1125.54H557.908V1125.16L563.236 1117.86H565.563L570.919 1125.16Z" fill="black"/>
<path d="M846.664 1135.61H844.013V1121.86C843.148 1122.35 842.021 1122.59 840.632 1122.59H837.575V1120.08H840.416C841.642 1120.08 842.544 1119.9 843.121 1119.54C843.716 1119.18 844.013 1118.62 844.013 1117.86H846.664V1135.61Z" fill="black"/>
<path d="M898.435 1133.2V1135.61H881.961V1133.44L889.778 1128.92C891.311 1128.04 892.447 1127.33 893.187 1126.79C893.926 1126.23 894.422 1125.71 894.675 1125.25C894.945 1124.78 895.08 1124.22 895.08 1123.57V1123.3C895.08 1122.25 894.638 1121.45 893.755 1120.89C892.889 1120.33 891.636 1120.05 889.995 1120.05C888.3 1120.05 887.01 1120.35 886.127 1120.94C885.261 1121.54 884.828 1122.41 884.828 1123.54V1124.08H882.123V1123.51C882.123 1121.58 882.8 1120.11 884.152 1119.08C885.505 1118.05 887.434 1117.54 889.941 1117.54C892.393 1117.54 894.314 1118.04 895.702 1119.05C897.091 1120.06 897.785 1121.45 897.785 1123.22V1123.49C897.785 1124.44 897.596 1125.28 897.217 1126C896.839 1126.72 896.18 1127.45 895.243 1128.19C894.323 1128.93 892.97 1129.82 891.185 1130.84L887.073 1133.2H898.435Z" fill="black"/>
<path d="M938.844 1124.89C941.243 1124.97 943.073 1125.44 944.335 1126.33C945.616 1127.19 946.256 1128.4 946.256 1129.95V1130.3C946.256 1132.13 945.525 1133.52 944.065 1134.5C942.604 1135.45 940.476 1135.93 937.681 1135.93C934.958 1135.91 932.848 1135.43 931.351 1134.5C929.872 1133.56 929.133 1132.23 929.133 1130.52V1130.33H931.811V1130.52C931.811 1131.42 932.334 1132.13 933.38 1132.66C934.426 1133.16 935.869 1133.41 937.708 1133.41C939.638 1133.41 941.098 1133.16 942.09 1132.66C943.082 1132.13 943.578 1131.37 943.578 1130.36V1130.03C943.578 1128.14 941.648 1127.19 937.789 1127.19H934.868V1124.81L941.549 1120.27H929.458V1117.86H945.823V1120.27L938.844 1124.89Z" fill="black"/>
<path d="M623.49 1125.98L617.701 1131.52L623.192 1135.23V1135.61H619.189L615.754 1133.28C614.582 1134.23 613.418 1134.92 612.264 1135.33C611.11 1135.73 609.767 1135.93 608.234 1135.93C606.737 1135.93 605.421 1135.74 604.284 1135.36C603.148 1134.97 602.274 1134.42 601.661 1133.71C601.047 1132.99 600.741 1132.15 600.741 1131.2V1130.9C600.741 1128.9 602.075 1127.42 604.744 1126.46L605.339 1126.25C604.167 1125.45 603.374 1124.78 602.959 1124.22C602.562 1123.66 602.364 1122.98 602.364 1122.19V1121.95C602.364 1121.08 602.652 1120.31 603.23 1119.65C603.807 1118.98 604.627 1118.46 605.691 1118.1C606.755 1117.73 607.981 1117.54 609.37 1117.54C610.722 1117.54 611.913 1117.73 612.941 1118.1C613.986 1118.46 614.798 1118.98 615.375 1119.65C615.952 1120.31 616.241 1121.08 616.241 1121.95V1122.19C616.241 1123.23 615.925 1124.11 615.294 1124.81C614.663 1125.5 613.644 1126.08 612.237 1126.57L610.966 1127.03L615.51 1130.06L620.109 1125.62H623.49V1125.98ZM605.042 1122.11C605.042 1122.47 605.177 1122.8 605.448 1123.11C605.718 1123.41 606.223 1123.82 606.962 1124.33L608.531 1125.38L610.587 1124.65C611.759 1124.24 612.544 1123.87 612.941 1123.54C613.355 1123.2 613.563 1122.77 613.563 1122.24V1122.05C613.563 1121.37 613.184 1120.85 612.427 1120.48C611.687 1120.11 610.632 1119.92 609.262 1119.92C607.891 1119.92 606.845 1120.09 606.124 1120.43C605.403 1120.77 605.042 1121.27 605.042 1121.92V1122.11ZM608.207 1133.55C609.253 1133.55 610.199 1133.41 611.047 1133.14C611.913 1132.86 612.751 1132.41 613.563 1131.82L607.774 1127.9L606.043 1128.52C605.033 1128.88 604.339 1129.22 603.96 1129.55C603.581 1129.87 603.392 1130.29 603.392 1130.79V1131.09C603.392 1131.86 603.807 1132.47 604.636 1132.9C605.484 1133.33 606.674 1133.55 608.207 1133.55Z" fill="black"/>
<path d="M661.533 1122.03L666.321 1123.51L665.456 1125.87L659.802 1123.54L659.91 1126.92H657.259L657.395 1123.51L651.687 1125.87L650.849 1123.51L655.636 1122.03L650.849 1120.54L651.687 1118.19L657.395 1120.51L657.259 1117.1H659.91L659.802 1120.48L665.456 1118.19L666.321 1120.54L661.533 1122.03Z" fill="black"/>
<path d="M287.794 1166.85L275.054 1179.78H287.794V1182.19H271.456V1179.78L284.196 1166.85H271.456V1164.45H287.794V1166.85Z" fill="black"/>
<path d="M558.795 1170.24L561.23 1163.36H563.718L561.744 1170.64H558.795V1170.24ZM565.531 1170.24L567.965 1163.36H570.454L568.479 1170.64H565.531V1170.24Z" fill="black"/>
<path d="M842.952 1182.52C841.149 1182.52 839.553 1182.19 838.165 1181.54C836.794 1180.89 835.721 1179.98 834.946 1178.81C834.188 1177.64 833.809 1176.29 833.809 1174.78V1171.89C833.809 1170.35 834.188 1169 834.946 1167.83C835.721 1166.66 836.794 1165.74 838.165 1165.1C839.553 1164.45 841.149 1164.12 842.952 1164.12C844.738 1164.12 846.316 1164.45 847.686 1165.1C849.057 1165.74 850.121 1166.66 850.878 1167.83C851.635 1169 852.014 1170.35 852.014 1171.89V1174.78C852.014 1176.31 851.635 1177.67 850.878 1178.84C850.121 1179.99 849.057 1180.89 847.686 1181.54C846.316 1182.19 844.738 1182.52 842.952 1182.52ZM842.952 1180C844.936 1180 846.496 1179.54 847.632 1178.62C848.768 1177.7 849.336 1176.43 849.336 1174.81V1171.86C849.336 1170.25 848.759 1168.98 847.605 1168.04C846.469 1167.11 844.909 1166.64 842.925 1166.64C840.924 1166.64 839.346 1167.11 838.192 1168.04C837.055 1168.96 836.487 1170.24 836.487 1171.86V1174.81C836.487 1176.43 837.055 1177.7 838.192 1178.62C839.346 1179.54 840.933 1180 842.952 1180Z" fill="black"/>
<path d="M945.621 1169.15V1171.56H929.553V1169.15H945.621ZM945.621 1175.08V1177.48H929.553V1175.08H945.621Z" fill="black"/>
<path d="M622.301 1164.15C623.725 1164.15 624.88 1164.55 625.763 1165.34C626.665 1166.13 627.116 1167.16 627.116 1168.42V1168.72C627.116 1169.98 626.665 1171.01 625.763 1171.8C624.88 1172.58 623.725 1172.97 622.301 1172.97C621.363 1172.97 620.515 1172.79 619.758 1172.43C619.019 1172.07 618.433 1171.56 618 1170.91C617.585 1170.26 617.378 1169.53 617.378 1168.72V1168.4C617.378 1167.58 617.585 1166.85 618 1166.2C618.433 1165.56 619.019 1165.05 619.758 1164.69C620.515 1164.33 621.363 1164.15 622.301 1164.15ZM611.4 1164.45H614.023V1182.19H611.373L599.47 1168.21V1182.19H596.847V1164.45H599.498L611.4 1178.4V1164.45ZM624.979 1168.37C624.979 1167.7 624.726 1167.16 624.221 1166.75C623.716 1166.31 623.067 1166.1 622.274 1166.1C621.462 1166.1 620.804 1166.31 620.299 1166.75C619.794 1167.16 619.542 1167.7 619.542 1168.37V1168.72C619.542 1169.39 619.794 1169.94 620.299 1170.37C620.822 1170.79 621.48 1170.99 622.274 1170.99C623.067 1170.99 623.716 1170.79 624.221 1170.37C624.726 1169.94 624.979 1169.39 624.979 1168.72V1168.37ZM617.865 1176.11H626.629V1178.27H617.865V1176.11Z" fill="black"/>
<path d="M711.821 1170.48L711.469 1176.16H715.635V1178.59H711.307L711.064 1182.19H708.494L708.764 1178.59H702.894L702.678 1182.19H700.108L700.352 1178.59H696.105V1176.16H700.514L700.866 1170.48H696.7V1168.04H701.028L701.271 1164.45H703.841L703.598 1168.04H709.441L709.657 1164.45H712.227L711.983 1168.04H716.23V1170.48H711.821ZM708.9 1176.16L709.278 1170.48H703.435L703.057 1176.16H708.9Z" fill="black"/>
<path d="M332.952 940.171C333.89 940.532 334.602 941.046 335.089 941.713C335.594 942.362 335.847 943.146 335.847 944.066V944.364C335.847 945.86 335.27 947.051 334.116 947.934C332.979 948.818 331.456 949.26 329.544 949.26H318.832V931.515H328.976C330.96 931.515 332.502 931.912 333.602 932.705C334.72 933.481 335.279 934.581 335.279 936.005V936.33C335.279 937.177 335.08 937.926 334.684 938.575C334.287 939.224 333.71 939.756 332.952 940.171ZM321.537 933.922V939.089H328.949C331.347 939.089 332.547 938.277 332.547 936.654V936.33C332.547 935.554 332.24 934.959 331.627 934.545C331.014 934.13 330.13 933.922 328.976 933.922H321.537ZM333.115 943.985C333.115 942.344 331.906 941.523 329.49 941.523H321.537V946.852H329.49C330.626 946.852 331.51 946.627 332.141 946.176C332.79 945.707 333.115 945.076 333.115 944.283V943.985Z" fill="black"/>
<path d="M327.226 1070.95C329.264 1070.95 331.04 1071.32 332.555 1072.06C334.088 1072.8 335.269 1073.85 336.099 1075.22C336.928 1076.58 337.343 1078.16 337.343 1079.98V1080.34C337.343 1082.7 336.649 1084.66 335.26 1086.23C333.889 1087.78 331.996 1088.76 329.579 1089.15L330.932 1092.48V1092.89H328.227L326.793 1089.34C324.828 1089.29 323.114 1088.89 321.654 1088.15C320.193 1087.4 319.066 1086.35 318.272 1085.02C317.479 1083.66 317.082 1082.1 317.082 1080.34V1079.98C317.082 1078.16 317.497 1076.58 318.327 1075.22C319.156 1073.85 320.337 1072.8 321.87 1072.06C323.403 1071.32 325.188 1070.95 327.226 1070.95ZM334.611 1079.96C334.611 1077.92 333.962 1076.33 332.663 1075.2C331.365 1074.04 329.552 1073.47 327.226 1073.47C324.9 1073.47 323.078 1074.04 321.762 1075.2C320.464 1076.33 319.814 1077.92 319.814 1079.96V1080.39C319.814 1082.41 320.464 1083.99 321.762 1085.12C323.078 1086.26 324.9 1086.83 327.226 1086.83C329.552 1086.83 331.365 1086.26 332.663 1085.12C333.962 1083.99 334.611 1082.41 334.611 1080.39V1079.96Z" fill="black"/>
<path d="M337.094 1117.86V1118.27L328.763 1135.61H325.679L317.348 1118.27V1117.86H320.107L327.221 1133.04L334.335 1117.86H337.094Z" fill="black"/>
<path d="M328.333 1164.45L328.198 1177.27H325.763L325.628 1164.45H328.333ZM326.981 1182.52C326.494 1182.52 326.097 1182.37 325.79 1182.08C325.484 1181.78 325.33 1181.38 325.33 1180.89C325.33 1180.41 325.484 1180.02 325.79 1179.73C326.097 1179.42 326.494 1179.27 326.981 1179.27C327.467 1179.27 327.864 1179.42 328.171 1179.73C328.477 1180.02 328.631 1180.41 328.631 1180.89C328.631 1181.38 328.477 1181.78 328.171 1182.08C327.864 1182.37 327.467 1182.52 326.981 1182.52Z" fill="black"/>
<path d="M375.49 949.584C373.416 949.584 371.604 949.224 370.053 948.502C368.502 947.763 367.303 946.717 366.455 945.365C365.626 944.012 365.211 942.434 365.211 940.631V940.171C365.211 938.368 365.626 936.79 366.455 935.437C367.303 934.085 368.502 933.039 370.053 932.299C371.604 931.56 373.416 931.19 375.49 931.19C377.365 931.19 379.051 931.506 380.548 932.137C382.063 932.768 383.244 933.643 384.092 934.761C384.957 935.861 385.39 937.096 385.39 938.467V938.71H382.658V938.467C382.658 937.565 382.352 936.754 381.738 936.032C381.125 935.311 380.269 934.743 379.169 934.328C378.087 933.913 376.86 933.706 375.49 933.706C373.073 933.706 371.207 934.265 369.89 935.383C368.592 936.501 367.943 938.088 367.943 940.144V940.658C367.943 942.714 368.592 944.301 369.89 945.419C371.207 946.519 373.073 947.069 375.49 947.069C376.878 947.069 378.114 946.87 379.196 946.474C380.296 946.059 381.143 945.491 381.738 944.769C382.352 944.048 382.658 943.237 382.658 942.335V942.064H385.39V942.335C385.39 943.705 384.957 944.941 384.092 946.041C383.244 947.141 382.063 948.006 380.548 948.638C379.051 949.269 377.365 949.584 375.49 949.584Z" fill="black"/>
<path d="M384.01 1076.96C384.01 1078.43 383.478 1079.63 382.414 1080.55C381.368 1081.47 379.925 1081.98 378.086 1082.07L383.929 1088.61V1089.02H380.845L374.596 1082.07H369.349V1089.02H366.644V1071.27H377.572C379.574 1071.27 381.143 1071.75 382.279 1072.71C383.433 1073.65 384.01 1074.94 384.01 1076.6V1076.96ZM381.278 1076.52C381.278 1075.62 380.944 1074.93 380.277 1074.44C379.628 1073.93 378.708 1073.68 377.518 1073.68H369.349V1079.69H377.518C378.708 1079.69 379.628 1079.44 380.277 1078.96C380.944 1078.45 381.278 1077.75 381.278 1076.85V1076.52Z" fill="black"/>
<path d="M390.146 1117.86V1118.27L383.572 1135.61H380.299L374.808 1121.13L369.317 1135.61H366.044L359.444 1118.27V1117.86H362.203L367.694 1132.68L373.347 1117.86H376.269L381.922 1132.66L387.386 1117.86H390.146Z" fill="black"/>
<path d="M373.874 1176.51C373.874 1175.46 374.082 1174.64 374.496 1174.05C374.929 1173.44 375.705 1172.84 376.823 1172.26C377.941 1171.69 378.689 1171.21 379.068 1170.83C379.465 1170.43 379.663 1169.97 379.663 1169.45V1169.21C379.663 1168.36 379.275 1167.7 378.5 1167.23C377.742 1166.75 376.66 1166.5 375.254 1166.5C373.775 1166.5 372.621 1166.79 371.791 1167.37C370.962 1167.95 370.547 1168.75 370.547 1169.78V1170.34H367.95V1169.78C367.95 1168.03 368.599 1166.65 369.898 1165.64C371.196 1164.63 372.973 1164.12 375.227 1164.12C376.579 1164.12 377.796 1164.34 378.878 1164.77C379.96 1165.2 380.808 1165.81 381.421 1166.58C382.034 1167.34 382.341 1168.2 382.341 1169.15V1169.53C382.341 1170.36 382.079 1171.1 381.556 1171.75C381.033 1172.38 380.177 1173 378.987 1173.62C378.229 1174.01 377.661 1174.36 377.283 1174.64C376.904 1174.91 376.642 1175.19 376.498 1175.48C376.354 1175.75 376.282 1176.1 376.282 1176.51V1177.27H373.874V1176.51ZM375.091 1182.52C374.605 1182.52 374.199 1182.37 373.874 1182.08C373.568 1181.78 373.414 1181.38 373.414 1180.89C373.414 1180.41 373.568 1180.02 373.874 1179.73C374.199 1179.42 374.605 1179.27 375.091 1179.27C375.578 1179.27 375.975 1179.42 376.282 1179.73C376.588 1180.02 376.742 1180.41 376.742 1180.89C376.742 1181.38 376.588 1181.78 376.282 1182.08C375.975 1182.37 375.578 1182.52 375.091 1182.52Z" fill="black"/>
<path d="M421.757 931.515C424.967 931.515 427.401 932.254 429.06 933.733C430.737 935.212 431.576 937.367 431.576 940.198V940.604C431.576 943.435 430.737 945.59 429.06 947.069C427.401 948.529 424.967 949.26 421.757 949.26H413.452V931.515H421.757ZM421.757 946.852C426.481 946.852 428.844 944.778 428.844 940.631V940.171C428.844 938.115 428.24 936.564 427.031 935.518C425.841 934.454 424.074 933.922 421.73 933.922H416.157V946.852H421.757Z" fill="black"/>
<path d="M422.004 1089.34C419.137 1089.34 416.964 1088.85 415.485 1087.86C414.024 1086.85 413.294 1085.38 413.294 1083.45V1083.18H415.999V1083.45C415.999 1085.76 418.046 1086.91 422.139 1086.91C423.96 1086.91 425.349 1086.68 426.305 1086.23C427.261 1085.78 427.738 1085.12 427.738 1084.23V1084.02C427.738 1083.26 427.432 1082.69 426.819 1082.31C426.224 1081.93 425.16 1081.64 423.627 1081.45L419.596 1080.9C417.631 1080.65 416.152 1080.15 415.16 1079.39C414.186 1078.61 413.699 1077.58 413.699 1076.28V1076.01C413.699 1074.42 414.403 1073.19 415.809 1072.3C417.216 1071.4 419.2 1070.95 421.76 1070.95C424.483 1070.95 426.548 1071.44 427.955 1072.41C429.38 1073.38 430.092 1074.8 430.092 1076.66V1076.93H427.414V1076.66C427.414 1074.48 425.529 1073.38 421.76 1073.38C420.029 1073.38 418.704 1073.61 417.784 1074.06C416.882 1074.49 416.432 1075.12 416.432 1075.95V1076.17C416.432 1076.84 416.72 1077.35 417.297 1077.71C417.874 1078.07 418.839 1078.34 420.191 1078.52L424.249 1079.04C426.395 1079.31 427.964 1079.83 428.956 1080.61C429.966 1081.38 430.471 1082.48 430.471 1083.91V1084.18C430.471 1085.82 429.74 1087.09 428.279 1087.99C426.819 1088.89 424.727 1089.34 422.004 1089.34Z" fill="black"/>
<path d="M431.533 1118.27L424.094 1126.73L431.533 1135.2V1135.61H428.341L422.147 1128.49L415.925 1135.61H412.733V1135.2L420.172 1126.73L412.733 1118.27V1117.86H415.925L422.147 1124.97L428.368 1117.86H431.533V1118.27Z" fill="black"/>
<path d="M421.9 1164.12C424.334 1164.12 426.462 1164.54 428.283 1165.37C430.123 1166.2 431.538 1167.37 432.53 1168.88C433.54 1170.4 434.045 1172.16 434.045 1174.16V1176.08C434.045 1177.7 433.675 1178.96 432.936 1179.87C432.197 1180.75 431.16 1181.19 429.825 1181.19C429.032 1181.19 428.329 1181.04 427.715 1180.73C427.102 1180.42 426.624 1179.99 426.282 1179.43C425.669 1180.06 424.911 1180.55 424.01 1180.89C423.108 1181.24 422.143 1181.41 421.115 1181.41C419.871 1181.41 418.771 1181.16 417.815 1180.68C416.859 1180.19 416.111 1179.5 415.57 1178.62C415.047 1177.74 414.785 1176.72 414.785 1175.56V1174.91C414.785 1173.74 415.047 1172.71 415.57 1171.83C416.111 1170.95 416.859 1170.26 417.815 1169.78C418.789 1169.29 419.907 1169.05 421.169 1169.05C422.071 1169.05 422.919 1169.17 423.712 1169.42C424.505 1169.68 425.2 1170.05 425.795 1170.53L425.849 1169.32H428.067V1176.89C428.067 1177.54 428.211 1178.04 428.5 1178.4C428.806 1178.75 429.23 1178.92 429.771 1178.92C431.015 1178.92 431.638 1177.94 431.638 1175.97V1173.91C431.638 1172.42 431.241 1171.11 430.447 1169.99C429.654 1168.86 428.527 1167.99 427.066 1167.4C425.605 1166.78 423.892 1166.48 421.927 1166.48C419.907 1166.48 418.14 1166.81 416.625 1167.48C415.11 1168.14 413.938 1169.09 413.108 1170.32C412.279 1171.52 411.864 1172.94 411.864 1174.56V1176.02C411.864 1177.59 412.243 1178.95 413 1180.11C413.758 1181.26 414.831 1182.15 416.219 1182.76C417.626 1183.39 419.285 1183.71 421.196 1183.71H426.228V1186.01H421.196C418.888 1186.01 416.841 1185.58 415.056 1184.73C413.289 1183.9 411.909 1182.74 410.917 1181.24C409.925 1179.73 409.43 1178 409.43 1176.05V1174.48C409.43 1172.44 409.943 1170.64 410.971 1169.07C412.017 1167.5 413.478 1166.29 415.353 1165.42C417.247 1164.55 419.429 1164.12 421.9 1164.12ZM421.386 1179.13C422.323 1179.13 423.171 1178.96 423.928 1178.62C424.704 1178.28 425.299 1177.81 425.714 1177.21V1173.24C425.299 1172.64 424.704 1172.17 423.928 1171.83C423.171 1171.49 422.332 1171.32 421.413 1171.32C420.06 1171.32 419.014 1171.63 418.275 1172.26C417.554 1172.88 417.193 1173.76 417.193 1174.91V1175.56C417.193 1176.68 417.563 1177.56 418.302 1178.19C419.041 1178.82 420.069 1179.13 421.386 1179.13Z" fill="black"/>
<path d="M477.287 931.515V933.922H464.898V939.17H476.746V941.578H464.898V946.852H477.287V949.26H462.193V931.515H477.287Z" fill="black"/>
<path d="M460.704 1073.68V1071.27H478.746V1073.68H471.064V1089.02H468.386V1073.68H460.704Z" fill="black"/>
<path d="M479.114 1118.27L470.837 1128.41V1135.61H468.159V1128.41L459.854 1118.27V1117.86H462.857L469.484 1125.89L476.111 1117.86H479.114V1118.27Z" fill="black"/>
<path d="M472.23 1172.24C476.288 1172.67 478.316 1174.04 478.316 1176.35V1176.62C478.316 1178.1 477.667 1179.26 476.369 1180.11C475.07 1180.94 473.204 1181.42 470.769 1181.57V1183.81H468.2V1181.57C465.729 1181.42 463.845 1180.93 462.546 1180.08C461.248 1179.23 460.599 1178.05 460.599 1176.54V1176.29H463.25V1176.54C463.25 1178.32 465.432 1179.22 469.796 1179.22C473.691 1179.22 475.638 1178.45 475.638 1176.92V1176.65C475.638 1176.21 475.521 1175.87 475.287 1175.62C475.052 1175.37 474.656 1175.17 474.097 1175.02C473.538 1174.86 472.735 1174.73 471.689 1174.62L467.064 1174.16C464.972 1173.96 463.439 1173.53 462.465 1172.86C461.509 1172.17 461.031 1171.22 461.031 1169.99V1169.72C461.031 1168.35 461.654 1167.27 462.898 1166.48C464.16 1165.66 465.928 1165.19 468.2 1165.07V1162.8H470.769V1165.1C473.096 1165.24 474.872 1165.73 476.098 1166.56C477.325 1167.37 477.938 1168.49 477.938 1169.91V1170.13H475.287V1169.91C475.287 1169.12 474.755 1168.5 473.691 1168.07C472.645 1167.64 471.139 1167.42 469.174 1167.42C467.406 1167.42 466.045 1167.6 465.089 1167.96C464.151 1168.31 463.682 1168.81 463.682 1169.48V1169.75C463.682 1170.15 463.8 1170.47 464.034 1170.72C464.286 1170.97 464.692 1171.18 465.251 1171.34C465.828 1171.51 466.631 1171.64 467.659 1171.75L472.23 1172.24Z" fill="black"/>
<path d="M288.351 978.102V980.509H275.8V986H287.81V988.408H275.8V995.847H273.095V978.102H288.351Z" fill="black"/>
<path d="M566.136 992.438V992.844L563.702 999.715H561.213L563.188 992.438H566.136ZM564.162 986.109C563.675 986.109 563.278 985.955 562.972 985.649C562.665 985.342 562.512 984.955 562.512 984.486C562.512 984.017 562.665 983.629 562.972 983.322C563.278 983.016 563.675 982.863 564.162 982.863C564.649 982.863 565.045 983.016 565.352 983.322C565.659 983.629 565.812 984.017 565.812 984.486C565.812 984.955 565.659 985.342 565.352 985.649C565.045 985.955 564.649 986.109 564.162 986.109Z" fill="black"/>
<path d="M851.216 988.192H844.129V994.738H841.694V988.192H834.607V985.757H841.694V979.211H844.129V985.757H851.216V988.192Z" fill="black"/>
<path d="M894.635 987.191V989.544H885.384V987.191H894.635Z" fill="black"/>
<path d="M942.422 976.344H945.1V976.776L932.766 997.605H930.088V997.172L942.422 976.344Z" fill="black"/>
<path d="M611.5 996.171C611.013 996.171 610.616 996.018 610.309 995.711C610.003 995.405 609.85 995.017 609.85 994.548C609.85 994.079 610.003 993.692 610.309 993.385C610.616 993.079 611.013 992.925 611.5 992.925C611.987 992.925 612.383 993.079 612.69 993.385C612.996 993.692 613.15 994.079 613.15 994.548C613.15 995.017 612.996 995.405 612.69 995.711C612.383 996.018 611.987 996.171 611.5 996.171ZM611.5 986.109C611.013 986.109 610.616 985.955 610.309 985.649C610.003 985.342 609.85 984.955 609.85 984.486C609.85 984.017 610.003 983.629 610.309 983.322C610.616 983.016 611.013 982.863 611.5 982.863C611.987 982.863 612.383 983.016 612.69 983.322C612.996 983.629 613.15 984.017 613.15 984.486C613.15 984.955 612.996 985.342 612.69 985.649C612.383 985.955 611.987 986.109 611.5 986.109Z" fill="black"/>
<path d="M663.876 997.713C662.055 997.677 660.468 997.28 659.115 996.523C657.763 995.784 656.726 994.756 656.005 993.439C655.283 992.105 654.923 990.545 654.923 988.76V985.189C654.923 983.386 655.274 981.817 655.978 980.482C656.699 979.148 657.727 978.12 659.061 977.399C660.414 976.659 662.019 976.271 663.876 976.235V978.535C661.838 978.625 660.261 979.247 659.142 980.401C658.042 981.555 657.492 983.16 657.492 985.216V988.705C657.492 990.761 658.042 992.375 659.142 993.547C660.261 994.702 661.838 995.315 663.876 995.387V997.713Z" fill="black"/>
<path d="M701.638 976.235C703.46 976.271 705.047 976.668 706.399 977.426C707.752 978.165 708.789 979.202 709.51 980.536C710.231 981.853 710.592 983.404 710.592 985.189V988.76C710.592 990.563 710.231 992.132 709.51 993.466C708.807 994.801 707.779 995.829 706.426 996.55C705.092 997.289 703.496 997.677 701.638 997.713V995.414C703.676 995.324 705.245 994.702 706.345 993.547C707.463 992.393 708.022 990.788 708.022 988.733V985.243C708.022 983.187 707.463 981.582 706.345 980.428C705.245 979.256 703.676 978.634 701.638 978.562V976.235Z" fill="black"/>
<path d="M761.801 988.192H754.714V994.738H752.279V988.192H745.192V985.757H752.279V979.211H754.714V985.757H761.801V988.192Z" fill="black"/>
<path d="M334.557 984.404V984.242C334.557 983.521 334.242 982.863 333.611 982.268C332.997 981.654 332.15 981.177 331.068 980.834C329.986 980.473 328.796 980.293 327.497 980.293C325.081 980.293 323.187 980.861 321.817 981.997C320.464 983.133 319.788 984.711 319.788 986.731V987.245C319.788 989.319 320.455 990.906 321.79 992.006C323.124 993.106 325.027 993.656 327.497 993.656C330.563 993.656 332.934 992.772 334.611 991.005V988.949H325.225V986.514H337.289V995.847H334.855L334.72 993.683C332.952 995.342 330.527 996.171 327.443 996.171C325.315 996.171 323.467 995.811 321.898 995.089C320.347 994.368 319.148 993.331 318.3 991.979C317.471 990.626 317.056 989.039 317.056 987.218V986.758C317.056 984.973 317.48 983.404 318.327 982.051C319.193 980.681 320.41 979.626 321.979 978.886C323.548 978.147 325.378 977.777 327.47 977.777C329.382 977.777 331.077 978.048 332.556 978.589C334.052 979.13 335.216 979.896 336.045 980.888C336.875 981.862 337.289 982.98 337.289 984.242V984.404H334.557Z" fill="black"/>
<path d="M369.664 978.102V985.757H381.431V978.102H384.136V995.847H381.431V988.192H369.664V995.847H366.959V978.102H369.664Z" fill="black"/>
<path d="M423.994 978.102V995.847H421.316V978.102H423.994Z" fill="black"/>
<path d="M476.57 984.404V984.242C476.57 983.521 476.254 982.863 475.623 982.268C475.01 981.654 474.163 981.177 473.081 980.834C471.999 980.473 470.808 980.293 469.51 980.293C467.093 980.293 465.2 980.861 463.829 981.997C462.477 983.133 461.801 984.711 461.801 986.731V987.245C461.801 989.319 462.468 990.906 463.802 992.006C465.137 993.106 467.039 993.656 469.51 993.656C472.576 993.656 474.947 992.772 476.624 991.005V988.949H467.238V986.514H479.302V995.847H476.868L476.732 993.683C474.965 995.342 472.54 996.171 469.456 996.171C467.328 996.171 465.479 995.811 463.911 995.089C462.36 994.368 461.16 993.331 460.313 991.979C459.483 990.626 459.069 989.039 459.069 987.218V986.758C459.069 984.973 459.492 983.404 460.34 982.051C461.206 980.681 462.423 979.626 463.992 978.886C465.561 978.147 467.391 977.777 469.483 977.777C471.394 977.777 473.09 978.048 474.568 978.589C476.065 979.13 477.228 979.896 478.058 980.888C478.887 981.862 479.302 982.98 479.302 984.242V984.404H476.57Z" fill="black"/>
<path d="M289.437 1025.09L280.348 1032.56L289.167 1042.03V1042.43H285.894L278.239 1034.26L274.316 1037.4V1042.43H271.611V1024.69H274.316V1034.05L285.84 1024.69H289.437V1025.09Z" fill="black"/>
<path d="M565.055 1022.93V1044.19H562.783V1022.93H565.055Z" fill="black"/>
<path d="M850.745 1024.69V1027.1C848.166 1029.8 846.146 1032.45 844.685 1035.05C843.243 1037.63 842.521 1039.87 842.521 1041.78V1042.43H839.681V1041.78C839.681 1039.78 840.366 1037.48 841.737 1034.89C843.126 1032.29 845.037 1029.69 847.472 1027.1H834.136V1024.69H850.745Z" fill="black"/>
<path d="M896.699 1033.29C897.817 1033.67 898.655 1034.19 899.214 1034.86C899.791 1035.53 900.08 1036.33 900.08 1037.27V1037.56C900.08 1041.03 896.978 1042.76 890.775 1042.76C884.571 1042.76 881.469 1041.03 881.469 1037.56V1037.27C881.469 1036.33 881.749 1035.53 882.308 1034.86C882.885 1034.19 883.733 1033.67 884.851 1033.29C884.003 1032.91 883.363 1032.42 882.93 1031.83C882.497 1031.22 882.281 1030.52 882.281 1029.75V1029.45C882.281 1028.44 882.633 1027.55 883.336 1026.77C884.039 1026 885.031 1025.4 886.311 1024.99C887.592 1024.57 889.08 1024.36 890.775 1024.36C892.47 1024.36 893.958 1024.57 895.238 1024.99C896.518 1025.4 897.51 1026 898.213 1026.77C898.917 1027.55 899.268 1028.44 899.268 1029.45V1029.75C899.268 1030.52 899.052 1031.22 898.619 1031.83C898.186 1032.42 897.546 1032.91 896.699 1033.29ZM884.932 1029.66C884.932 1030.58 885.401 1031.26 886.338 1031.69C887.294 1032.13 888.773 1032.34 890.775 1032.34C892.758 1032.34 894.219 1032.13 895.157 1031.69C896.113 1031.26 896.59 1030.58 896.59 1029.66V1029.45C896.59 1027.68 894.652 1026.8 890.775 1026.8C886.879 1026.8 884.932 1027.68 884.932 1029.45V1029.66ZM897.402 1037.46C897.402 1036.5 896.879 1035.81 895.833 1035.4C894.805 1034.97 893.119 1034.75 890.775 1034.75C888.43 1034.75 886.735 1034.97 885.689 1035.4C884.661 1035.81 884.147 1036.5 884.147 1037.46V1037.67C884.147 1038.59 884.679 1039.27 885.743 1039.7C886.807 1040.12 888.484 1040.32 890.775 1040.32C893.065 1040.32 894.742 1040.12 895.806 1039.7C896.87 1039.27 897.402 1038.59 897.402 1037.67V1037.46Z" fill="black"/>
<path d="M937.382 1024.36C939.258 1024.36 940.881 1024.63 942.251 1025.17C943.64 1025.72 944.695 1026.49 945.416 1027.5C946.155 1028.51 946.525 1029.7 946.525 1031.07V1035.56C946.525 1037.82 945.723 1039.58 944.118 1040.86C942.531 1042.13 940.322 1042.76 937.49 1042.76C935.795 1042.76 934.316 1042.53 933.054 1042.08C931.792 1041.63 930.818 1040.99 930.133 1040.16C929.465 1039.31 929.132 1038.32 929.132 1037.18V1036.97H931.81V1037.18C931.81 1038.14 932.315 1038.89 933.325 1039.43C934.334 1039.97 935.723 1040.24 937.49 1040.24C939.546 1040.24 941.115 1039.84 942.197 1039.05C943.297 1038.26 943.847 1037.11 943.847 1035.62V1033.94C942.278 1035.2 940.06 1035.83 937.193 1035.83C934.506 1035.83 932.441 1035.38 930.998 1034.48C929.556 1033.56 928.834 1032.23 928.834 1030.5V1030.12C928.834 1028.32 929.592 1026.91 931.106 1025.91C932.639 1024.88 934.731 1024.36 937.382 1024.36ZM937.22 1033.34C938.789 1033.34 940.15 1033.16 941.304 1032.8C942.459 1032.42 943.306 1031.89 943.847 1031.21V1031.04C943.847 1029.75 943.279 1028.73 942.143 1027.99C941.007 1027.25 939.411 1026.88 937.355 1026.88C935.516 1026.88 934.082 1027.15 933.054 1027.69C932.026 1028.23 931.512 1029.01 931.512 1030.02V1030.4C931.512 1032.36 933.415 1033.34 937.22 1033.34Z" fill="black"/>
<path d="M611.328 1030.48C611.328 1032.21 610.58 1033.24 609.083 1033.56C610.58 1033.88 611.328 1034.91 611.328 1036.64V1040.11C611.328 1040.67 611.517 1041.1 611.896 1041.4C612.275 1041.71 612.807 1041.86 613.492 1041.86H617.09V1044.19H613.032C611.734 1044.19 610.688 1043.85 609.894 1043.16C609.119 1042.48 608.731 1041.56 608.731 1040.4V1036.48C608.731 1035.92 608.542 1035.49 608.163 1035.18C607.802 1034.88 607.279 1034.72 606.594 1034.72H604.565V1032.4H606.594C607.279 1032.4 607.802 1032.24 608.163 1031.94C608.542 1031.63 608.731 1031.2 608.731 1030.64V1026.72C608.731 1025.56 609.119 1024.64 609.894 1023.96C610.688 1023.27 611.734 1022.93 613.032 1022.93H617.09V1025.26H613.492C612.807 1025.26 612.275 1025.41 611.896 1025.72C611.517 1026.02 611.328 1026.46 611.328 1027.01V1030.48Z" fill="black"/>
<path d="M665.266 1032.4V1034.72H663.237C662.552 1034.72 662.02 1034.88 661.641 1035.18C661.281 1035.49 661.1 1035.92 661.1 1036.48V1040.4C661.1 1041.56 660.704 1042.48 659.91 1043.16C659.135 1043.85 658.098 1044.19 656.799 1044.19H652.742V1041.86H656.34C657.025 1041.86 657.557 1041.71 657.936 1041.4C658.314 1041.1 658.504 1040.67 658.504 1040.11V1036.64C658.504 1034.91 659.252 1033.88 660.749 1033.56C659.252 1033.24 658.504 1032.21 658.504 1030.48V1027.01C658.504 1026.46 658.314 1026.02 657.936 1025.72C657.557 1025.41 657.025 1025.26 656.34 1025.26H652.742V1022.93H656.799C658.098 1022.93 659.135 1023.27 659.91 1023.96C660.704 1024.64 661.1 1025.56 661.1 1026.72V1030.64C661.1 1031.2 661.281 1031.63 661.641 1031.94C662.02 1032.24 662.552 1032.4 663.237 1032.4H665.266Z" fill="black"/>
<path d="M322.874 1024.69V1040.03H335.939V1042.43H320.169V1024.69H322.874Z" fill="black"/>
<path d="M386.472 1042.43H383.794V1028.15L376.436 1042.43H373.65L366.292 1028.12V1042.43H363.614V1024.69H367.401L375.056 1039.4L382.712 1024.69H386.472V1042.43Z" fill="black"/>
<path d="M430.722 1024.69V1042.43H428.071L416.169 1028.45V1042.43H413.545V1024.69H416.196L428.098 1038.65V1024.69H430.722Z" fill="black"/>
<path d="M469.239 1042.76C467.201 1042.76 465.416 1042.39 463.883 1041.65C462.35 1040.91 461.169 1039.86 460.339 1038.51C459.51 1037.16 459.095 1035.57 459.095 1033.75V1033.4C459.095 1031.58 459.51 1029.99 460.339 1028.64C461.169 1027.27 462.35 1026.21 463.883 1025.47C465.416 1024.73 467.201 1024.36 469.239 1024.36C471.277 1024.36 473.053 1024.73 474.568 1025.47C476.1 1026.21 477.282 1027.27 478.111 1028.64C478.941 1029.99 479.356 1031.58 479.356 1033.4V1033.75C479.356 1035.57 478.941 1037.16 478.111 1038.51C477.282 1039.86 476.1 1040.91 474.568 1041.65C473.053 1042.39 471.277 1042.76 469.239 1042.76ZM469.239 1040.24C471.565 1040.24 473.377 1039.67 474.676 1038.54C475.974 1037.4 476.623 1035.82 476.623 1033.8V1033.37C476.623 1031.33 475.974 1029.75 474.676 1028.61C473.377 1027.46 471.565 1026.88 469.239 1026.88C466.912 1026.88 465.091 1027.46 463.775 1028.61C462.476 1029.75 461.827 1031.33 461.827 1033.37V1033.8C461.827 1035.82 462.476 1037.4 463.775 1038.54C465.091 1039.67 466.912 1040.24 469.239 1040.24Z" fill="black"/>
<path d="M708.189 1101.46L721.715 1086.81V1097.7H742.002V1043.23H750.643V1105.97H721.715V1115.74L708.189 1101.46Z" stroke="black" stroke-width="1.50278"/>
<path d="M1091.5 1081L1132 1067L1169 1081V1171.5L1132 1200.5L1091.5 1171.5V1081Z" fill="#D9D9D9" stroke="#D9D9D9" stroke-width="2"/>
<path d="M1139.75 1077.5C1107.58 1021.17 1067.05 908.5 1162.25 908.5C1281.25 908.5 1300.25 1010.5 1339.75 994C1379.25 977.5 1352.25 898 1365.25 870.5C1375.65 848.5 1419.25 842.333 1439.75 842" stroke="#D9D9D9" stroke-width="8"/>
</svg>
