<svg width="1440" height="1270" viewBox="0 0 1440 1270" fill="none" xmlns="http://www.w3.org/2000/svg">
<g clip-path="url(#clip0_48_28332)">
<rect width="1440" height="1270" fill="white"/>
<rect x="-7" y="-295" width="1447" height="6375" fill="black"/>
<path d="M638.9 643.5V720H579.5C550.1 720 525.5 714.3 505.7 702.9C485.9 691.5 472.1 675.3 464.3 654.3C440.3 680.1 411.5 699.3 377.9 711.9C344.3 724.5 304.7 730.8 259.1 730.8C194.9 730.8 145.4 719.7 110.6 697.5C75.8 674.7 58.4 642.3 58.4 600.3C58.4 564.3 71.9 535.5 98.9 513.9C125.9 492.3 165.5 478.8 217.7 473.4L458 448.2C456.2 414.6 442.1 389.1 415.7 371.7C389.3 354.3 351.5 345.6 302.3 345.6C254.9 345.6 217.1 353.7 188.9 369.9C160.7 386.1 146.6 407.7 146.6 434.7V438.3H61.1V434.7C61.1 401.1 71 371.4 90.8 345.6C111.2 319.2 139.7 299.1 176.3 285.3C212.9 270.9 255.2 263.7 303.2 263.7C379.4 263.7 438.5 280.5 480.5 314.1C522.5 347.7 543.5 394.8 543.5 455.4V594C543.5 609.6 548.3 621.9 557.9 630.9C567.5 639.3 581.3 643.5 599.3 643.5H638.9ZM257.3 654.3C305.9 654.3 347.6 646.8 382.4 631.8C417.2 616.2 442.4 594.3 458 566.1V518.4L236.6 541.8C205.4 544.8 182 551.1 166.4 560.7C151.4 570.3 143.9 583.5 143.9 600.3C143.9 636.3 181.7 654.3 257.3 654.3Z" fill="white"/>
<path d="M1092.7 788.1C1141.9 788.1 1185.1 796.8 1222.3 814.2C1259.5 831 1288.3 855.3 1308.7 887.1C1329.1 918.3 1339.3 954.6 1339.3 996V1017.6C1339.3 1058.4 1328.2 1094.4 1306 1125.6C1284.4 1156.2 1253.8 1180.2 1214.2 1197.6C1174.6 1214.4 1128.4 1222.8 1075.6 1222.8C988.6 1222.8 921.7 1200 874.9 1154.4C828.1 1108.2 804.7 1042.5 804.7 957.3V896.1C804.7 812.1 826.6 747.9 870.4 703.5C914.2 658.5 980.5 632.7 1069.3 626.1L1187.2 617.1C1198.6 616.5 1206.7 614.4 1211.5 610.8C1216.9 606.6 1219.6 600.9 1219.6 593.7V585.6H1312.3V596.4C1312.3 626.4 1303.6 649.8 1286.2 666.6C1269.4 682.8 1243.6 692.1 1208.8 694.5L1071.1 705.3C1008.7 710.1 962.5 725.1 932.5 750.3C903.1 775.5 888.1 812.1 887.5 860.1C912.1 837.3 942.1 819.6 977.5 807C1012.9 794.4 1051.3 788.1 1092.7 788.1ZM1250.2 997.8C1250.2 957 1234.6 924.9 1203.4 901.5C1172.2 878.1 1129 866.4 1073.8 866.4C994.6 866.4 933.7 891.9 891.1 942.9V978.9C891.1 1033.5 906.4 1074.9 937 1103.1C968.2 1130.7 1013.8 1144.5 1073.8 1144.5C1128.4 1144.5 1171.3 1133.1 1202.5 1110.3C1234.3 1087.5 1250.2 1056.3 1250.2 1016.7V997.8Z" fill="white"/>
<rect x="506" y="584" width="29" height="29" fill="#31B72E"/>
<rect x="535" y="555" width="155" height="29" fill="#31B72E"/>
<rect x="535" y="797" width="155" height="29" fill="#31B72E"/>
<rect x="506" y="613" width="155" height="29" transform="rotate(90 506 613)" fill="#31B72E"/>
<rect x="748" y="613" width="155" height="29" transform="rotate(90 748 613)" fill="#31B72E"/>
<rect x="690" y="584" width="29" height="29" fill="#31B72E"/>
<rect x="690" y="768" width="29" height="29" fill="#31B72E"/>
<rect x="506" y="768" width="29" height="29" fill="#31B72E"/>
<rect x="1140" y="526" width="29" height="29" fill="#31B72E"/>
<rect x="1169" y="497" width="155" height="29" fill="#31B72E"/>
<rect x="1169" y="739" width="155" height="29" fill="#31B72E"/>
<rect x="1140" y="555" width="155" height="29" transform="rotate(90 1140 555)" fill="#31B72E"/>
<rect x="1382" y="555" width="155" height="29" transform="rotate(90 1382 555)" fill="#31B72E"/>
<rect x="1324" y="526" width="29" height="29" fill="#31B72E"/>
<rect x="1324" y="710" width="29" height="29" fill="#31B72E"/>
<rect x="1140" y="710" width="29" height="29" fill="#31B72E"/>
</g>
<defs>
<clipPath id="clip0_48_28332">
<rect width="1440" height="1270" fill="white"/>
</clipPath>
</defs>
</svg>
