<svg width="1440" height="1047" viewBox="0 0 1440 1047" fill="none" xmlns="http://www.w3.org/2000/svg">
<g clip-path="url(#clip0_37_27580)">
<rect width="1440" height="1047" fill="white"/>
<line x1="109" y1="333" x2="109" y2="1091" stroke="black" stroke-width="6"/>
<line x1="207" y1="333" x2="207" y2="1091" stroke="black" stroke-width="6"/>
<line x1="315" y1="333" x2="315" y2="1091" stroke="black" stroke-width="6"/>
<line x1="415" y1="341" x2="415" y2="1099" stroke="black" stroke-width="6"/>
<line x1="515" y1="341" x2="515" y2="1099" stroke="black" stroke-width="6"/>
<line x1="613" y1="333" x2="613" y2="1091" stroke="black" stroke-width="6"/>
<line x1="715" y1="333" x2="715" y2="1091" stroke="black" stroke-width="6"/>
<line x1="815" y1="333" x2="815" y2="1091" stroke="black" stroke-width="6"/>
<line x1="915" y1="333" x2="915" y2="1091" stroke="black" stroke-width="6"/>
<line x1="1015" y1="333" x2="1015" y2="1091" stroke="black" stroke-width="6"/>
<line x1="1115" y1="333" x2="1115" y2="1091" stroke="black" stroke-width="6"/>
<line x1="1215" y1="333" x2="1215" y2="1091" stroke="black" stroke-width="6"/>
<line x1="1315" y1="333" x2="1315" y2="1091" stroke="black" stroke-width="6"/>
<line x1="1415" y1="338" x2="1415" y2="1096" stroke="black" stroke-width="6"/>
<line x1="12" y1="435" x2="1452" y2="435" stroke="black" stroke-width="6"/>
<line x1="12" y1="535" x2="1452" y2="535" stroke="black" stroke-width="6"/>
<line x1="12" y1="635" x2="1452" y2="635" stroke="black" stroke-width="6"/>
<line x1="12" y1="735" x2="1452" y2="735" stroke="black" stroke-width="6"/>
<line x1="12" y1="835" x2="1452" y2="835" stroke="black" stroke-width="6"/>
<line x1="12" y1="935" x2="1452" y2="935" stroke="black" stroke-width="6"/>
<line x1="-6.99383" y1="1049" x2="1452.01" y2="1052" stroke="black" stroke-width="6"/>
<line x1="109" y1="-281" x2="109" y2="477" stroke="black" stroke-width="6"/>
<line x1="207" y1="-281" x2="207" y2="477" stroke="black" stroke-width="6"/>
<line x1="315" y1="-281" x2="315" y2="477" stroke="black" stroke-width="6"/>
<line x1="415" y1="-273" x2="415" y2="485" stroke="black" stroke-width="6"/>
<line x1="515" y1="-273" x2="515" y2="485" stroke="black" stroke-width="6"/>
<line x1="613" y1="-281" x2="613" y2="477" stroke="black" stroke-width="6"/>
<line x1="715" y1="-281" x2="715" y2="477" stroke="black" stroke-width="6"/>
<line x1="815" y1="-281" x2="815" y2="477" stroke="black" stroke-width="6"/>
<line x1="915" y1="-281" x2="915" y2="477" stroke="black" stroke-width="6"/>
<line x1="1015" y1="-281" x2="1015" y2="477" stroke="black" stroke-width="6"/>
<line x1="1115" y1="-281" x2="1115" y2="477" stroke="black" stroke-width="6"/>
<line x1="1215" y1="-281" x2="1215" y2="477" stroke="black" stroke-width="6"/>
<line x1="1315" y1="-281" x2="1315" y2="477" stroke="black" stroke-width="6"/>
<line x1="1415" y1="-276" x2="1415" y2="482" stroke="black" stroke-width="6"/>
<line x1="12" y1="21" x2="1452" y2="21" stroke="black" stroke-width="6"/>
<line x1="12" y1="121" x2="1452" y2="121" stroke="black" stroke-width="6"/>
<line x1="12" y1="221" x2="1452" y2="221" stroke="black" stroke-width="6"/>
<line x1="12" y1="321" x2="1452" y2="321" stroke="black" stroke-width="6"/>
<rect width="1440" height="1047" fill="black"/>
<rect x="7.5" y="155.5" width="1425" height="885" fill="#FFF500" stroke="black" stroke-width="15"/>
<rect x="58" y="579" width="632" height="306" fill="#FFF500"/>
<rect x="756" y="579" width="632" height="306" fill="#FFF500"/>
<rect x="755" y="206" width="632" height="306" fill="#FFF500"/>
<line x1="61.0312" y1="564.834" x2="674.484" y2="564.834" stroke="black" stroke-width="28.3324"/>
<line x1="60.6821" y1="886.379" x2="60.6821" y2="899.668" stroke="black" stroke-width="28.3324"/>
<line x1="688.651" y1="886.379" x2="688.651" y2="899.668" stroke="black" stroke-width="28.3324"/>
<line x1="688.651" y1="579" x2="688.651" y2="592.289" stroke="black" stroke-width="28.3324"/>
<line x1="60.6821" y1="579" x2="60.6821" y2="592.289" stroke="black" stroke-width="28.3324"/>
<line x1="46.1662" y1="592.289" x2="46.1662" y2="886.379" stroke="black" stroke-width="28.3324"/>
<line x1="703.166" y1="592.289" x2="703.166" y2="886.379" stroke="black" stroke-width="28.3324"/>
<line x1="61.0312" y1="898.791" x2="674.484" y2="898.791" stroke="black" stroke-width="28.3324"/>
<line x1="757.949" y1="565.349" x2="1369.64" y2="565.349" stroke="black" stroke-width="28.2513"/>
<line x1="757.6" y1="885.973" x2="757.6" y2="899.224" stroke="black" stroke-width="28.2513"/>
<line x1="1383.77" y1="885.973" x2="1383.77" y2="899.224" stroke="black" stroke-width="28.2513"/>
<line x1="1383.77" y1="579.475" x2="1383.77" y2="592.725" stroke="black" stroke-width="28.2513"/>
<line x1="757.6" y1="579.475" x2="757.6" y2="592.725" stroke="black" stroke-width="28.2513"/>
<line x1="743.126" y1="592.726" x2="743.126" y2="885.973" stroke="black" stroke-width="28.2513"/>
<line x1="1398.24" y1="592.726" x2="1398.24" y2="885.973" stroke="black" stroke-width="28.2513"/>
<line x1="757.949" y1="898.349" x2="1369.64" y2="898.349" stroke="black" stroke-width="28.2513"/>
<rect x="51.7227" y="206" width="646.555" height="318.849" fill="black"/>
<path d="M843.6 313V283.3L835.23 313H822.18L813.9 283.66V313H798.6V253.96H818.4L828.66 288.43L839.01 253.96H858.81L858.9 313H843.6ZM880.77 267.46V313H865.2V267.46H880.77ZM872.94 264.04C870.24 264.04 868.02 263.2 866.28 261.52C864.6 259.84 863.76 257.68 863.76 255.04C863.76 252.4 864.6 250.24 866.28 248.56C867.96 246.88 870.18 246.04 872.94 246.04C875.7 246.04 877.92 246.88 879.6 248.56C881.28 250.18 882.12 252.34 882.12 255.04C882.12 257.68 881.28 259.84 879.6 261.52C877.92 263.2 875.7 264.04 872.94 264.04ZM907.626 281.5V295.45C907.626 296.59 907.896 297.46 908.436 298.06C909.036 298.66 909.876 298.96 910.956 298.96H916.896V313H908.616C903.156 313 899.016 311.68 896.196 309.04C893.436 306.4 892.056 302.59 892.056 297.61V281.5H883.146V267.46H888.816C890.136 267.46 891.096 267.19 891.696 266.65C892.296 266.05 892.596 265.09 892.596 263.77V255.49H907.626V267.46H919.236V281.5H907.626ZM936.893 281.5V295.45C936.893 296.59 937.163 297.46 937.703 298.06C938.303 298.66 939.143 298.96 940.223 298.96H946.163V313H937.883C932.423 313 928.283 311.68 925.463 309.04C922.703 306.4 921.323 302.59 921.323 297.61V281.5H912.413V267.46H918.083C919.403 267.46 920.363 267.19 920.963 266.65C921.563 266.05 921.863 265.09 921.863 263.77V255.49H936.893V267.46H948.503V281.5H936.893ZM964.952 294.19V295.45C964.952 297.19 965.462 298.57 966.482 299.59C967.502 300.55 968.852 301.03 970.532 301.03C972.032 301.03 973.232 300.76 974.132 300.22C975.032 299.62 975.632 298.81 975.932 297.79H991.592C991.172 303.07 989.102 307.12 985.382 309.94C981.722 312.76 976.772 314.17 970.532 314.17C964.112 314.17 958.982 312.43 955.142 308.95C951.362 305.41 949.472 300.67 949.472 294.73V285.73C949.472 281.83 950.342 278.41 952.082 275.47C953.822 272.53 956.282 270.28 959.462 268.72C962.642 267.1 966.332 266.29 970.532 266.29C977.012 266.29 982.142 268.03 985.922 271.51C989.702 274.99 991.592 279.7 991.592 285.64V294.19H964.952ZM970.532 279.34C968.852 279.34 967.502 279.82 966.482 280.78C965.462 281.74 964.952 283.12 964.952 284.92H976.112C976.112 283.12 975.602 281.74 974.582 280.78C973.562 279.82 972.212 279.34 970.532 279.34ZM1011.36 313C1006.44 313 1002.69 311.89 1000.11 309.67C997.593 307.39 996.333 304.03 996.333 299.59V250.36H1011.9V296.89C1011.9 298.27 1012.59 298.96 1013.97 298.96H1016.76V313H1011.36ZM1039.88 314.17C1033.28 314.17 1028.15 312.76 1024.49 309.94C1020.89 307.06 1019.09 303.04 1019.09 297.88V296.89H1033.67V297.88C1033.67 299.26 1034.15 300.28 1035.11 300.94C1036.07 301.54 1037.6 301.84 1039.7 301.84C1043.18 301.84 1044.92 301 1044.92 299.32V299.05C1044.92 298.33 1044.65 297.79 1044.11 297.43C1043.57 297.01 1042.58 296.68 1041.14 296.44L1033.94 295.18C1029.56 294.4 1026.05 292.84 1023.41 290.5C1020.83 288.1 1019.54 285.25 1019.54 281.95V281.32C1019.54 278.32 1020.38 275.71 1022.06 273.49C1023.8 271.21 1026.23 269.44 1029.35 268.18C1032.47 266.92 1036.07 266.29 1040.15 266.29C1046.51 266.29 1051.43 267.67 1054.91 270.43C1058.39 273.19 1060.13 277.09 1060.13 282.13V283.12H1045.55V282.13C1045.55 279.67 1043.45 278.44 1039.25 278.44C1037.69 278.44 1036.46 278.65 1035.56 279.07C1034.72 279.43 1034.3 279.97 1034.3 280.69V280.96C1034.3 281.62 1034.54 282.13 1035.02 282.49C1035.5 282.79 1036.34 283.06 1037.54 283.3L1045.91 284.92C1050.65 285.82 1054.22 287.41 1056.62 289.69C1059.02 291.91 1060.22 294.79 1060.22 298.33V298.96C1060.22 303.58 1058.36 307.27 1054.64 310.03C1050.98 312.79 1046.06 314.17 1039.88 314.17ZM1085.41 314.17C1081.21 314.17 1077.52 313.39 1074.34 311.83C1071.16 310.21 1068.7 307.93 1066.96 304.99C1065.22 301.99 1064.35 298.54 1064.35 294.64V285.82C1064.35 281.92 1065.22 278.5 1066.96 275.56C1068.7 272.56 1071.16 270.28 1074.34 268.72C1077.52 267.1 1081.21 266.29 1085.41 266.29C1089.49 266.29 1093.09 267.07 1096.21 268.63C1099.39 270.19 1101.82 272.41 1103.5 275.29C1105.24 278.11 1106.11 281.38 1106.11 285.1V287.8H1090.54V285.55C1090.54 284.11 1090.06 282.97 1089.1 282.13C1088.2 281.23 1086.97 280.78 1085.41 280.78C1083.73 280.78 1082.41 281.26 1081.45 282.22C1080.55 283.18 1080.1 284.5 1080.1 286.18V294.28C1080.1 295.96 1080.55 297.28 1081.45 298.24C1082.41 299.2 1083.73 299.68 1085.41 299.68C1086.97 299.68 1088.2 299.26 1089.1 298.42C1090.06 297.52 1090.54 296.35 1090.54 294.91V293.02H1106.2V295.36C1106.2 299.14 1105.33 302.47 1103.59 305.35C1101.91 308.17 1099.48 310.36 1096.3 311.92C1093.18 313.42 1089.55 314.17 1085.41 314.17ZM1136.86 266.29C1141.78 266.29 1145.74 267.88 1148.74 271.06C1151.74 274.24 1153.24 278.71 1153.24 284.47V313H1137.67V287.08C1137.67 282.94 1135.93 280.87 1132.45 280.87C1131.43 280.87 1130.44 281.11 1129.48 281.59C1128.52 282.01 1127.71 282.61 1127.05 283.39V313H1111.48V250.36H1127.05V269.17C1129.87 267.25 1133.14 266.29 1136.86 266.29ZM1187.28 267.46V281.5H1180.89C1177.95 281.5 1175.85 282.16 1174.59 283.48V313H1159.02V267.46H1172.7L1173.24 270.34C1175.76 268.42 1178.55 267.46 1181.61 267.46H1187.28ZM1206.67 267.46V313H1191.1V267.46H1206.67ZM1198.84 264.04C1196.14 264.04 1193.92 263.2 1192.18 261.52C1190.5 259.84 1189.66 257.68 1189.66 255.04C1189.66 252.4 1190.5 250.24 1192.18 248.56C1193.86 246.88 1196.08 246.04 1198.84 246.04C1201.6 246.04 1203.82 246.88 1205.5 248.56C1207.18 250.18 1208.02 252.34 1208.02 255.04C1208.02 257.68 1207.18 259.84 1205.5 261.52C1203.82 263.2 1201.6 264.04 1198.84 264.04ZM1244.95 281.5H1233.16V313H1217.59V281.5H1209.04V267.46H1217.59V265.03C1217.59 255.25 1222.87 250.36 1233.43 250.36H1242.25V264.22H1236.04C1234.12 264.22 1233.16 265.09 1233.16 266.83V267.46H1244.95V281.5ZM1260.77 281.5V295.45C1260.77 296.59 1261.04 297.46 1261.58 298.06C1262.18 298.66 1263.02 298.96 1264.1 298.96H1270.04V313H1261.76C1256.3 313 1252.16 311.68 1249.34 309.04C1246.58 306.4 1245.2 302.59 1245.2 297.61V281.5H1236.29V267.46H1241.96C1243.28 267.46 1244.24 267.19 1244.84 266.65C1245.44 266.05 1245.74 265.09 1245.74 263.77V255.49H1260.77V267.46H1272.38V281.5H1260.77Z" fill="black"/>
<path d="M818.862 686H800.757V626.981H818.862V686ZM823.608 648.383H844.878V626.981H862.939V686H844.878V664.599H823.608V648.383ZM897.085 653.7C892.896 653.964 890.801 655.194 890.801 657.392V657.479H872.959V657.392C872.959 652.089 875.098 647.841 879.375 644.647C883.682 641.454 889.585 639.696 897.085 639.374V653.7ZM901.875 639.374C909.375 639.667 915.22 641.645 919.409 645.307C923.599 648.939 925.693 653.861 925.693 660.072V668.554C925.693 669.315 925.898 669.872 926.309 670.224C926.719 670.546 927.393 670.707 928.33 670.707H932.285V686H922.485C917.974 686 914.458 684.828 911.938 682.484C909.419 680.111 908.159 676.786 908.159 672.509V659.896C908.159 658.051 907.646 656.63 906.621 655.634C905.596 654.608 904.014 653.993 901.875 653.788V639.374ZM904.907 684.55C901.128 686.308 896.777 687.187 891.855 687.187C885.82 687.187 881.104 685.956 877.705 683.495C874.307 681.005 872.607 677.577 872.607 673.212C872.607 665.8 877.588 661.537 887.549 660.424L903.369 658.622V668.29L892.954 669.521C890.962 669.784 889.966 670.663 889.966 672.157C889.966 674.003 891.621 674.926 894.932 674.926C897.92 674.926 900.776 674.325 903.501 673.124L904.907 684.55ZM954.302 686C949.028 686 944.868 684.696 941.821 682.089C938.804 679.481 937.295 675.951 937.295 671.498V623.378H954.785V668.378C954.785 669.198 954.99 669.799 955.4 670.18C955.84 670.531 956.558 670.707 957.554 670.707H961.421V686H954.302ZM1001.54 686H981.768L960.146 642.89V640.473H978.779L1001.54 686ZM994.424 660.248L1004.27 640.473H1022.86V642.89L1004.44 680.155L994.424 660.248ZM1049.49 653.7C1045.3 653.964 1043.2 655.194 1043.2 657.392V657.479H1025.36V657.392C1025.36 652.089 1027.5 647.841 1031.78 644.647C1036.08 641.454 1041.99 639.696 1049.49 639.374V653.7ZM1054.28 639.374C1061.78 639.667 1067.62 641.645 1071.81 645.307C1076 648.939 1078.1 653.861 1078.1 660.072V668.554C1078.1 669.315 1078.3 669.872 1078.71 670.224C1079.12 670.546 1079.79 670.707 1080.73 670.707H1084.69V686H1074.89C1070.38 686 1066.86 684.828 1064.34 682.484C1061.82 680.111 1060.56 676.786 1060.56 672.509V659.896C1060.56 658.051 1060.05 656.63 1059.02 655.634C1058 654.608 1056.42 653.993 1054.28 653.788V639.374ZM1057.31 684.55C1053.53 686.308 1049.18 687.187 1044.26 687.187C1038.22 687.187 1033.51 685.956 1030.11 683.495C1026.71 681.005 1025.01 677.577 1025.01 673.212C1025.01 665.8 1029.99 661.537 1039.95 660.424L1055.77 658.622V668.29L1045.36 669.521C1043.36 669.784 1042.37 670.663 1042.37 672.157C1042.37 674.003 1044.02 674.926 1047.33 674.926C1050.32 674.926 1053.18 674.325 1055.9 673.124L1057.31 684.55ZM1089.7 640.473H1107.19V686H1089.7V640.473ZM1111.93 642.099C1113.98 641.015 1116.68 640.473 1120.02 640.473H1126.79V655.766H1118.44C1115.95 655.766 1113.78 656.19 1111.93 657.04V642.099ZM831.255 776.069C838.286 775.981 841.802 774.722 841.802 772.29V771.719C841.802 770.107 839.854 768.994 835.957 768.379L819.302 765.786C806.47 763.794 800.054 758.33 800.054 749.395V748.516C800.054 742.92 802.354 738.481 806.953 735.2C811.553 731.89 818.071 730.088 826.509 729.795V744.912C820.854 745.088 818.027 746.143 818.027 748.076V748.604C818.027 749.277 818.467 749.834 819.346 750.273C820.254 750.684 821.704 751.05 823.696 751.372L840.439 754.009C847.061 755.063 851.997 756.968 855.249 759.722C858.53 762.476 860.171 766.211 860.171 770.928V771.807C860.171 777.695 857.637 782.354 852.568 785.781C847.529 789.209 840.425 791.011 831.255 791.187V776.069ZM831.255 729.795C840.103 730.059 846.885 731.934 851.602 735.42C856.348 738.906 858.721 743.784 858.721 750.054V750.845H841.362V750.054C841.362 746.89 837.993 745.176 831.255 744.912V729.795ZM826.509 791.099C817.632 790.688 810.864 788.652 806.206 784.99C801.548 781.328 799.219 776.187 799.219 769.565V768.862H816.797V769.565C816.797 771.323 817.632 772.744 819.302 773.828C821.001 774.912 823.403 775.586 826.509 775.85V791.099ZM893.965 744.473H910.884V759.766H862.896V744.473H872.783C874.336 744.473 875.42 744.165 876.035 743.55C876.65 742.935 876.958 741.865 876.958 740.342V732.476H893.965V744.473ZM893.965 771.543C893.965 773.652 895.166 774.707 897.568 774.707H908.159V790H894.404C888.867 790 884.487 788.535 881.265 785.605C878.071 782.646 876.475 778.647 876.475 773.608V764.248H893.965V771.543ZM942.085 743.374C950.171 743.726 956.382 745.894 960.718 749.878C965.054 753.833 967.222 759.253 967.222 766.138V771.543H929.692C930.308 775.059 932.856 777.036 937.339 777.476V791.099C929.37 790.747 923.159 788.535 918.706 784.463C914.253 780.361 912.026 774.912 912.026 768.115V766.621C912.026 759.795 914.268 754.316 918.75 750.186C923.232 746.025 929.429 743.755 937.339 743.374V756.426C933.53 756.865 931.099 758.521 930.044 761.392H949.292C948.237 758.521 945.835 756.865 942.085 756.426V743.374ZM942.085 777.651C946.011 777.388 948.384 776.465 949.204 774.883H967.134C966.226 779.951 963.662 783.877 959.443 786.66C955.254 789.414 949.468 790.923 942.085 791.187V777.651ZM997.544 745.176C1000 743.916 1002.91 743.286 1006.25 743.286C1013.48 743.228 1019.08 745.293 1023.03 749.482C1026.99 753.672 1028.96 759.941 1028.96 768.291V790H1011.47V768.291C1011.47 765.332 1010.68 763.091 1009.1 761.567C1007.55 760.015 1005.28 759.238 1002.29 759.238C1000.39 759.238 998.804 759.736 997.544 760.732V745.176ZM975.308 790V744.473H992.754V790H975.308ZM1061.97 759.326C1056.99 759.766 1054.5 762.124 1054.5 766.401V768.027C1054.5 770.166 1055.11 771.821 1056.34 772.993C1057.57 774.165 1059.45 774.883 1061.97 775.146V791.099C1053.97 790.747 1047.7 788.491 1043.16 784.331C1038.65 780.171 1036.39 774.736 1036.39 768.027V766.401C1036.39 759.692 1038.65 754.272 1043.16 750.142C1047.67 745.981 1053.94 743.726 1061.97 743.374V759.326ZM1066.76 743.374C1074.29 743.726 1080.34 745.85 1084.91 749.746C1089.48 753.643 1091.76 758.535 1091.76 764.424V764.6H1073.83V764.424C1073.83 763.105 1073.2 761.978 1071.94 761.04C1070.68 760.103 1068.96 759.531 1066.76 759.326V743.374ZM1066.76 775.146C1069.01 774.912 1070.76 774.355 1071.99 773.477C1073.22 772.598 1073.83 771.44 1073.83 770.005V769.829H1091.76V770.005C1091.76 776.069 1089.54 781.021 1085.08 784.858C1080.66 788.667 1074.55 790.747 1066.76 791.099V775.146ZM1114.22 738.32C1112.34 740.078 1109.93 740.957 1106.97 740.957C1104.01 740.957 1101.58 740.063 1099.67 738.276C1097.8 736.489 1096.86 734.204 1096.86 731.421C1096.86 728.638 1097.78 726.367 1099.63 724.609C1101.5 722.852 1103.95 721.973 1106.97 721.973C1109.99 721.973 1112.42 722.837 1114.26 724.565C1116.11 726.294 1117.03 728.579 1117.03 731.421C1117.03 734.263 1116.09 736.562 1114.22 738.32ZM1098.22 790V744.473H1115.71V790H1098.22ZM1140.98 790C1135.71 790 1131.55 788.696 1128.5 786.089C1125.48 783.481 1123.97 779.951 1123.97 775.498V727.378H1141.46V772.378C1141.46 773.198 1141.67 773.799 1142.08 774.18C1142.52 774.531 1143.24 774.707 1144.23 774.707H1148.1V790H1140.98Z" fill="black"/>
<path d="M126.54 626.96V640.91H107.91V649.55H124.74V663.5H107.91V672.05H126.54V686H92.61V626.96H126.54ZM154.324 639.29C158.584 639.29 161.854 640.52 164.134 642.98C166.474 645.38 167.644 648.8 167.644 653.24V686H152.884V657.02C152.884 655.64 152.614 654.68 152.074 654.14C151.534 653.54 150.634 653.24 149.374 653.24C147.994 653.24 146.794 653.75 145.774 654.77V686H131.014V640.46H143.704L144.154 642.98C146.914 640.52 150.304 639.29 154.324 639.29ZM208.323 640.46V685.82C208.323 691.16 206.733 695.27 203.553 698.15C200.433 701.03 195.903 702.47 189.963 702.47C184.023 702.47 179.463 701 176.283 698.06C173.163 695.12 171.603 690.89 171.603 685.37V684.47H186.453V685.37C186.453 687.83 187.683 689.06 190.143 689.06C191.223 689.06 192.063 688.76 192.663 688.16C193.263 687.62 193.563 686.84 193.563 685.82V680.87C191.223 682.19 188.673 682.85 185.913 682.85C181.293 682.85 177.753 681.65 175.293 679.25C172.893 676.79 171.693 673.25 171.693 668.63V653.51C171.693 648.83 172.893 645.29 175.293 642.89C177.753 640.49 181.293 639.29 185.913 639.29C189.513 639.29 192.603 640.49 195.183 642.89L195.633 640.46H208.323ZM190.233 670.25C191.493 670.25 192.603 669.77 193.563 668.81V654.68C192.603 653.72 191.493 653.24 190.233 653.24C189.033 653.24 188.103 653.6 187.443 654.32C186.783 655.04 186.453 656.09 186.453 657.47V666.02C186.453 667.4 186.783 668.45 187.443 669.17C188.103 669.89 189.033 670.25 190.233 670.25ZM230.112 687.17C224.232 687.17 219.792 685.82 216.792 683.12C213.852 680.42 212.382 676.43 212.382 671.15V669.71H226.332V671.15C226.332 673.67 227.532 674.93 229.932 674.93C230.892 674.93 231.642 674.72 232.182 674.3C232.782 673.82 233.082 673.25 233.082 672.59V671.96C233.082 670.64 231.852 669.65 229.392 668.99L224.532 667.73C220.752 666.71 217.812 665.12 215.712 662.96C213.612 660.74 212.562 658.16 212.562 655.22V653.42C212.562 649.04 214.152 645.59 217.332 643.07C220.512 640.55 224.862 639.29 230.382 639.29C235.962 639.29 240.192 640.61 243.072 643.25C246.012 645.83 247.482 649.64 247.482 654.68V656.12H233.532V654.68C233.532 653.66 233.232 652.85 232.632 652.25C232.032 651.65 231.162 651.35 230.022 651.35C229.062 651.35 228.252 651.53 227.592 651.89C226.992 652.25 226.692 652.73 226.692 653.33V653.96C226.692 654.62 226.902 655.13 227.322 655.49C227.742 655.85 228.522 656.18 229.662 656.48L236.052 658.28C240.132 659.42 243.102 661.01 244.962 663.05C246.822 665.09 247.752 667.79 247.752 671.15V672.95C247.752 677.39 246.162 680.87 242.982 683.39C239.862 685.91 235.572 687.17 230.112 687.17ZM268.97 687.17C263.15 687.17 258.68 685.76 255.56 682.94C252.5 680.06 250.97 675.95 250.97 670.61V655.85C250.97 650.51 252.5 646.43 255.56 643.61C258.68 640.73 263.15 639.29 268.97 639.29C274.79 639.29 279.26 640.73 282.38 643.61C285.56 646.43 287.15 650.51 287.15 655.85V660.89H272.39V656.48C272.39 655.52 272.06 654.74 271.4 654.14C270.8 653.54 269.99 653.24 268.97 653.24C268.01 653.24 267.23 653.54 266.63 654.14C266.03 654.68 265.73 655.46 265.73 656.48V669.98C265.73 670.94 266.03 671.72 266.63 672.32C267.23 672.92 268.01 673.22 268.97 673.22C269.99 673.22 270.8 672.92 271.4 672.32C272.06 671.72 272.39 670.94 272.39 669.98V666.11H287.15V670.61C287.15 675.95 285.56 680.06 282.38 682.94C279.26 685.76 274.79 687.17 268.97 687.17ZM314.724 639.29C318.624 639.29 321.804 640.4 324.264 642.62C326.784 644.84 328.044 648.38 328.044 653.24V686H313.284V657.02C313.284 655.58 312.984 654.59 312.384 654.05C311.844 653.51 310.974 653.24 309.774 653.24C308.394 653.24 307.194 653.75 306.174 654.77V686H291.414V623.36H306.174V641.81C308.634 640.13 311.484 639.29 314.724 639.29ZM357.023 640.46V653.96H352.163C349.943 653.96 348.263 654.53 347.123 655.67V686H332.363V640.46H344.963L345.503 643.07C347.603 641.33 349.823 640.46 352.163 640.46H357.023ZM374.721 640.46V686H359.961V640.46H374.721ZM367.341 637.13C364.701 637.13 362.571 636.32 360.951 634.7C359.331 633.02 358.521 630.89 358.521 628.31C358.521 625.67 359.331 623.54 360.951 621.92C362.571 620.3 364.701 619.49 367.341 619.49C369.981 619.49 372.111 620.3 373.731 621.92C375.351 623.54 376.161 625.67 376.161 628.31C376.161 630.95 375.351 633.08 373.731 634.7C372.111 636.32 369.981 637.13 367.341 637.13ZM407.927 653.96H398.567V686H383.807V653.96H376.967V640.46H383.807V636.14C383.807 631.7 384.917 628.46 387.137 626.42C389.357 624.38 392.837 623.36 397.577 623.36H405.677V636.86H401.627C399.587 636.86 398.567 637.82 398.567 639.74V640.46H407.927V653.96ZM423.089 653.96V668.81C423.089 670.01 423.359 670.94 423.899 671.6C424.499 672.2 425.309 672.5 426.329 672.5H430.199V686H422.999C418.199 686 414.539 684.86 412.019 682.58C409.559 680.24 408.329 676.82 408.329 672.32V653.96H401.489V640.46H405.359C406.559 640.46 407.429 640.19 407.969 639.65C408.569 639.05 408.869 638.15 408.869 636.95V628.49H423.089V640.46H432.449V653.96H423.089Z" fill="black"/>
<rect x="70" y="935" width="412" height="81" rx="18" fill="black"/>
<rect x="966" y="935" width="412" height="81" rx="18" fill="black"/>
<path d="M132.984 954.016V959.712H103.288V972.704H131.704V978.4H103.288V996H96.888V954.016H132.984ZM164.159 996.768C159.337 996.768 155.113 995.893 151.487 994.144C147.86 992.395 145.065 989.92 143.103 986.72C141.14 983.52 140.159 979.765 140.159 975.456V974.624C140.159 970.315 141.14 966.56 143.103 963.36C145.065 960.117 147.86 957.621 151.487 955.872C155.113 954.123 159.337 953.248 164.159 953.248C168.98 953.248 173.183 954.123 176.767 955.872C180.393 957.621 183.188 960.117 185.151 963.36C187.113 966.56 188.095 970.315 188.095 974.624V975.456C188.095 979.765 187.113 983.52 185.151 986.72C183.188 989.92 180.393 992.395 176.767 994.144C173.183 995.893 168.98 996.768 164.159 996.768ZM164.159 990.816C169.663 990.816 173.951 989.472 177.023 986.784C180.095 984.096 181.631 980.363 181.631 975.584V974.56C181.631 969.739 180.095 965.984 177.023 963.296C173.951 960.565 169.663 959.2 164.159 959.2C158.655 959.2 154.345 960.565 151.231 963.296C148.159 965.984 146.623 969.739 146.623 974.56V975.584C146.623 980.363 148.159 984.096 151.231 986.784C154.345 989.472 158.655 990.816 164.159 990.816ZM239.164 967.456C239.164 970.955 237.905 973.792 235.388 975.968C232.913 978.144 229.5 979.339 225.148 979.552L238.972 995.04V996H231.676L216.892 979.552H204.476V996H198.076V954.016H223.932C228.668 954.016 232.38 955.147 235.068 957.408C237.798 959.627 239.164 962.699 239.164 966.624V967.456ZM232.7 966.432C232.7 964.299 231.91 962.656 230.332 961.504C228.796 960.309 226.62 959.712 223.804 959.712H204.476V973.92H223.804C226.62 973.92 228.796 973.344 230.332 972.192C231.91 970.997 232.7 969.333 232.7 967.2V966.432ZM316.483 954.016V954.976L300.931 996H293.187L280.194 961.76L267.203 996H259.458L243.843 954.976V954.016H250.371L263.363 989.088L276.739 954.016H283.651L297.027 989.024L309.955 954.016H316.483ZM360.688 995.04V996H354.16L349.168 985.376H325.488L320.496 996H313.968V995.04L333.808 954.016H340.848L360.688 995.04ZM346.416 979.616L337.328 960.352L328.24 979.616H346.416ZM408.914 967.456C408.914 970.955 407.655 973.792 405.138 975.968C402.663 978.144 399.25 979.339 394.898 979.552L408.722 995.04V996H401.426L386.642 979.552H374.226V996H367.826V954.016H393.682C398.418 954.016 402.13 955.147 404.818 957.408C407.548 959.627 408.914 962.699 408.914 966.624V967.456ZM402.45 966.432C402.45 964.299 401.66 962.656 400.082 961.504C398.546 960.309 396.37 959.712 393.554 959.712H374.226V973.92H393.554C396.37 973.92 398.546 973.344 400.082 972.192C401.66 970.997 402.45 969.333 402.45 967.2V966.432ZM439.036 954.016C446.631 954.016 452.391 955.765 456.316 959.264C460.284 962.763 462.268 967.861 462.268 974.56V975.52C462.268 982.219 460.284 987.317 456.316 990.816C452.391 994.272 446.631 996 439.036 996H419.388V954.016H439.036ZM439.036 990.304C450.215 990.304 455.804 985.397 455.804 975.584V974.496C455.804 969.632 454.375 965.963 451.516 963.488C448.7 960.971 444.519 959.712 438.972 959.712H425.788V990.304H439.036Z" fill="white"/>
<path d="M1054.96 996.768C1048.18 996.768 1043.03 995.595 1039.54 993.248C1036.08 990.859 1034.35 987.381 1034.35 982.816V982.176H1040.75V982.816C1040.75 988.277 1045.59 991.008 1055.28 991.008C1059.59 991.008 1062.87 990.475 1065.14 989.408C1067.4 988.341 1068.53 986.763 1068.53 984.672V984.16C1068.53 982.368 1067.8 981.024 1066.35 980.128C1064.94 979.232 1062.43 978.549 1058.8 978.08L1049.26 976.8C1044.61 976.203 1041.11 975.008 1038.77 973.216C1036.46 971.381 1035.31 968.928 1035.31 965.856V965.216C1035.31 961.461 1036.98 958.539 1040.3 956.448C1043.63 954.315 1048.33 953.248 1054.38 953.248C1060.83 953.248 1065.71 954.4 1069.04 956.704C1072.41 959.008 1074.1 962.357 1074.1 966.752V967.392H1067.76V966.752C1067.76 961.589 1063.3 959.008 1054.38 959.008C1050.29 959.008 1047.15 959.541 1044.98 960.608C1042.84 961.632 1041.78 963.125 1041.78 965.088V965.6C1041.78 967.179 1042.46 968.395 1043.82 969.248C1045.19 970.101 1047.47 970.741 1050.67 971.168L1060.27 972.384C1065.35 973.024 1069.06 974.261 1071.41 976.096C1073.8 977.931 1074.99 980.533 1074.99 983.904V984.544C1074.99 988.427 1073.26 991.435 1069.81 993.568C1066.35 995.701 1061.4 996.768 1054.96 996.768ZM1120.98 954.016V959.712H1091.66V972.128H1119.7V977.824H1091.66V990.304H1120.98V996H1085.26V954.016H1120.98ZM1137.91 954.016V990.304H1168.83V996H1131.51V954.016H1137.91ZM1211.16 954.016V959.712H1181.85V972.128H1209.88V977.824H1181.85V990.304H1211.16V996H1175.45V954.016H1211.16ZM1244.23 996.768C1239.32 996.768 1235.03 995.915 1231.36 994.208C1227.7 992.459 1224.86 989.984 1222.85 986.784C1220.89 983.584 1219.91 979.851 1219.91 975.584V974.496C1219.91 970.229 1220.89 966.496 1222.85 963.296C1224.86 960.096 1227.7 957.621 1231.36 955.872C1235.03 954.123 1239.32 953.248 1244.23 953.248C1248.67 953.248 1252.66 953.995 1256.2 955.488C1259.78 956.981 1262.58 959.051 1264.58 961.696C1266.63 964.299 1267.65 967.221 1267.65 970.464V971.04H1261.19V970.464C1261.19 968.331 1260.46 966.411 1259.01 964.704C1257.56 962.997 1255.54 961.653 1252.93 960.672C1250.37 959.691 1247.47 959.2 1244.23 959.2C1238.51 959.2 1234.1 960.523 1230.98 963.168C1227.91 965.813 1226.37 969.568 1226.37 974.432V975.648C1226.37 980.512 1227.91 984.267 1230.98 986.912C1234.1 989.515 1238.51 990.816 1244.23 990.816C1247.51 990.816 1250.44 990.347 1253 989.408C1255.6 988.427 1257.6 987.083 1259.01 985.376C1260.46 983.669 1261.19 981.749 1261.19 979.616V978.976H1267.65V979.616C1267.65 982.859 1266.63 985.781 1264.58 988.384C1262.58 990.987 1259.78 993.035 1256.2 994.528C1252.66 996.021 1248.67 996.768 1244.23 996.768ZM1270.64 959.712V954.016H1313.33V959.712H1295.16V996H1288.82V959.712H1270.64Z" fill="white"/>
<path d="M258.206 370.269V380.885H267V399.462H248.532V410.962H218.631V421.577H196.645V431.308H218.631V442.808H248.532V453.423H267V472.885H258.206V484.385H236.22V495H185.213V484.385H164.986V472.885H153.553V453.423H143V399.462H153.553V380.885H164.986V370.269H185.213V357H236.22V370.269H258.206Z" fill="#FFF500"/>
<path d="M433.206 370.269V380.885H442V399.462H423.532V410.962H393.631V421.577H371.645V431.308H393.631V442.808H423.532V453.423H442V472.885H433.206V484.385H411.22V495H360.213V484.385H339.986V472.885H328.553V453.423H318V399.462H328.553V380.885H339.986V370.269H360.213V357H411.22V370.269H433.206Z" fill="#FFF500"/>
<path d="M608.206 370.269V380.885H617V399.462H598.532V410.962H568.631V421.577H546.645V431.308H568.631V442.808H598.532V453.423H617V472.885H608.206V484.385H586.22V495H535.213V484.385H514.986V472.885H503.553V453.423H493V399.462H503.553V380.885H514.986V370.269H535.213V357H586.22V370.269H608.206Z" fill="#FFF500"/>
<path d="M876.019 388.302H869V447.003H877.933V441.899H885.589V432.966H892.608V441.899H900.265V447.003H914.94V432.966H927.701V447.003H944.929V441.899H951.309V432.966H961.518V441.899H967.261V447.003H974.279V388.302H967.261V364.694H958.966V357.675H951.309V350.019H937.272V343H907.921V350.019H892.608V357.675H885.589V364.694H876.019V388.302Z" fill="white"/>
<path d="M886.866 398.51H891.97V403.615H909.198V398.51H914.94V378.73H909.198V371.074H891.97V378.73H886.866V398.51Z" fill="white"/>
<path d="M927.701 398.51H932.806V403.615H950.033V398.51H955.776V378.73H950.033V371.074H932.806V378.73H927.701V398.51Z" fill="white"/>
<rect x="893.246" y="371.074" width="15.3133" height="15.3133" fill="#161CA9"/>
<rect x="934.082" y="371.074" width="15.3133" height="15.3133" fill="#161CA9"/>
<path d="M1027.99 389.481H1021.07V447.379H1029.88V442.344H1037.43V433.533H1044.36V442.344H1051.91V447.379H1066.38V433.533H1078.97V447.379H1095.96V442.344H1102.25V433.533H1112.32V442.344H1117.99V447.379H1124.91V389.481H1117.99V366.196H1109.8V359.273H1102.25V351.721H1088.41V344.799H1059.46V351.721H1044.36V359.273H1037.43V366.196H1027.99V389.481Z" fill="#31B72E"/>
<path d="M1038.69 399.55H1043.73V404.585H1060.72V399.55H1066.38V380.041H1060.72V372.489H1043.73V380.041H1038.69V399.55Z" fill="white"/>
<path d="M1078.97 399.55H1084V404.585H1100.99V399.55H1106.66V380.041H1100.99V372.489H1084V380.041H1078.97V399.55Z" fill="white"/>
<rect x="1044.98" y="396.403" width="15.1038" height="15.1038" fill="#161CA9"/>
<rect x="1085.26" y="396.403" width="15.1038" height="15.1038" fill="#161CA9"/>
<path d="M1178.38 388.466H1171.34V447.379H1180.3V442.256H1187.99V433.291H1195.03V442.256H1202.72V447.379H1217.45V433.291H1230.25V447.379H1247.54V442.256H1253.95V433.291H1264.19V442.256H1269.96V447.379H1277V388.466H1269.96V364.772H1261.63V357.728H1253.95V350.044H1239.86V343H1210.4V350.044H1195.03V357.728H1187.99V364.772H1178.38V388.466Z" fill="black"/>
<path d="M1189.27 398.711H1194.39V403.834H1211.68V398.711H1217.45V378.86H1211.68V371.176H1194.39V378.86H1189.27V398.711Z" fill="white"/>
<path d="M1230.25 398.711H1235.38V403.834H1252.67V398.711H1258.43V378.86H1252.67V371.176H1235.38V378.86H1230.25V398.711Z" fill="white"/>
<rect x="1195.67" y="380.141" width="15.3687" height="15.3687" fill="#161CA9"/>
<rect x="1236.66" y="380.141" width="15.3687" height="15.3687" fill="#161CA9"/>
<line x1="61.0312" y1="191.834" x2="674.484" y2="191.834" stroke="black" stroke-width="28.3324"/>
<line x1="60.6821" y1="513.379" x2="60.6821" y2="526.668" stroke="black" stroke-width="28.3324"/>
<line x1="688.651" y1="513.379" x2="688.651" y2="526.668" stroke="black" stroke-width="28.3324"/>
<line x1="688.651" y1="206" x2="688.651" y2="219.289" stroke="black" stroke-width="28.3324"/>
<line x1="60.6821" y1="206" x2="60.6821" y2="219.289" stroke="black" stroke-width="28.3324"/>
<line x1="46.1662" y1="219.289" x2="46.1662" y2="513.379" stroke="black" stroke-width="28.3324"/>
<line x1="703.166" y1="219.289" x2="703.166" y2="513.379" stroke="black" stroke-width="28.3324"/>
<line x1="61.0312" y1="525.791" x2="674.484" y2="525.791" stroke="black" stroke-width="28.3324"/>
<line x1="757.949" y1="192.349" x2="1369.64" y2="192.349" stroke="black" stroke-width="28.2513"/>
<line x1="757.6" y1="512.973" x2="757.6" y2="526.224" stroke="black" stroke-width="28.2513"/>
<line x1="1383.77" y1="512.973" x2="1383.77" y2="526.224" stroke="black" stroke-width="28.2513"/>
<line x1="1383.77" y1="206.475" x2="1383.77" y2="219.725" stroke="black" stroke-width="28.2513"/>
<line x1="757.6" y1="206.475" x2="757.6" y2="219.725" stroke="black" stroke-width="28.2513"/>
<line x1="743.126" y1="219.726" x2="743.126" y2="512.973" stroke="black" stroke-width="28.2513"/>
<line x1="1398.24" y1="219.726" x2="1398.24" y2="512.973" stroke="black" stroke-width="28.2513"/>
<line x1="757.949" y1="525.349" x2="1369.64" y2="525.349" stroke="black" stroke-width="28.2513"/>
<rect x="60" y="870" width="15" height="15" fill="black"/>
<rect x="120" y="870" width="15" height="15" fill="black"/>
<rect x="180" y="870" width="15" height="15" fill="black"/>
<rect x="240" y="870" width="15" height="15" fill="black"/>
<rect x="390" y="870" width="15" height="15" fill="black"/>
<rect x="540" y="870" width="15" height="15" fill="black"/>
<rect x="300" y="870" width="15" height="15" fill="black"/>
<rect x="450" y="870" width="15" height="15" fill="black"/>
<rect x="600" y="870" width="15" height="15" fill="black"/>
<rect x="75" y="855" width="15" height="15" fill="black"/>
<rect x="135" y="855" width="15" height="15" fill="black"/>
<rect x="195" y="855" width="15" height="15" fill="black"/>
<rect x="345" y="855" width="15" height="15" fill="black"/>
<rect x="495" y="855" width="15" height="15" fill="black"/>
<rect x="255" y="855" width="15" height="15" fill="black"/>
<rect x="405" y="855" width="15" height="15" fill="black"/>
<rect x="555" y="855" width="15" height="15" fill="black"/>
<rect x="315" y="855" width="15" height="15" fill="black"/>
<rect x="465" y="855" width="15" height="15" fill="black"/>
<rect x="615" y="855" width="15" height="15" fill="black"/>
<rect x="645" y="855" width="15" height="15" fill="black"/>
<rect x="675" y="855" width="15" height="15" fill="black"/>
<rect x="90" y="870" width="15" height="15" fill="black"/>
<rect x="150" y="870" width="15" height="15" fill="black"/>
<rect x="210" y="870" width="15" height="15" fill="black"/>
<rect x="360" y="870" width="15" height="15" fill="black"/>
<rect x="510" y="870" width="15" height="15" fill="black"/>
<rect x="270" y="870" width="15" height="15" fill="black"/>
<rect x="420" y="870" width="15" height="15" fill="black"/>
<rect x="570" y="870" width="15" height="15" fill="black"/>
<rect x="330" y="870" width="15" height="15" fill="black"/>
<rect x="480" y="870" width="15" height="15" fill="black"/>
<rect x="630" y="870" width="15" height="15" fill="black"/>
<rect x="660" y="870" width="15" height="15" fill="black"/>
<rect x="105" y="855" width="15" height="15" fill="black"/>
<rect x="165" y="855" width="15" height="15" fill="black"/>
<rect x="225" y="855" width="15" height="15" fill="black"/>
<rect x="375" y="855" width="15" height="15" fill="black"/>
<rect x="525" y="855" width="15" height="15" fill="black"/>
<rect x="285" y="855" width="15" height="15" fill="black"/>
<rect x="435" y="855" width="15" height="15" fill="black"/>
<rect x="585" y="855" width="15" height="15" fill="black"/>
<rect x="758" y="870" width="15" height="15" fill="black"/>
<rect x="818" y="870" width="15" height="15" fill="black"/>
<rect x="878" y="870" width="15" height="15" fill="black"/>
<rect x="938" y="870" width="15" height="15" fill="black"/>
<rect x="1088" y="870" width="15" height="15" fill="black"/>
<rect x="1238" y="870" width="15" height="15" fill="black"/>
<rect x="998" y="870" width="15" height="15" fill="black"/>
<rect x="1148" y="870" width="15" height="15" fill="black"/>
<rect x="1298" y="870" width="15" height="15" fill="black"/>
<rect x="773" y="855" width="15" height="15" fill="black"/>
<rect x="833" y="855" width="15" height="15" fill="black"/>
<rect x="893" y="855" width="15" height="15" fill="black"/>
<rect x="1043" y="855" width="15" height="15" fill="black"/>
<rect x="1193" y="855" width="15" height="15" fill="black"/>
<rect x="953" y="855" width="15" height="15" fill="black"/>
<rect x="1103" y="855" width="15" height="15" fill="black"/>
<rect x="1253" y="855" width="15" height="15" fill="black"/>
<rect x="1013" y="855" width="15" height="15" fill="black"/>
<rect x="1163" y="855" width="15" height="15" fill="black"/>
<rect x="1313" y="855" width="15" height="15" fill="black"/>
<rect x="1343" y="855" width="15" height="15" fill="black"/>
<rect x="1373" y="855" width="15" height="15" fill="black"/>
<rect x="788" y="870" width="15" height="15" fill="black"/>
<rect x="848" y="870" width="15" height="15" fill="black"/>
<rect x="908" y="870" width="15" height="15" fill="black"/>
<rect x="1058" y="870" width="15" height="15" fill="black"/>
<rect x="1208" y="870" width="15" height="15" fill="black"/>
<rect x="968" y="870" width="15" height="15" fill="black"/>
<rect x="1118" y="870" width="15" height="15" fill="black"/>
<rect x="1268" y="870" width="15" height="15" fill="black"/>
<rect x="1028" y="870" width="15" height="15" fill="black"/>
<rect x="1178" y="870" width="15" height="15" fill="black"/>
<rect x="1328" y="870" width="15" height="15" fill="black"/>
<rect x="1358" y="870" width="15" height="15" fill="black"/>
<rect x="803" y="855" width="15" height="15" fill="black"/>
<rect x="863" y="855" width="15" height="15" fill="black"/>
<rect x="923" y="855" width="15" height="15" fill="black"/>
<rect x="1073" y="855" width="15" height="15" fill="black"/>
<rect x="1223" y="855" width="15" height="15" fill="black"/>
<rect x="983" y="855" width="15" height="15" fill="black"/>
<rect x="1133" y="855" width="15" height="15" fill="black"/>
<rect x="1283" y="855" width="15" height="15" fill="black"/>
<rect x="755" y="498" width="15" height="15" fill="black"/>
<rect x="815" y="498" width="15" height="15" fill="black"/>
<rect x="875" y="498" width="15" height="15" fill="black"/>
<rect x="935" y="498" width="15" height="15" fill="black"/>
<rect x="1085" y="498" width="15" height="15" fill="black"/>
<rect x="1235" y="498" width="15" height="15" fill="black"/>
<rect x="995" y="498" width="15" height="15" fill="black"/>
<rect x="1145" y="498" width="15" height="15" fill="black"/>
<rect x="1295" y="498" width="15" height="15" fill="black"/>
<rect x="770" y="483" width="15" height="15" fill="black"/>
<rect x="830" y="483" width="15" height="15" fill="black"/>
<rect x="890" y="483" width="15" height="15" fill="black"/>
<rect x="1040" y="483" width="15" height="15" fill="black"/>
<rect x="1190" y="483" width="15" height="15" fill="black"/>
<rect x="950" y="483" width="15" height="15" fill="black"/>
<rect x="1100" y="483" width="15" height="15" fill="black"/>
<rect x="1250" y="483" width="15" height="15" fill="black"/>
<rect x="1010" y="483" width="15" height="15" fill="black"/>
<rect x="1160" y="483" width="15" height="15" fill="black"/>
<rect x="1310" y="483" width="15" height="15" fill="black"/>
<rect x="1340" y="483" width="15" height="15" fill="black"/>
<rect x="1370" y="483" width="15" height="15" fill="black"/>
<rect x="785" y="498" width="15" height="15" fill="black"/>
<rect x="845" y="498" width="15" height="15" fill="black"/>
<rect x="905" y="498" width="15" height="15" fill="black"/>
<rect x="1055" y="498" width="15" height="15" fill="black"/>
<rect x="1205" y="498" width="15" height="15" fill="black"/>
<rect x="965" y="498" width="15" height="15" fill="black"/>
<rect x="1115" y="498" width="15" height="15" fill="black"/>
<rect x="1265" y="498" width="15" height="15" fill="black"/>
<rect x="1025" y="498" width="15" height="15" fill="black"/>
<rect x="1175" y="498" width="15" height="15" fill="black"/>
<rect x="1325" y="498" width="15" height="15" fill="black"/>
<rect x="1355" y="498" width="15" height="15" fill="black"/>
<rect x="800" y="483" width="15" height="15" fill="black"/>
<rect x="860" y="483" width="15" height="15" fill="black"/>
<rect x="920" y="483" width="15" height="15" fill="black"/>
<rect x="1070" y="483" width="15" height="15" fill="black"/>
<rect x="1220" y="483" width="15" height="15" fill="black"/>
<rect x="980" y="483" width="15" height="15" fill="black"/>
<rect x="1130" y="483" width="15" height="15" fill="black"/>
<rect x="1280" y="483" width="15" height="15" fill="black"/>
<path d="M1277.3 647H1310.86V655.999H1321.85V670.725H1310.86V684.223H1300.87V707.744H1290.48V723.492H1308.06V713.266H1318.05V702.631H1326.84V689.746H1336.03V679.11H1357.01V689.746H1364V723.492H1346.42V735.354H1336.03V746.603H1290.48V758.261H1281.1V770.124H1270.11V780.759H1259.32V792.621H1246.54V803.257H1236.15V812.869H1200.99V803.257H1190V770.124H1200.99V758.261H1210.98V746.603H1222.96V735.354H1236.15V723.492H1246.54V713.266H1254.33V667.248H1266.91V655.999H1277.3V647Z" fill="black" stroke="#31B72E" stroke-width="0.406542"/>
<path d="M1276.3 629H1309.86V637.999H1320.85V652.725H1309.86V666.223H1299.87V689.744H1289.48V705.492H1307.06V695.266H1317.05V684.631H1325.84V671.746H1335.03V661.11H1356.01V671.746H1363V705.492H1345.42V717.354H1335.03V728.603H1289.48V740.261H1280.1V752.124H1269.11V762.759H1258.32V774.621H1245.54V785.257H1235.15V794.869H1199.99V785.257H1189V752.124H1199.99V740.261H1209.98V728.603H1221.96V717.354H1235.15V705.492H1245.54V695.266H1253.33V649.248H1265.91V637.999H1276.3V629Z" fill="#31B72E" stroke="#31B72E" stroke-width="0.406542"/>
<path d="M501.094 682V698.187H493V754.844H509.187V773.729H598.219V757.542H617.104V698.187H609.01V682H573.937V698.187H533.469V682H501.094Z" fill="#31B72E"/>
<rect x="509.187" y="700.887" width="16.1875" height="21.5833" fill="black"/>
<rect x="579.333" y="700.887" width="16.1875" height="21.5833" fill="black"/>
<rect x="541.562" y="722.469" width="26.9792" height="10.7917" fill="black"/>
<path d="M326.094 728V744.187H318V800.844H334.187V819.729H423.219V803.542H442.104V744.187H434.01V728H398.937V744.187H358.469V728H326.094Z" fill="#31B72E"/>
<rect x="334.187" y="746.887" width="16.1875" height="21.5833" fill="black"/>
<rect x="404.333" y="746.887" width="16.1875" height="21.5833" fill="black"/>
<rect x="366.562" y="768.469" width="26.9792" height="10.7917" fill="black"/>
<path d="M151.094 728V744.187H143V800.844H159.187V819.729H248.219V803.542H267.104V744.187H259.01V728H223.937V744.187H183.469V728H151.094Z" fill="#31B72E"/>
<rect x="159.187" y="746.887" width="16.1875" height="21.5833" fill="black"/>
<rect x="229.333" y="746.887" width="16.1875" height="21.5833" fill="black"/>
<rect x="191.562" y="768.469" width="26.9792" height="10.7917" fill="black"/>
</g>
<defs>
<clipPath id="clip0_37_27580">
<rect width="1440" height="1047" fill="white"/>
</clipPath>
</defs>
</svg>
